<svg xmlns="http://www.w3.org/2000/svg" xmlns:xlink="http://www.w3.org/1999/xlink" width="1900" zoomAndPan="magnify" viewBox="0 0 1425 899.99999" height="1200" preserveAspectRatio="xMidYMid meet" version="1.0"><defs><g/><clipPath id="13f3370c77"><path d="M 0 0 L 1425 0 L 1425 900 L 0 900 Z M 0 0 " clip-rule="nonzero"/></clipPath><clipPath id="8ecada2731"><rect x="0" width="1425" y="0" height="900"/></clipPath><clipPath id="5f3a9f2d12"><path d="M 712.5 654.503906 L 1039 654.503906 L 1039 721.714844 L 712.5 721.714844 Z M 712.5 654.503906 " clip-rule="nonzero"/></clipPath><clipPath id="fcbbf0e918"><path d="M 746.105469 654.503906 L 1005.375 654.503906 C 1023.9375 654.503906 1038.980469 669.550781 1038.980469 688.109375 C 1038.980469 706.667969 1023.9375 721.714844 1005.375 721.714844 L 746.105469 721.714844 C 727.546875 721.714844 712.5 706.667969 712.5 688.109375 C 712.5 669.550781 727.546875 654.503906 746.105469 654.503906 Z M 746.105469 654.503906 " clip-rule="nonzero"/></clipPath><clipPath id="a6ec6387b4"><path d="M 0.5 0.503906 L 327 0.503906 L 327 67.714844 L 0.5 67.714844 Z M 0.5 0.503906 " clip-rule="nonzero"/></clipPath><clipPath id="cf48d3cfb5"><path d="M 34.105469 0.503906 L 293.375 0.503906 C 311.9375 0.503906 326.980469 15.550781 326.980469 34.109375 C 326.980469 52.667969 311.9375 67.714844 293.375 67.714844 L 34.105469 67.714844 C 15.546875 67.714844 0.5 52.667969 0.5 34.109375 C 0.5 15.550781 15.546875 0.503906 34.105469 0.503906 Z M 34.105469 0.503906 " clip-rule="nonzero"/></clipPath><clipPath id="1750f37c95"><rect x="0" width="327" y="0" height="68"/></clipPath><clipPath id="7756a14963"><path d="M 1080.363281 654.503906 L 1406.960938 654.503906 L 1406.960938 721.714844 L 1080.363281 721.714844 Z M 1080.363281 654.503906 " clip-rule="nonzero"/></clipPath><clipPath id="c16e4b74bc"><path d="M 1113.96875 654.503906 L 1373.242188 654.503906 C 1391.800781 654.503906 1406.84375 669.550781 1406.84375 688.109375 C 1406.84375 706.667969 1391.800781 721.714844 1373.242188 721.714844 L 1113.96875 721.714844 C 1095.410156 721.714844 1080.363281 706.667969 1080.363281 688.109375 C 1080.363281 669.550781 1095.410156 654.503906 1113.96875 654.503906 Z M 1113.96875 654.503906 " clip-rule="nonzero"/></clipPath><clipPath id="b0e1f311c1"><path d="M 0.363281 0.503906 L 326.878906 0.503906 L 326.878906 67.714844 L 0.363281 67.714844 Z M 0.363281 0.503906 " clip-rule="nonzero"/></clipPath><clipPath id="dc3a75f0df"><path d="M 33.96875 0.503906 L 293.242188 0.503906 C 311.800781 0.503906 326.84375 15.550781 326.84375 34.109375 C 326.84375 52.667969 311.800781 67.714844 293.242188 67.714844 L 33.96875 67.714844 C 15.410156 67.714844 0.363281 52.667969 0.363281 34.109375 C 0.363281 15.550781 15.410156 0.503906 33.96875 0.503906 Z M 33.96875 0.503906 " clip-rule="nonzero"/></clipPath><clipPath id="3b86d49543"><rect x="0" width="327" y="0" height="68"/></clipPath><clipPath id="3127c22369"><path d="M 416.007812 632.542969 L 1425 632.542969 L 1425 757.378906 L 416.007812 757.378906 Z M 416.007812 632.542969 " clip-rule="nonzero"/></clipPath><clipPath id="8917bc7119"><path d="M 0.0078125 0.542969 L 1009 0.542969 L 1009 125.378906 L 0.0078125 125.378906 Z M 0.0078125 0.542969 " clip-rule="nonzero"/></clipPath><clipPath id="8d3fbe30c5"><rect x="0" width="1009" y="0" height="126"/></clipPath><clipPath id="aba80ef8aa"><path d="M 32.621094 153.640625 L 647.25 153.640625 L 647.25 768.265625 L 32.621094 768.265625 Z M 32.621094 153.640625 " clip-rule="nonzero"/></clipPath><clipPath id="b6b4b8a9eb"><path d="M 339.9375 153.640625 C 170.210938 153.640625 32.621094 291.230469 32.621094 460.953125 C 32.621094 630.679688 170.210938 768.265625 339.9375 768.265625 C 509.660156 768.265625 647.25 630.679688 647.25 460.953125 C 647.25 291.230469 509.660156 153.640625 339.9375 153.640625 Z M 339.9375 153.640625 " clip-rule="nonzero"/></clipPath><clipPath id="37814c77ba"><path d="M 0.621094 0.640625 L 615.25 0.640625 L 615.25 615.265625 L 0.621094 615.265625 Z M 0.621094 0.640625 " clip-rule="nonzero"/></clipPath><clipPath id="0d7cb44af7"><path d="M 307.9375 0.640625 C 138.210938 0.640625 0.621094 138.230469 0.621094 307.953125 C 0.621094 477.679688 138.210938 615.265625 307.9375 615.265625 C 477.660156 615.265625 615.25 477.679688 615.25 307.953125 C 615.25 138.230469 477.660156 0.640625 307.9375 0.640625 Z M 307.9375 0.640625 " clip-rule="nonzero"/></clipPath><clipPath id="413eae5e84"><rect x="0" width="616" y="0" height="616"/></clipPath><clipPath id="efa5749819"><path d="M 756.1875 652.921875 L 1026.375 652.921875 L 1026.375 740.699219 L 756.1875 740.699219 Z M 756.1875 652.921875 " clip-rule="nonzero"/></clipPath><clipPath id="61090f6432"><path d="M 795.9375 652.921875 L 986.4375 652.921875 C 996.976562 652.921875 1007.089844 657.109375 1014.542969 664.566406 C 1022 672.019531 1026.1875 682.128906 1026.1875 692.671875 L 1026.1875 700.949219 C 1026.1875 711.492188 1022 721.601562 1014.542969 729.058594 C 1007.089844 736.511719 996.976562 740.699219 986.4375 740.699219 L 795.9375 740.699219 C 785.394531 740.699219 775.28125 736.511719 767.828125 729.058594 C 760.375 721.601562 756.1875 711.492188 756.1875 700.949219 L 756.1875 692.671875 C 756.1875 682.128906 760.375 672.019531 767.828125 664.566406 C 775.28125 657.109375 785.394531 652.921875 795.9375 652.921875 Z M 795.9375 652.921875 " clip-rule="nonzero"/></clipPath><clipPath id="238d6ee372"><path d="M 0.1875 0.921875 L 270.238281 0.921875 L 270.238281 88.699219 L 0.1875 88.699219 Z M 0.1875 0.921875 " clip-rule="nonzero"/></clipPath><clipPath id="4e3fc16000"><path d="M 39.9375 0.921875 L 230.4375 0.921875 C 240.976562 0.921875 251.089844 5.109375 258.542969 12.566406 C 266 20.019531 270.1875 30.128906 270.1875 40.671875 L 270.1875 48.949219 C 270.1875 59.492188 266 69.601562 258.542969 77.058594 C 251.089844 84.511719 240.976562 88.699219 230.4375 88.699219 L 39.9375 88.699219 C 29.394531 88.699219 19.28125 84.511719 11.828125 77.058594 C 4.375 69.601562 0.1875 59.492188 0.1875 48.949219 L 0.1875 40.671875 C 0.1875 30.128906 4.375 20.019531 11.828125 12.566406 C 19.28125 5.109375 29.394531 0.921875 39.9375 0.921875 Z M 39.9375 0.921875 " clip-rule="nonzero"/></clipPath><clipPath id="504ec1c52f"><rect x="0" width="271" y="0" height="89"/></clipPath><clipPath id="947bebbcc6"><path d="M 1114.945312 649.222656 L 1385 649.222656 L 1385 737 L 1114.945312 737 Z M 1114.945312 649.222656 " clip-rule="nonzero"/></clipPath><clipPath id="94f5e46546"><path d="M 1154.695312 649.222656 L 1345.195312 649.222656 C 1355.738281 649.222656 1365.847656 653.410156 1373.304688 660.863281 C 1380.757812 668.320312 1384.945312 678.429688 1384.945312 688.972656 L 1384.945312 697.25 C 1384.945312 707.792969 1380.757812 717.902344 1373.304688 725.355469 C 1365.847656 732.8125 1355.738281 737 1345.195312 737 L 1154.695312 737 C 1144.152344 737 1134.042969 732.8125 1126.589844 725.355469 C 1119.132812 717.902344 1114.945312 707.792969 1114.945312 697.25 L 1114.945312 688.972656 C 1114.945312 678.429688 1119.132812 668.320312 1126.589844 660.863281 C 1134.042969 653.410156 1144.152344 649.222656 1154.695312 649.222656 Z M 1154.695312 649.222656 " clip-rule="nonzero"/></clipPath><clipPath id="ef48ab9cf7"><path d="M 0.945312 0.222656 L 271 0.222656 L 271 88 L 0.945312 88 Z M 0.945312 0.222656 " clip-rule="nonzero"/></clipPath><clipPath id="a522724d19"><path d="M 40.695312 0.222656 L 231.195312 0.222656 C 241.738281 0.222656 251.847656 4.410156 259.304688 11.863281 C 266.757812 19.320312 270.945312 29.429688 270.945312 39.972656 L 270.945312 48.25 C 270.945312 58.792969 266.757812 68.902344 259.304688 76.355469 C 251.847656 83.8125 241.738281 88 231.195312 88 L 40.695312 88 C 30.152344 88 20.042969 83.8125 12.589844 76.355469 C 5.132812 68.902344 0.945312 58.792969 0.945312 48.25 L 0.945312 39.972656 C 0.945312 29.429688 5.132812 19.320312 12.589844 11.863281 C 20.042969 4.410156 30.152344 0.222656 40.695312 0.222656 Z M 40.695312 0.222656 " clip-rule="nonzero"/></clipPath><clipPath id="8c147bbdd6"><rect x="0" width="271" y="0" height="88"/></clipPath><clipPath id="21b7fec839"><path d="M 1141.09375 668 L 1195 668 L 1195 721.996094 L 1141.09375 721.996094 Z M 1141.09375 668 " clip-rule="nonzero"/></clipPath><clipPath id="a215f7366e"><path d="M 795 667.996094 L 823 667.996094 L 823 710 L 795 710 Z M 795 667.996094 " clip-rule="nonzero"/></clipPath><clipPath id="ea09992000"><path d="M 781.9375 701 L 835.9375 701 L 835.9375 721.996094 L 781.9375 721.996094 Z M 781.9375 701 " clip-rule="nonzero"/></clipPath><clipPath id="8064510152"><rect x="0" width="152" y="0" height="35"/></clipPath><clipPath id="916d9c2067"><rect x="0" width="165" y="0" height="35"/></clipPath></defs><rect x="-142.5" width="1710" fill="#ffffff" y="-89.999999" height="1079.999988" fill-opacity="1"/><rect x="-142.5" width="1710" fill="#ffffff" y="-89.999999" height="1079.999988" fill-opacity="1"/><g transform="matrix(1, 0, 0, 1, 0, 0.000000000000108392)"><g clip-path="url(#8ecada2731)"><g clip-path="url(#13f3370c77)"><rect x="-313.5" width="2052" fill="#000000" height="1295.999986" y="-197.999998" fill-opacity="1"/></g></g></g><g clip-path="url(#5f3a9f2d12)"><g clip-path="url(#fcbbf0e918)"><g transform="matrix(1, 0, 0, 1, 712, 654)"><g clip-path="url(#1750f37c95)"><g clip-path="url(#a6ec6387b4)"><g clip-path="url(#cf48d3cfb5)"><path fill="#1f8f3a" d="M 0.5 0.503906 L 327.097656 0.503906 L 327.097656 67.714844 L 0.5 67.714844 Z M 0.5 0.503906 " fill-opacity="1" fill-rule="nonzero"/></g></g></g></g></g></g><g clip-path="url(#7756a14963)"><g clip-path="url(#c16e4b74bc)"><g transform="matrix(1, 0, 0, 1, 1080, 654)"><g clip-path="url(#3b86d49543)"><g clip-path="url(#b0e1f311c1)"><g clip-path="url(#dc3a75f0df)"><path fill="#1f8f3a" d="M 0.363281 0.503906 L 326.960938 0.503906 L 326.960938 67.714844 L 0.363281 67.714844 Z M 0.363281 0.503906 " fill-opacity="1" fill-rule="nonzero"/></g></g></g></g></g></g><g clip-path="url(#3127c22369)"><g transform="matrix(1, 0, 0, 1, 416, 632)"><g clip-path="url(#8d3fbe30c5)"><g clip-path="url(#8917bc7119)"><path fill="#1f8f3a" d="M 0.0078125 0.542969 L 1048.449219 0.542969 L 1048.449219 125.378906 L 0.0078125 125.378906 Z M 0.0078125 0.542969 " fill-opacity="1" fill-rule="nonzero"/></g></g></g></g><g clip-path="url(#aba80ef8aa)"><g clip-path="url(#b6b4b8a9eb)"><g transform="matrix(1, 0, 0, 1, 32, 153)"><g clip-path="url(#413eae5e84)"><g clip-path="url(#37814c77ba)"><g clip-path="url(#0d7cb44af7)"><path fill="#ffffff" d="M 0.621094 0.640625 L 615.25 0.640625 L 615.25 615.265625 L 0.621094 615.265625 Z M 0.621094 0.640625 " fill-opacity="1" fill-rule="nonzero"/></g></g></g></g></g></g><g clip-path="url(#efa5749819)"><g clip-path="url(#61090f6432)"><g transform="matrix(1, 0, 0, 1, 756, 652)"><g clip-path="url(#504ec1c52f)"><g clip-path="url(#238d6ee372)"><g clip-path="url(#4e3fc16000)"><path fill="#000000" d="M 0.1875 0.921875 L 270.03125 0.921875 L 270.03125 88.699219 L 0.1875 88.699219 Z M 0.1875 0.921875 " fill-opacity="1" fill-rule="nonzero"/></g></g></g></g></g></g><g clip-path="url(#947bebbcc6)"><g clip-path="url(#94f5e46546)"><g transform="matrix(1, 0, 0, 1, 1114, 649)"><g clip-path="url(#8c147bbdd6)"><g clip-path="url(#ef48ab9cf7)"><g clip-path="url(#a522724d19)"><path fill="#000000" d="M 0.945312 0.222656 L 270.792969 0.222656 L 270.792969 88 L 0.945312 88 Z M 0.945312 0.222656 " fill-opacity="1" fill-rule="nonzero"/></g></g></g></g></g></g><path fill="#ffffff" d="M 1192.265625 686.773438 C 1191.585938 686.773438 1190.902344 686.488281 1190.335938 685.980469 L 1177.289062 672.875 C 1176.210938 671.796875 1176.210938 670.09375 1177.289062 669.074219 C 1178.367188 667.996094 1180.066406 667.996094 1181.089844 669.074219 L 1194.195312 682.179688 C 1195.269531 683.257812 1195.269531 684.957031 1194.195312 685.980469 C 1193.683594 686.488281 1193.003906 686.773438 1192.265625 686.773438 Z M 1192.265625 686.773438 " fill-opacity="1" fill-rule="nonzero"/><path fill="#ffffff" d="M 1179.21875 699.878906 C 1178.535156 699.878906 1177.855469 699.59375 1177.289062 699.082031 C 1176.210938 698.007812 1176.210938 696.304688 1177.289062 695.28125 L 1190.394531 682.179688 C 1191.46875 681.101562 1193.171875 681.101562 1194.195312 682.179688 C 1195.269531 683.257812 1195.269531 684.957031 1194.195312 685.980469 L 1181.089844 699.082031 C 1180.578125 699.59375 1179.898438 699.878906 1179.21875 699.878906 Z M 1179.21875 699.878906 " fill-opacity="1" fill-rule="nonzero"/><path fill="#ffffff" d="M 1155.84375 710.144531 C 1154.371094 710.144531 1153.179688 708.953125 1153.179688 707.480469 C 1153.179688 691.140625 1162.9375 681.382812 1179.21875 681.382812 L 1191.355469 681.382812 C 1192.832031 681.382812 1194.023438 682.574219 1194.023438 684.050781 C 1194.023438 685.527344 1192.832031 686.71875 1191.355469 686.71875 L 1179.21875 686.71875 C 1165.886719 686.71875 1158.566406 694.09375 1158.566406 707.421875 C 1158.511719 708.953125 1157.320312 710.144531 1155.84375 710.144531 Z M 1155.84375 710.144531 " fill-opacity="1" fill-rule="nonzero"/><g clip-path="url(#21b7fec839)"><path fill="#ffffff" d="M 1183.472656 722.171875 L 1152.613281 722.171875 C 1146.257812 722.171875 1141.09375 717.011719 1141.09375 710.65625 L 1141.09375 679.796875 C 1141.09375 673.441406 1146.257812 668.28125 1152.613281 668.28125 C 1154.085938 668.28125 1155.277344 669.472656 1155.277344 670.945312 C 1155.277344 672.421875 1154.085938 673.613281 1152.613281 673.613281 C 1149.207031 673.613281 1146.484375 676.335938 1146.484375 679.738281 L 1146.484375 710.601562 C 1146.484375 714.003906 1149.207031 716.726562 1152.613281 716.726562 L 1183.472656 716.726562 C 1186.875 716.726562 1189.597656 714.003906 1189.597656 710.601562 C 1189.597656 709.125 1190.789062 707.933594 1192.265625 707.933594 C 1193.738281 707.933594 1194.929688 709.125 1194.929688 710.601562 C 1194.988281 717.011719 1189.824219 722.171875 1183.472656 722.171875 Z M 1183.472656 722.171875 " fill-opacity="1" fill-rule="nonzero"/></g><g clip-path="url(#a215f7366e)"><path fill="#ffffff" d="M 811.273438 701.453125 L 811.273438 670.371094 C 811.273438 669.742188 811.027344 669.140625 810.578125 668.691406 C 810.128906 668.253906 809.527344 667.996094 808.898438 667.996094 C 808.269531 667.996094 807.664062 668.253906 807.214844 668.691406 C 806.765625 669.140625 806.523438 669.742188 806.523438 670.371094 L 806.523438 701.453125 C 806.523438 701.453125 801.992188 696.917969 799.460938 694.390625 C 799.011719 693.941406 798.410156 693.699219 797.78125 693.699219 C 797.152344 693.699219 796.546875 693.941406 796.097656 694.390625 C 795.175781 695.316406 795.175781 696.816406 796.097656 697.742188 L 807.304688 708.949219 C 807.730469 709.371094 808.292969 709.601562 808.898438 709.601562 C 809.5 709.601562 810.066406 709.371094 810.488281 708.949219 L 821.695312 697.742188 C 822.621094 696.816406 822.621094 695.316406 821.695312 694.390625 C 821.246094 693.941406 820.644531 693.699219 820.015625 693.699219 C 819.386719 693.699219 818.78125 693.941406 818.332031 694.390625 C 815.792969 696.917969 811.273438 701.453125 811.273438 701.453125 Z M 811.273438 701.453125 " fill-opacity="1" fill-rule="evenodd"/></g><g clip-path="url(#ea09992000)"><path fill="#ffffff" d="M 781.9375 717.421875 C 781.9375 718.617188 782.414062 719.757812 783.261719 720.59375 C 784.109375 721.441406 785.25 721.914062 786.429688 721.914062 L 831.363281 721.914062 C 832.558594 721.914062 833.699219 721.441406 834.535156 720.59375 C 835.382812 719.746094 835.855469 718.601562 835.855469 717.421875 L 835.855469 703.828125 C 835.855469 702.515625 834.789062 701.453125 833.480469 701.453125 C 832.851562 701.453125 832.25 701.707031 831.800781 702.144531 C 831.351562 702.59375 831.105469 703.199219 831.105469 703.828125 L 831.105469 714.929688 C 831.105469 716.175781 830.105469 717.175781 828.859375 717.175781 L 788.933594 717.175781 C 787.691406 717.175781 786.6875 716.175781 786.6875 714.929688 L 786.6875 703.828125 C 786.6875 703.199219 786.429688 702.59375 785.996094 702.144531 C 785.546875 701.695312 784.941406 701.453125 784.3125 701.453125 C 783.003906 701.453125 781.9375 702.515625 781.9375 703.828125 Z M 781.9375 717.421875 " fill-opacity="1" fill-rule="evenodd"/></g><g transform="matrix(1, 0, 0, 1, 846, 677)"><g clip-path="url(#8064510152)"><g fill="#ffffff" fill-opacity="1"><g transform="translate(0.0641235, 28.32671)"><g><path d="M 7.4375 0.21875 C 6.132812 0.21875 4.992188 -0.0078125 4.015625 -0.46875 C 3.035156 -0.925781 2.273438 -1.570312 1.734375 -2.40625 C 1.203125 -3.25 0.9375 -4.21875 0.9375 -5.3125 L 0.9375 -6.0625 C 0.9375 -6.15625 0.96875 -6.234375 1.03125 -6.296875 C 1.09375 -6.359375 1.171875 -6.390625 1.265625 -6.390625 L 4.53125 -6.390625 C 4.625 -6.390625 4.703125 -6.359375 4.765625 -6.296875 C 4.828125 -6.234375 4.859375 -6.15625 4.859375 -6.0625 L 4.859375 -5.515625 C 4.859375 -4.859375 5.101562 -4.304688 5.59375 -3.859375 C 6.09375 -3.421875 6.753906 -3.203125 7.578125 -3.203125 C 8.316406 -3.203125 8.878906 -3.390625 9.265625 -3.765625 C 9.648438 -4.140625 9.84375 -4.617188 9.84375 -5.203125 C 9.84375 -5.640625 9.71875 -6.015625 9.46875 -6.328125 C 9.226562 -6.640625 8.882812 -6.929688 8.4375 -7.203125 C 8 -7.472656 7.316406 -7.84375 6.390625 -8.3125 C 5.265625 -8.882812 4.34375 -9.414062 3.625 -9.90625 C 2.90625 -10.394531 2.289062 -11.023438 1.78125 -11.796875 C 1.269531 -12.566406 1.015625 -13.5 1.015625 -14.59375 C 1.015625 -15.695312 1.273438 -16.65625 1.796875 -17.46875 C 2.316406 -18.289062 3.046875 -18.921875 3.984375 -19.359375 C 4.929688 -19.804688 6.007812 -20.03125 7.21875 -20.03125 C 8.476562 -20.03125 9.597656 -19.789062 10.578125 -19.3125 C 11.554688 -18.832031 12.320312 -18.15625 12.875 -17.28125 C 13.425781 -16.414062 13.703125 -15.421875 13.703125 -14.296875 L 13.703125 -13.71875 C 13.703125 -13.625 13.664062 -13.546875 13.59375 -13.484375 C 13.53125 -13.421875 13.453125 -13.390625 13.359375 -13.390625 L 10.109375 -13.390625 C 10.003906 -13.390625 9.921875 -13.421875 9.859375 -13.484375 C 9.796875 -13.546875 9.765625 -13.625 9.765625 -13.71875 L 9.765625 -14.234375 C 9.765625 -14.910156 9.523438 -15.472656 9.046875 -15.921875 C 8.578125 -16.378906 7.9375 -16.609375 7.125 -16.609375 C 6.445312 -16.609375 5.914062 -16.429688 5.53125 -16.078125 C 5.144531 -15.734375 4.953125 -15.25 4.953125 -14.625 C 4.953125 -14.195312 5.0625 -13.820312 5.28125 -13.5 C 5.507812 -13.175781 5.859375 -12.867188 6.328125 -12.578125 C 6.804688 -12.285156 7.523438 -11.90625 8.484375 -11.4375 L 9.078125 -11.09375 C 10.171875 -10.488281 11.023438 -9.960938 11.640625 -9.515625 C 12.253906 -9.078125 12.769531 -8.515625 13.1875 -7.828125 C 13.601562 -7.148438 13.8125 -6.332031 13.8125 -5.375 C 13.8125 -3.65625 13.226562 -2.289062 12.0625 -1.28125 C 10.90625 -0.28125 9.363281 0.21875 7.4375 0.21875 Z M 7.4375 0.21875 "/></g></g></g><g fill="#ffffff" fill-opacity="1"><g transform="translate(14.772585, 28.32671)"><g><path d="M 6.8125 -14.765625 C 7.945312 -14.765625 8.957031 -14.5625 9.84375 -14.15625 C 10.726562 -13.75 11.421875 -13.179688 11.921875 -12.453125 C 12.421875 -11.734375 12.671875 -10.910156 12.671875 -9.984375 L 12.671875 -0.34375 C 12.671875 -0.25 12.640625 -0.164062 12.578125 -0.09375 C 12.515625 -0.03125 12.4375 0 12.34375 0 L 9.03125 0 C 8.9375 0 8.851562 -0.03125 8.78125 -0.09375 C 8.71875 -0.164062 8.6875 -0.25 8.6875 -0.34375 L 8.6875 -1.125 C 8.6875 -1.1875 8.664062 -1.222656 8.625 -1.234375 C 8.59375 -1.253906 8.554688 -1.238281 8.515625 -1.1875 C 7.796875 -0.25 6.679688 0.21875 5.171875 0.21875 C 3.890625 0.21875 2.816406 -0.109375 1.953125 -0.765625 C 1.097656 -1.421875 0.671875 -2.523438 0.671875 -4.078125 C 0.671875 -7.148438 2.597656 -8.6875 6.453125 -8.6875 L 8.546875 -8.6875 C 8.640625 -8.6875 8.6875 -8.734375 8.6875 -8.828125 L 8.6875 -9.484375 C 8.6875 -10.046875 8.519531 -10.492188 8.1875 -10.828125 C 7.863281 -11.171875 7.414062 -11.34375 6.84375 -11.34375 C 6.394531 -11.34375 6.019531 -11.238281 5.71875 -11.03125 C 5.414062 -10.820312 5.226562 -10.539062 5.15625 -10.1875 C 5.09375 -10 4.957031 -9.90625 4.75 -9.90625 L 1.328125 -10.109375 C 1.234375 -10.109375 1.148438 -10.132812 1.078125 -10.1875 C 1.015625 -10.238281 0.992188 -10.3125 1.015625 -10.40625 C 1.128906 -11.707031 1.71875 -12.757812 2.78125 -13.5625 C 3.851562 -14.363281 5.195312 -14.765625 6.8125 -14.765625 Z M 6.359375 -2.796875 C 7.003906 -2.796875 7.550781 -2.972656 8 -3.328125 C 8.457031 -3.691406 8.6875 -4.164062 8.6875 -4.75 L 8.6875 -5.9375 C 8.6875 -6.03125 8.640625 -6.078125 8.546875 -6.078125 L 6.96875 -6.078125 C 6.257812 -6.078125 5.707031 -5.925781 5.3125 -5.625 C 4.914062 -5.320312 4.71875 -4.890625 4.71875 -4.328125 C 4.71875 -3.835938 4.867188 -3.457031 5.171875 -3.1875 C 5.472656 -2.925781 5.867188 -2.796875 6.359375 -2.796875 Z M 6.359375 -2.796875 "/></g></g></g><g fill="#ffffff" fill-opacity="1"><g transform="translate(28.547625, 28.32671)"><g><path d="M 4.921875 0 C 4.710938 0 4.582031 -0.09375 4.53125 -0.28125 L 0.5625 -14.203125 L 0.53125 -14.3125 C 0.53125 -14.488281 0.632812 -14.578125 0.84375 -14.578125 L 4.46875 -14.578125 C 4.675781 -14.578125 4.800781 -14.472656 4.84375 -14.265625 L 6.671875 -5.796875 C 6.691406 -5.722656 6.71875 -5.6875 6.75 -5.6875 C 6.789062 -5.6875 6.820312 -5.722656 6.84375 -5.796875 L 8.65625 -14.265625 C 8.695312 -14.472656 8.820312 -14.578125 9.03125 -14.578125 L 12.65625 -14.515625 C 12.894531 -14.515625 12.988281 -14.394531 12.9375 -14.15625 L 9.03125 -0.28125 C 8.96875 -0.09375 8.832031 0 8.625 0 Z M 4.921875 0 "/></g></g></g><g fill="#ffffff" fill-opacity="1"><g transform="translate(42.068092, 28.32671)"><g><path d="M 12.953125 -9.484375 C 13.015625 -8.859375 13.046875 -8.164062 13.046875 -7.40625 L 13.015625 -6.3125 C 13.015625 -6.082031 12.898438 -5.96875 12.671875 -5.96875 L 5.171875 -5.96875 C 5.078125 -5.96875 5.03125 -5.921875 5.03125 -5.828125 C 5.070312 -5.390625 5.113281 -5.066406 5.15625 -4.859375 C 5.25 -4.335938 5.476562 -3.925781 5.84375 -3.625 C 6.207031 -3.320312 6.664062 -3.171875 7.21875 -3.171875 C 8.144531 -3.191406 8.785156 -3.613281 9.140625 -4.4375 C 9.234375 -4.625 9.375 -4.703125 9.5625 -4.671875 L 12.5625 -4.078125 C 12.789062 -4.015625 12.867188 -3.875 12.796875 -3.65625 C 12.378906 -2.40625 11.691406 -1.445312 10.734375 -0.78125 C 9.785156 -0.113281 8.613281 0.21875 7.21875 0.21875 C 5.539062 0.21875 4.203125 -0.160156 3.203125 -0.921875 C 2.210938 -1.679688 1.566406 -2.78125 1.265625 -4.21875 C 1.097656 -4.988281 1.015625 -6.164062 1.015625 -7.75 C 1.015625 -8.65625 1.070312 -9.421875 1.1875 -10.046875 C 1.394531 -11.484375 2.015625 -12.628906 3.046875 -13.484375 C 4.085938 -14.335938 5.398438 -14.765625 6.984375 -14.765625 C 8.703125 -14.765625 10.097656 -14.28125 11.171875 -13.3125 C 12.253906 -12.34375 12.847656 -11.066406 12.953125 -9.484375 Z M 7.015625 -11.34375 C 6.503906 -11.34375 6.082031 -11.191406 5.75 -10.890625 C 5.425781 -10.585938 5.21875 -10.175781 5.125 -9.65625 C 5.0625 -9.3125 5.03125 -8.953125 5.03125 -8.578125 C 5.03125 -8.484375 5.078125 -8.4375 5.171875 -8.4375 L 8.859375 -8.4375 C 8.953125 -8.4375 9 -8.484375 9 -8.578125 C 9 -8.953125 8.96875 -9.3125 8.90625 -9.65625 C 8.832031 -10.15625 8.625 -10.5625 8.28125 -10.875 C 7.945312 -11.1875 7.523438 -11.34375 7.015625 -11.34375 Z M 7.015625 -11.34375 "/></g></g></g><g fill="#ffffff" fill-opacity="1"><g transform="translate(55.984561, 28.32671)"><g/></g></g><g fill="#ffffff" fill-opacity="1"><g transform="translate(61.641663, 28.32671)"><g><path d="M 7.640625 0.21875 C 6.359375 0.21875 5.222656 -0.03125 4.234375 -0.53125 C 3.253906 -1.039062 2.492188 -1.765625 1.953125 -2.703125 C 1.421875 -3.648438 1.15625 -4.75 1.15625 -6 L 1.15625 -13.859375 C 1.15625 -15.085938 1.421875 -16.164062 1.953125 -17.09375 C 2.492188 -18.03125 3.253906 -18.753906 4.234375 -19.265625 C 5.222656 -19.773438 6.359375 -20.03125 7.640625 -20.03125 C 8.921875 -20.03125 10.050781 -19.78125 11.03125 -19.28125 C 12.007812 -18.78125 12.769531 -18.078125 13.3125 -17.171875 C 13.851562 -16.265625 14.125 -15.207031 14.125 -14 L 14.125 -13.859375 C 14.125 -13.765625 14.085938 -13.679688 14.015625 -13.609375 C 13.953125 -13.535156 13.875 -13.5 13.78125 -13.5 L 10.46875 -13.359375 C 10.238281 -13.359375 10.125 -13.460938 10.125 -13.671875 L 10.125 -14.03125 C 10.125 -14.8125 9.894531 -15.4375 9.4375 -15.90625 C 8.988281 -16.375 8.390625 -16.609375 7.640625 -16.609375 C 6.890625 -16.609375 6.285156 -16.375 5.828125 -15.90625 C 5.378906 -15.4375 5.15625 -14.8125 5.15625 -14.03125 L 5.15625 -5.75 C 5.15625 -4.96875 5.378906 -4.347656 5.828125 -3.890625 C 6.285156 -3.429688 6.890625 -3.203125 7.640625 -3.203125 C 8.390625 -3.203125 8.988281 -3.429688 9.4375 -3.890625 C 9.894531 -4.347656 10.125 -4.96875 10.125 -5.75 L 10.125 -6.109375 C 10.125 -6.316406 10.238281 -6.421875 10.46875 -6.421875 L 13.78125 -6.28125 C 13.875 -6.28125 13.953125 -6.242188 14.015625 -6.171875 C 14.085938 -6.109375 14.125 -6.03125 14.125 -5.9375 L 14.125 -5.859375 C 14.125 -4.648438 13.851562 -3.582031 13.3125 -2.65625 C 12.769531 -1.726562 12.007812 -1.015625 11.03125 -0.515625 C 10.050781 -0.0234375 8.921875 0.21875 7.640625 0.21875 Z M 7.640625 0.21875 "/></g></g></g><g fill="#ffffff" fill-opacity="1"><g transform="translate(76.802687, 28.32671)"><g><path d="M 7.125 0.21875 C 5.488281 0.21875 4.144531 -0.1875 3.09375 -1 C 2.050781 -1.820312 1.425781 -2.953125 1.21875 -4.390625 C 1.0625 -5.253906 0.984375 -6.222656 0.984375 -7.296875 C 0.984375 -8.390625 1.0625 -9.363281 1.21875 -10.21875 C 1.425781 -11.613281 2.050781 -12.71875 3.09375 -13.53125 C 4.144531 -14.351562 5.488281 -14.765625 7.125 -14.765625 C 8.75 -14.765625 10.078125 -14.351562 11.109375 -13.53125 C 12.140625 -12.71875 12.765625 -11.613281 12.984375 -10.21875 C 13.140625 -9.363281 13.21875 -8.390625 13.21875 -7.296875 C 13.21875 -6.242188 13.140625 -5.285156 12.984375 -4.421875 C 12.773438 -2.960938 12.15625 -1.820312 11.125 -1 C 10.101562 -0.1875 8.769531 0.21875 7.125 0.21875 Z M 7.125 -3.203125 C 7.613281 -3.203125 8.03125 -3.359375 8.375 -3.671875 C 8.726562 -3.992188 8.960938 -4.429688 9.078125 -4.984375 C 9.171875 -5.773438 9.21875 -6.546875 9.21875 -7.296875 C 9.21875 -8.066406 9.171875 -8.832031 9.078125 -9.59375 C 8.984375 -10.132812 8.757812 -10.5625 8.40625 -10.875 C 8.0625 -11.1875 7.628906 -11.34375 7.109375 -11.34375 C 6.597656 -11.34375 6.164062 -11.1875 5.8125 -10.875 C 5.46875 -10.5625 5.25 -10.132812 5.15625 -9.59375 C 5.0625 -9.03125 5.015625 -8.265625 5.015625 -7.296875 C 5.015625 -6.359375 5.050781 -5.585938 5.125 -4.984375 C 5.238281 -4.429688 5.472656 -3.992188 5.828125 -3.671875 C 6.179688 -3.359375 6.613281 -3.203125 7.125 -3.203125 Z M 7.125 -3.203125 "/></g></g></g><g fill="#ffffff" fill-opacity="1"><g transform="translate(91.03029, 28.32671)"><g><path d="M 8.453125 -14.765625 C 9.835938 -14.765625 10.921875 -14.328125 11.703125 -13.453125 C 12.484375 -12.578125 12.875 -11.359375 12.875 -9.796875 L 12.875 -0.34375 C 12.875 -0.25 12.835938 -0.164062 12.765625 -0.09375 C 12.703125 -0.03125 12.625 0 12.53125 0 L 9.21875 0 C 9.125 0 9.046875 -0.03125 8.984375 -0.09375 C 8.921875 -0.164062 8.890625 -0.25 8.890625 -0.34375 L 8.890625 -9.21875 C 8.890625 -9.882812 8.726562 -10.40625 8.40625 -10.78125 C 8.082031 -11.15625 7.648438 -11.34375 7.109375 -11.34375 C 6.535156 -11.34375 6.082031 -11.148438 5.75 -10.765625 C 5.425781 -10.378906 5.265625 -9.859375 5.265625 -9.203125 L 5.265625 -0.34375 C 5.265625 -0.25 5.226562 -0.164062 5.15625 -0.09375 C 5.09375 -0.03125 5.015625 0 4.921875 0 L 1.609375 0 C 1.515625 0 1.429688 -0.03125 1.359375 -0.09375 C 1.296875 -0.164062 1.265625 -0.25 1.265625 -0.34375 L 1.265625 -14.203125 C 1.265625 -14.296875 1.296875 -14.375 1.359375 -14.4375 C 1.429688 -14.507812 1.515625 -14.546875 1.609375 -14.546875 L 4.921875 -14.546875 C 5.015625 -14.546875 5.09375 -14.507812 5.15625 -14.4375 C 5.226562 -14.375 5.265625 -14.296875 5.265625 -14.203125 L 5.265625 -13.40625 C 5.265625 -13.351562 5.28125 -13.320312 5.3125 -13.3125 C 5.351562 -13.300781 5.40625 -13.332031 5.46875 -13.40625 C 6.144531 -14.3125 7.140625 -14.765625 8.453125 -14.765625 Z M 8.453125 -14.765625 "/></g></g></g><g fill="#ffffff" fill-opacity="1"><g transform="translate(105.088178, 28.32671)"><g><path d="M 8.765625 -11.890625 C 8.765625 -11.796875 8.734375 -11.710938 8.671875 -11.640625 C 8.609375 -11.578125 8.53125 -11.546875 8.4375 -11.546875 L 6.25 -11.546875 C 6.15625 -11.546875 6.109375 -11.5 6.109375 -11.40625 L 6.109375 -5.03125 C 6.109375 -4.445312 6.222656 -4.023438 6.453125 -3.765625 C 6.691406 -3.515625 7.0625 -3.398438 7.5625 -3.421875 L 8.125 -3.421875 C 8.21875 -3.421875 8.296875 -3.382812 8.359375 -3.3125 C 8.421875 -3.25 8.453125 -3.171875 8.453125 -3.078125 L 8.453125 -0.34375 C 8.453125 -0.113281 8.34375 0 8.125 0 C 7.800781 0.0195312 7.328125 0.03125 6.703125 0.03125 C 5.210938 0.03125 4.101562 -0.210938 3.375 -0.703125 C 2.65625 -1.191406 2.296875 -2.117188 2.296875 -3.484375 L 2.296875 -11.40625 C 2.296875 -11.5 2.25 -11.546875 2.15625 -11.546875 L 0.84375 -11.546875 C 0.75 -11.546875 0.671875 -11.578125 0.609375 -11.640625 C 0.546875 -11.710938 0.515625 -11.796875 0.515625 -11.890625 L 0.515625 -14.203125 C 0.515625 -14.296875 0.546875 -14.375 0.609375 -14.4375 C 0.671875 -14.507812 0.75 -14.546875 0.84375 -14.546875 L 2.15625 -14.546875 C 2.25 -14.546875 2.296875 -14.59375 2.296875 -14.6875 L 2.296875 -17.9375 C 2.296875 -18.03125 2.328125 -18.109375 2.390625 -18.171875 C 2.453125 -18.242188 2.53125 -18.28125 2.625 -18.28125 L 5.765625 -18.28125 C 5.859375 -18.28125 5.9375 -18.242188 6 -18.171875 C 6.070312 -18.109375 6.109375 -18.03125 6.109375 -17.9375 L 6.109375 -14.6875 C 6.109375 -14.59375 6.15625 -14.546875 6.25 -14.546875 L 8.4375 -14.546875 C 8.53125 -14.546875 8.609375 -14.507812 8.671875 -14.4375 C 8.734375 -14.375 8.765625 -14.296875 8.765625 -14.203125 Z M 8.765625 -11.890625 "/></g></g></g><g fill="#ffffff" fill-opacity="1"><g transform="translate(114.563824, 28.32671)"><g><path d="M 6.8125 -14.765625 C 7.945312 -14.765625 8.957031 -14.5625 9.84375 -14.15625 C 10.726562 -13.75 11.421875 -13.179688 11.921875 -12.453125 C 12.421875 -11.734375 12.671875 -10.910156 12.671875 -9.984375 L 12.671875 -0.34375 C 12.671875 -0.25 12.640625 -0.164062 12.578125 -0.09375 C 12.515625 -0.03125 12.4375 0 12.34375 0 L 9.03125 0 C 8.9375 0 8.851562 -0.03125 8.78125 -0.09375 C 8.71875 -0.164062 8.6875 -0.25 8.6875 -0.34375 L 8.6875 -1.125 C 8.6875 -1.1875 8.664062 -1.222656 8.625 -1.234375 C 8.59375 -1.253906 8.554688 -1.238281 8.515625 -1.1875 C 7.796875 -0.25 6.679688 0.21875 5.171875 0.21875 C 3.890625 0.21875 2.816406 -0.109375 1.953125 -0.765625 C 1.097656 -1.421875 0.671875 -2.523438 0.671875 -4.078125 C 0.671875 -7.148438 2.597656 -8.6875 6.453125 -8.6875 L 8.546875 -8.6875 C 8.640625 -8.6875 8.6875 -8.734375 8.6875 -8.828125 L 8.6875 -9.484375 C 8.6875 -10.046875 8.519531 -10.492188 8.1875 -10.828125 C 7.863281 -11.171875 7.414062 -11.34375 6.84375 -11.34375 C 6.394531 -11.34375 6.019531 -11.238281 5.71875 -11.03125 C 5.414062 -10.820312 5.226562 -10.539062 5.15625 -10.1875 C 5.09375 -10 4.957031 -9.90625 4.75 -9.90625 L 1.328125 -10.109375 C 1.234375 -10.109375 1.148438 -10.132812 1.078125 -10.1875 C 1.015625 -10.238281 0.992188 -10.3125 1.015625 -10.40625 C 1.128906 -11.707031 1.71875 -12.757812 2.78125 -13.5625 C 3.851562 -14.363281 5.195312 -14.765625 6.8125 -14.765625 Z M 6.359375 -2.796875 C 7.003906 -2.796875 7.550781 -2.972656 8 -3.328125 C 8.457031 -3.691406 8.6875 -4.164062 8.6875 -4.75 L 8.6875 -5.9375 C 8.6875 -6.03125 8.640625 -6.078125 8.546875 -6.078125 L 6.96875 -6.078125 C 6.257812 -6.078125 5.707031 -5.925781 5.3125 -5.625 C 4.914062 -5.320312 4.71875 -4.890625 4.71875 -4.328125 C 4.71875 -3.835938 4.867188 -3.457031 5.171875 -3.1875 C 5.472656 -2.925781 5.867188 -2.796875 6.359375 -2.796875 Z M 6.359375 -2.796875 "/></g></g></g><g fill="#ffffff" fill-opacity="1"><g transform="translate(128.338864, 28.32671)"><g><path d="M 7.046875 0.21875 C 5.460938 0.21875 4.15625 -0.175781 3.125 -0.96875 C 2.09375 -1.769531 1.457031 -2.867188 1.21875 -4.265625 C 1.0625 -5.046875 0.984375 -6.066406 0.984375 -7.328125 C 0.984375 -8.273438 1.0625 -9.273438 1.21875 -10.328125 C 1.457031 -11.679688 2.097656 -12.757812 3.140625 -13.5625 C 4.179688 -14.363281 5.484375 -14.765625 7.046875 -14.765625 C 8.578125 -14.765625 9.863281 -14.378906 10.90625 -13.609375 C 11.957031 -12.835938 12.601562 -11.820312 12.84375 -10.5625 C 12.882812 -10.382812 12.921875 -10.109375 12.953125 -9.734375 C 12.953125 -9.523438 12.84375 -9.398438 12.625 -9.359375 L 9.359375 -9.0625 L 9.3125 -9.0625 C 9.144531 -9.0625 9.039062 -9.160156 9 -9.359375 C 9 -9.492188 8.988281 -9.59375 8.96875 -9.65625 C 8.925781 -9.800781 8.890625 -9.929688 8.859375 -10.046875 C 8.742188 -10.421875 8.523438 -10.726562 8.203125 -10.96875 C 7.878906 -11.21875 7.484375 -11.34375 7.015625 -11.34375 C 6.503906 -11.34375 6.085938 -11.191406 5.765625 -10.890625 C 5.453125 -10.585938 5.25 -10.175781 5.15625 -9.65625 C 5.039062 -9.03125 4.984375 -8.242188 4.984375 -7.296875 C 4.984375 -6.265625 5.046875 -5.453125 5.171875 -4.859375 C 5.265625 -4.359375 5.46875 -3.957031 5.78125 -3.65625 C 6.09375 -3.351562 6.503906 -3.203125 7.015625 -3.203125 C 7.566406 -3.203125 8.003906 -3.351562 8.328125 -3.65625 C 8.660156 -3.957031 8.851562 -4.332031 8.90625 -4.78125 L 8.96875 -5.125 C 8.988281 -5.21875 9.03125 -5.296875 9.09375 -5.359375 C 9.164062 -5.429688 9.25 -5.457031 9.34375 -5.4375 L 12.625 -5.15625 C 12.832031 -5.113281 12.9375 -4.988281 12.9375 -4.78125 C 12.9375 -4.664062 12.914062 -4.476562 12.875 -4.21875 C 12.6875 -2.84375 12.066406 -1.757812 11.015625 -0.96875 C 9.972656 -0.175781 8.648438 0.21875 7.046875 0.21875 Z M 7.046875 0.21875 "/></g></g></g><g fill="#ffffff" fill-opacity="1"><g transform="translate(142.085618, 28.32671)"><g><path d="M 8.765625 -11.890625 C 8.765625 -11.796875 8.734375 -11.710938 8.671875 -11.640625 C 8.609375 -11.578125 8.53125 -11.546875 8.4375 -11.546875 L 6.25 -11.546875 C 6.15625 -11.546875 6.109375 -11.5 6.109375 -11.40625 L 6.109375 -5.03125 C 6.109375 -4.445312 6.222656 -4.023438 6.453125 -3.765625 C 6.691406 -3.515625 7.0625 -3.398438 7.5625 -3.421875 L 8.125 -3.421875 C 8.21875 -3.421875 8.296875 -3.382812 8.359375 -3.3125 C 8.421875 -3.25 8.453125 -3.171875 8.453125 -3.078125 L 8.453125 -0.34375 C 8.453125 -0.113281 8.34375 0 8.125 0 C 7.800781 0.0195312 7.328125 0.03125 6.703125 0.03125 C 5.210938 0.03125 4.101562 -0.210938 3.375 -0.703125 C 2.65625 -1.191406 2.296875 -2.117188 2.296875 -3.484375 L 2.296875 -11.40625 C 2.296875 -11.5 2.25 -11.546875 2.15625 -11.546875 L 0.84375 -11.546875 C 0.75 -11.546875 0.671875 -11.578125 0.609375 -11.640625 C 0.546875 -11.710938 0.515625 -11.796875 0.515625 -11.890625 L 0.515625 -14.203125 C 0.515625 -14.296875 0.546875 -14.375 0.609375 -14.4375 C 0.671875 -14.507812 0.75 -14.546875 0.84375 -14.546875 L 2.15625 -14.546875 C 2.25 -14.546875 2.296875 -14.59375 2.296875 -14.6875 L 2.296875 -17.9375 C 2.296875 -18.03125 2.328125 -18.109375 2.390625 -18.171875 C 2.453125 -18.242188 2.53125 -18.28125 2.625 -18.28125 L 5.765625 -18.28125 C 5.859375 -18.28125 5.9375 -18.242188 6 -18.171875 C 6.070312 -18.109375 6.109375 -18.03125 6.109375 -17.9375 L 6.109375 -14.6875 C 6.109375 -14.59375 6.15625 -14.546875 6.25 -14.546875 L 8.4375 -14.546875 C 8.53125 -14.546875 8.609375 -14.507812 8.671875 -14.4375 C 8.734375 -14.375 8.765625 -14.296875 8.765625 -14.203125 Z M 8.765625 -11.890625 "/></g></g></g></g></g><g transform="matrix(1, 0, 0, 1, 1205, 675)"><g clip-path="url(#916d9c2067)"><g fill="#ffffff" fill-opacity="1"><g transform="translate(0.773187, 28.476378)"><g><path d="M 7.4375 0.21875 C 6.132812 0.21875 4.992188 -0.0078125 4.015625 -0.46875 C 3.035156 -0.925781 2.273438 -1.570312 1.734375 -2.40625 C 1.203125 -3.25 0.9375 -4.21875 0.9375 -5.3125 L 0.9375 -6.0625 C 0.9375 -6.15625 0.96875 -6.234375 1.03125 -6.296875 C 1.09375 -6.359375 1.171875 -6.390625 1.265625 -6.390625 L 4.53125 -6.390625 C 4.625 -6.390625 4.703125 -6.359375 4.765625 -6.296875 C 4.828125 -6.234375 4.859375 -6.15625 4.859375 -6.0625 L 4.859375 -5.515625 C 4.859375 -4.859375 5.101562 -4.304688 5.59375 -3.859375 C 6.09375 -3.421875 6.753906 -3.203125 7.578125 -3.203125 C 8.316406 -3.203125 8.878906 -3.390625 9.265625 -3.765625 C 9.648438 -4.140625 9.84375 -4.617188 9.84375 -5.203125 C 9.84375 -5.640625 9.71875 -6.015625 9.46875 -6.328125 C 9.226562 -6.640625 8.882812 -6.929688 8.4375 -7.203125 C 8 -7.472656 7.316406 -7.84375 6.390625 -8.3125 C 5.265625 -8.882812 4.34375 -9.414062 3.625 -9.90625 C 2.90625 -10.394531 2.289062 -11.023438 1.78125 -11.796875 C 1.269531 -12.566406 1.015625 -13.5 1.015625 -14.59375 C 1.015625 -15.695312 1.273438 -16.65625 1.796875 -17.46875 C 2.316406 -18.289062 3.046875 -18.921875 3.984375 -19.359375 C 4.929688 -19.804688 6.007812 -20.03125 7.21875 -20.03125 C 8.476562 -20.03125 9.597656 -19.789062 10.578125 -19.3125 C 11.554688 -18.832031 12.320312 -18.15625 12.875 -17.28125 C 13.425781 -16.414062 13.703125 -15.421875 13.703125 -14.296875 L 13.703125 -13.71875 C 13.703125 -13.625 13.664062 -13.546875 13.59375 -13.484375 C 13.53125 -13.421875 13.453125 -13.390625 13.359375 -13.390625 L 10.109375 -13.390625 C 10.003906 -13.390625 9.921875 -13.421875 9.859375 -13.484375 C 9.796875 -13.546875 9.765625 -13.625 9.765625 -13.71875 L 9.765625 -14.234375 C 9.765625 -14.910156 9.523438 -15.472656 9.046875 -15.921875 C 8.578125 -16.378906 7.9375 -16.609375 7.125 -16.609375 C 6.445312 -16.609375 5.914062 -16.429688 5.53125 -16.078125 C 5.144531 -15.734375 4.953125 -15.25 4.953125 -14.625 C 4.953125 -14.195312 5.0625 -13.820312 5.28125 -13.5 C 5.507812 -13.175781 5.859375 -12.867188 6.328125 -12.578125 C 6.804688 -12.285156 7.523438 -11.90625 8.484375 -11.4375 L 9.078125 -11.09375 C 10.171875 -10.488281 11.023438 -9.960938 11.640625 -9.515625 C 12.253906 -9.078125 12.769531 -8.515625 13.1875 -7.828125 C 13.601562 -7.148438 13.8125 -6.332031 13.8125 -5.375 C 13.8125 -3.65625 13.226562 -2.289062 12.0625 -1.28125 C 10.90625 -0.28125 9.363281 0.21875 7.4375 0.21875 Z M 7.4375 0.21875 "/></g></g></g><g fill="#ffffff" fill-opacity="1"><g transform="translate(15.481648, 28.476378)"><g><path d="M 12.953125 -9.484375 C 13.015625 -8.859375 13.046875 -8.164062 13.046875 -7.40625 L 13.015625 -6.3125 C 13.015625 -6.082031 12.898438 -5.96875 12.671875 -5.96875 L 5.171875 -5.96875 C 5.078125 -5.96875 5.03125 -5.921875 5.03125 -5.828125 C 5.070312 -5.390625 5.113281 -5.066406 5.15625 -4.859375 C 5.25 -4.335938 5.476562 -3.925781 5.84375 -3.625 C 6.207031 -3.320312 6.664062 -3.171875 7.21875 -3.171875 C 8.144531 -3.191406 8.785156 -3.613281 9.140625 -4.4375 C 9.234375 -4.625 9.375 -4.703125 9.5625 -4.671875 L 12.5625 -4.078125 C 12.789062 -4.015625 12.867188 -3.875 12.796875 -3.65625 C 12.378906 -2.40625 11.691406 -1.445312 10.734375 -0.78125 C 9.785156 -0.113281 8.613281 0.21875 7.21875 0.21875 C 5.539062 0.21875 4.203125 -0.160156 3.203125 -0.921875 C 2.210938 -1.679688 1.566406 -2.78125 1.265625 -4.21875 C 1.097656 -4.988281 1.015625 -6.164062 1.015625 -7.75 C 1.015625 -8.65625 1.070312 -9.421875 1.1875 -10.046875 C 1.394531 -11.484375 2.015625 -12.628906 3.046875 -13.484375 C 4.085938 -14.335938 5.398438 -14.765625 6.984375 -14.765625 C 8.703125 -14.765625 10.097656 -14.28125 11.171875 -13.3125 C 12.253906 -12.34375 12.847656 -11.066406 12.953125 -9.484375 Z M 7.015625 -11.34375 C 6.503906 -11.34375 6.082031 -11.191406 5.75 -10.890625 C 5.425781 -10.585938 5.21875 -10.175781 5.125 -9.65625 C 5.0625 -9.3125 5.03125 -8.953125 5.03125 -8.578125 C 5.03125 -8.484375 5.078125 -8.4375 5.171875 -8.4375 L 8.859375 -8.4375 C 8.953125 -8.4375 9 -8.484375 9 -8.578125 C 9 -8.953125 8.96875 -9.3125 8.90625 -9.65625 C 8.832031 -10.15625 8.625 -10.5625 8.28125 -10.875 C 7.945312 -11.1875 7.523438 -11.34375 7.015625 -11.34375 Z M 7.015625 -11.34375 "/></g></g></g><g fill="#ffffff" fill-opacity="1"><g transform="translate(29.398117, 28.476378)"><g><path d="M 8.453125 -14.765625 C 9.835938 -14.765625 10.921875 -14.328125 11.703125 -13.453125 C 12.484375 -12.578125 12.875 -11.359375 12.875 -9.796875 L 12.875 -0.34375 C 12.875 -0.25 12.835938 -0.164062 12.765625 -0.09375 C 12.703125 -0.03125 12.625 0 12.53125 0 L 9.21875 0 C 9.125 0 9.046875 -0.03125 8.984375 -0.09375 C 8.921875 -0.164062 8.890625 -0.25 8.890625 -0.34375 L 8.890625 -9.21875 C 8.890625 -9.882812 8.726562 -10.40625 8.40625 -10.78125 C 8.082031 -11.15625 7.648438 -11.34375 7.109375 -11.34375 C 6.535156 -11.34375 6.082031 -11.148438 5.75 -10.765625 C 5.425781 -10.378906 5.265625 -9.859375 5.265625 -9.203125 L 5.265625 -0.34375 C 5.265625 -0.25 5.226562 -0.164062 5.15625 -0.09375 C 5.09375 -0.03125 5.015625 0 4.921875 0 L 1.609375 0 C 1.515625 0 1.429688 -0.03125 1.359375 -0.09375 C 1.296875 -0.164062 1.265625 -0.25 1.265625 -0.34375 L 1.265625 -14.203125 C 1.265625 -14.296875 1.296875 -14.375 1.359375 -14.4375 C 1.429688 -14.507812 1.515625 -14.546875 1.609375 -14.546875 L 4.921875 -14.546875 C 5.015625 -14.546875 5.09375 -14.507812 5.15625 -14.4375 C 5.226562 -14.375 5.265625 -14.296875 5.265625 -14.203125 L 5.265625 -13.40625 C 5.265625 -13.351562 5.28125 -13.320312 5.3125 -13.3125 C 5.351562 -13.300781 5.40625 -13.332031 5.46875 -13.40625 C 6.144531 -14.3125 7.140625 -14.765625 8.453125 -14.765625 Z M 8.453125 -14.765625 "/></g></g></g><g fill="#ffffff" fill-opacity="1"><g transform="translate(43.456005, 28.476378)"><g><path d="M 9.03125 -19.46875 C 9.03125 -19.5625 9.0625 -19.640625 9.125 -19.703125 C 9.1875 -19.773438 9.265625 -19.8125 9.359375 -19.8125 L 12.671875 -19.8125 C 12.765625 -19.8125 12.84375 -19.773438 12.90625 -19.703125 C 12.976562 -19.640625 13.015625 -19.5625 13.015625 -19.46875 L 13.015625 -0.34375 C 13.015625 -0.25 12.976562 -0.164062 12.90625 -0.09375 C 12.84375 -0.03125 12.765625 0 12.671875 0 L 9.359375 0 C 9.265625 0 9.1875 -0.03125 9.125 -0.09375 C 9.0625 -0.164062 9.03125 -0.25 9.03125 -0.34375 L 9.03125 -0.96875 C 9.03125 -1.019531 9.007812 -1.054688 8.96875 -1.078125 C 8.925781 -1.097656 8.890625 -1.078125 8.859375 -1.015625 C 8.160156 -0.191406 7.160156 0.21875 5.859375 0.21875 C 3.554688 0.21875 2.078125 -1.273438 1.421875 -4.265625 C 1.222656 -5.210938 1.125 -6.257812 1.125 -7.40625 C 1.125 -8.425781 1.210938 -9.421875 1.390625 -10.390625 C 1.972656 -13.304688 3.476562 -14.765625 5.90625 -14.765625 C 6.570312 -14.765625 7.140625 -14.675781 7.609375 -14.5 C 8.078125 -14.320312 8.492188 -14.015625 8.859375 -13.578125 C 8.890625 -13.523438 8.925781 -13.503906 8.96875 -13.515625 C 9.007812 -13.535156 9.03125 -13.578125 9.03125 -13.640625 Z M 8.796875 -4.84375 C 8.929688 -5.382812 9 -6.203125 9 -7.296875 C 9 -8.296875 8.921875 -9.128906 8.765625 -9.796875 C 8.523438 -10.828125 7.972656 -11.34375 7.109375 -11.34375 C 6.671875 -11.34375 6.3125 -11.210938 6.03125 -10.953125 C 5.75 -10.691406 5.539062 -10.3125 5.40625 -9.8125 C 5.238281 -9.269531 5.15625 -8.429688 5.15625 -7.296875 C 5.15625 -6.222656 5.21875 -5.410156 5.34375 -4.859375 C 5.59375 -3.753906 6.179688 -3.203125 7.109375 -3.203125 C 7.953125 -3.203125 8.515625 -3.75 8.796875 -4.84375 Z M 8.796875 -4.84375 "/></g></g></g><g fill="#ffffff" fill-opacity="1"><g transform="translate(57.740179, 28.476378)"><g/></g></g><g fill="#ffffff" fill-opacity="1"><g transform="translate(63.397281, 28.476378)"><g><path d="M 8.765625 -11.890625 C 8.765625 -11.796875 8.734375 -11.710938 8.671875 -11.640625 C 8.609375 -11.578125 8.53125 -11.546875 8.4375 -11.546875 L 6.25 -11.546875 C 6.15625 -11.546875 6.109375 -11.5 6.109375 -11.40625 L 6.109375 -5.03125 C 6.109375 -4.445312 6.222656 -4.023438 6.453125 -3.765625 C 6.691406 -3.515625 7.0625 -3.398438 7.5625 -3.421875 L 8.125 -3.421875 C 8.21875 -3.421875 8.296875 -3.382812 8.359375 -3.3125 C 8.421875 -3.25 8.453125 -3.171875 8.453125 -3.078125 L 8.453125 -0.34375 C 8.453125 -0.113281 8.34375 0 8.125 0 C 7.800781 0.0195312 7.328125 0.03125 6.703125 0.03125 C 5.210938 0.03125 4.101562 -0.210938 3.375 -0.703125 C 2.65625 -1.191406 2.296875 -2.117188 2.296875 -3.484375 L 2.296875 -11.40625 C 2.296875 -11.5 2.25 -11.546875 2.15625 -11.546875 L 0.84375 -11.546875 C 0.75 -11.546875 0.671875 -11.578125 0.609375 -11.640625 C 0.546875 -11.710938 0.515625 -11.796875 0.515625 -11.890625 L 0.515625 -14.203125 C 0.515625 -14.296875 0.546875 -14.375 0.609375 -14.4375 C 0.671875 -14.507812 0.75 -14.546875 0.84375 -14.546875 L 2.15625 -14.546875 C 2.25 -14.546875 2.296875 -14.59375 2.296875 -14.6875 L 2.296875 -17.9375 C 2.296875 -18.03125 2.328125 -18.109375 2.390625 -18.171875 C 2.453125 -18.242188 2.53125 -18.28125 2.625 -18.28125 L 5.765625 -18.28125 C 5.859375 -18.28125 5.9375 -18.242188 6 -18.171875 C 6.070312 -18.109375 6.109375 -18.03125 6.109375 -17.9375 L 6.109375 -14.6875 C 6.109375 -14.59375 6.15625 -14.546875 6.25 -14.546875 L 8.4375 -14.546875 C 8.53125 -14.546875 8.609375 -14.507812 8.671875 -14.4375 C 8.734375 -14.375 8.765625 -14.296875 8.765625 -14.203125 Z M 8.765625 -11.890625 "/></g></g></g><g fill="#ffffff" fill-opacity="1"><g transform="translate(72.872927, 28.476378)"><g><path d="M 7.125 0.21875 C 5.488281 0.21875 4.144531 -0.1875 3.09375 -1 C 2.050781 -1.820312 1.425781 -2.953125 1.21875 -4.390625 C 1.0625 -5.253906 0.984375 -6.222656 0.984375 -7.296875 C 0.984375 -8.390625 1.0625 -9.363281 1.21875 -10.21875 C 1.425781 -11.613281 2.050781 -12.71875 3.09375 -13.53125 C 4.144531 -14.351562 5.488281 -14.765625 7.125 -14.765625 C 8.75 -14.765625 10.078125 -14.351562 11.109375 -13.53125 C 12.140625 -12.71875 12.765625 -11.613281 12.984375 -10.21875 C 13.140625 -9.363281 13.21875 -8.390625 13.21875 -7.296875 C 13.21875 -6.242188 13.140625 -5.285156 12.984375 -4.421875 C 12.773438 -2.960938 12.15625 -1.820312 11.125 -1 C 10.101562 -0.1875 8.769531 0.21875 7.125 0.21875 Z M 7.125 -3.203125 C 7.613281 -3.203125 8.03125 -3.359375 8.375 -3.671875 C 8.726562 -3.992188 8.960938 -4.429688 9.078125 -4.984375 C 9.171875 -5.773438 9.21875 -6.546875 9.21875 -7.296875 C 9.21875 -8.066406 9.171875 -8.832031 9.078125 -9.59375 C 8.984375 -10.132812 8.757812 -10.5625 8.40625 -10.875 C 8.0625 -11.1875 7.628906 -11.34375 7.109375 -11.34375 C 6.597656 -11.34375 6.164062 -11.1875 5.8125 -10.875 C 5.46875 -10.5625 5.25 -10.132812 5.15625 -9.59375 C 5.0625 -9.03125 5.015625 -8.265625 5.015625 -7.296875 C 5.015625 -6.359375 5.050781 -5.585938 5.125 -4.984375 C 5.238281 -4.429688 5.472656 -3.992188 5.828125 -3.671875 C 6.179688 -3.359375 6.613281 -3.203125 7.125 -3.203125 Z M 7.125 -3.203125 "/></g></g></g><g fill="#ffffff" fill-opacity="1"><g transform="translate(87.10053, 28.476378)"><g/></g></g><g fill="#ffffff" fill-opacity="1"><g transform="translate(92.757632, 28.476378)"><g><path d="M 8.609375 -19.84375 C 9.734375 -19.84375 10.734375 -19.585938 11.609375 -19.078125 C 12.492188 -18.566406 13.175781 -17.847656 13.65625 -16.921875 C 14.132812 -15.992188 14.375 -14.9375 14.375 -13.75 C 14.375 -12.582031 14.132812 -11.550781 13.65625 -10.65625 C 13.175781 -9.757812 12.492188 -9.066406 11.609375 -8.578125 C 10.734375 -8.085938 9.734375 -7.84375 8.609375 -7.84375 L 5.546875 -7.84375 C 5.453125 -7.84375 5.40625 -7.796875 5.40625 -7.703125 L 5.40625 -0.34375 C 5.40625 -0.25 5.367188 -0.164062 5.296875 -0.09375 C 5.234375 -0.03125 5.15625 0 5.0625 0 L 1.75 0 C 1.65625 0 1.578125 -0.03125 1.515625 -0.09375 C 1.453125 -0.164062 1.421875 -0.25 1.421875 -0.34375 L 1.421875 -19.5 C 1.421875 -19.59375 1.453125 -19.671875 1.515625 -19.734375 C 1.578125 -19.804688 1.65625 -19.84375 1.75 -19.84375 Z M 7.953125 -11 C 8.691406 -11 9.28125 -11.238281 9.71875 -11.71875 C 10.164062 -12.207031 10.390625 -12.859375 10.390625 -13.671875 C 10.390625 -14.492188 10.164062 -15.148438 9.71875 -15.640625 C 9.28125 -16.140625 8.691406 -16.390625 7.953125 -16.390625 L 5.546875 -16.390625 C 5.453125 -16.390625 5.40625 -16.34375 5.40625 -16.25 L 5.40625 -11.15625 C 5.40625 -11.050781 5.453125 -11 5.546875 -11 Z M 7.953125 -11 "/></g></g></g><g fill="#ffffff" fill-opacity="1"><g transform="translate(107.777228, 28.476378)"><g><path d="M 8.453125 -14.765625 C 9.835938 -14.765625 10.921875 -14.328125 11.703125 -13.453125 C 12.484375 -12.578125 12.875 -11.359375 12.875 -9.796875 L 12.875 -0.34375 C 12.875 -0.25 12.835938 -0.164062 12.765625 -0.09375 C 12.703125 -0.03125 12.625 0 12.53125 0 L 9.21875 0 C 9.125 0 9.046875 -0.03125 8.984375 -0.09375 C 8.921875 -0.164062 8.890625 -0.25 8.890625 -0.34375 L 8.890625 -9.21875 C 8.890625 -9.882812 8.726562 -10.40625 8.40625 -10.78125 C 8.082031 -11.15625 7.648438 -11.34375 7.109375 -11.34375 C 6.535156 -11.34375 6.082031 -11.148438 5.75 -10.765625 C 5.425781 -10.378906 5.265625 -9.859375 5.265625 -9.203125 L 5.265625 -0.34375 C 5.265625 -0.25 5.226562 -0.164062 5.15625 -0.09375 C 5.09375 -0.03125 5.015625 0 4.921875 0 L 1.609375 0 C 1.515625 0 1.429688 -0.03125 1.359375 -0.09375 C 1.296875 -0.164062 1.265625 -0.25 1.265625 -0.34375 L 1.265625 -19.46875 C 1.265625 -19.5625 1.296875 -19.640625 1.359375 -19.703125 C 1.429688 -19.773438 1.515625 -19.8125 1.609375 -19.8125 L 4.921875 -19.8125 C 5.015625 -19.8125 5.09375 -19.773438 5.15625 -19.703125 C 5.226562 -19.640625 5.265625 -19.5625 5.265625 -19.46875 L 5.265625 -13.40625 C 5.265625 -13.351562 5.28125 -13.320312 5.3125 -13.3125 C 5.351562 -13.300781 5.40625 -13.332031 5.46875 -13.40625 C 6.144531 -14.3125 7.140625 -14.765625 8.453125 -14.765625 Z M 8.453125 -14.765625 "/></g></g></g><g fill="#ffffff" fill-opacity="1"><g transform="translate(121.835115, 28.476378)"><g><path d="M 7.125 0.21875 C 5.488281 0.21875 4.144531 -0.1875 3.09375 -1 C 2.050781 -1.820312 1.425781 -2.953125 1.21875 -4.390625 C 1.0625 -5.253906 0.984375 -6.222656 0.984375 -7.296875 C 0.984375 -8.390625 1.0625 -9.363281 1.21875 -10.21875 C 1.425781 -11.613281 2.050781 -12.71875 3.09375 -13.53125 C 4.144531 -14.351562 5.488281 -14.765625 7.125 -14.765625 C 8.75 -14.765625 10.078125 -14.351562 11.109375 -13.53125 C 12.140625 -12.71875 12.765625 -11.613281 12.984375 -10.21875 C 13.140625 -9.363281 13.21875 -8.390625 13.21875 -7.296875 C 13.21875 -6.242188 13.140625 -5.285156 12.984375 -4.421875 C 12.773438 -2.960938 12.15625 -1.820312 11.125 -1 C 10.101562 -0.1875 8.769531 0.21875 7.125 0.21875 Z M 7.125 -3.203125 C 7.613281 -3.203125 8.03125 -3.359375 8.375 -3.671875 C 8.726562 -3.992188 8.960938 -4.429688 9.078125 -4.984375 C 9.171875 -5.773438 9.21875 -6.546875 9.21875 -7.296875 C 9.21875 -8.066406 9.171875 -8.832031 9.078125 -9.59375 C 8.984375 -10.132812 8.757812 -10.5625 8.40625 -10.875 C 8.0625 -11.1875 7.628906 -11.34375 7.109375 -11.34375 C 6.597656 -11.34375 6.164062 -11.1875 5.8125 -10.875 C 5.46875 -10.5625 5.25 -10.132812 5.15625 -9.59375 C 5.0625 -9.03125 5.015625 -8.265625 5.015625 -7.296875 C 5.015625 -6.359375 5.050781 -5.585938 5.125 -4.984375 C 5.238281 -4.429688 5.472656 -3.992188 5.828125 -3.671875 C 6.179688 -3.359375 6.613281 -3.203125 7.125 -3.203125 Z M 7.125 -3.203125 "/></g></g></g><g fill="#ffffff" fill-opacity="1"><g transform="translate(136.062718, 28.476378)"><g><path d="M 8.453125 -14.765625 C 9.835938 -14.765625 10.921875 -14.328125 11.703125 -13.453125 C 12.484375 -12.578125 12.875 -11.359375 12.875 -9.796875 L 12.875 -0.34375 C 12.875 -0.25 12.835938 -0.164062 12.765625 -0.09375 C 12.703125 -0.03125 12.625 0 12.53125 0 L 9.21875 0 C 9.125 0 9.046875 -0.03125 8.984375 -0.09375 C 8.921875 -0.164062 8.890625 -0.25 8.890625 -0.34375 L 8.890625 -9.21875 C 8.890625 -9.882812 8.726562 -10.40625 8.40625 -10.78125 C 8.082031 -11.15625 7.648438 -11.34375 7.109375 -11.34375 C 6.535156 -11.34375 6.082031 -11.148438 5.75 -10.765625 C 5.425781 -10.378906 5.265625 -9.859375 5.265625 -9.203125 L 5.265625 -0.34375 C 5.265625 -0.25 5.226562 -0.164062 5.15625 -0.09375 C 5.09375 -0.03125 5.015625 0 4.921875 0 L 1.609375 0 C 1.515625 0 1.429688 -0.03125 1.359375 -0.09375 C 1.296875 -0.164062 1.265625 -0.25 1.265625 -0.34375 L 1.265625 -14.203125 C 1.265625 -14.296875 1.296875 -14.375 1.359375 -14.4375 C 1.429688 -14.507812 1.515625 -14.546875 1.609375 -14.546875 L 4.921875 -14.546875 C 5.015625 -14.546875 5.09375 -14.507812 5.15625 -14.4375 C 5.226562 -14.375 5.265625 -14.296875 5.265625 -14.203125 L 5.265625 -13.40625 C 5.265625 -13.351562 5.28125 -13.320312 5.3125 -13.3125 C 5.351562 -13.300781 5.40625 -13.332031 5.46875 -13.40625 C 6.144531 -14.3125 7.140625 -14.765625 8.453125 -14.765625 Z M 8.453125 -14.765625 "/></g></g></g><g fill="#ffffff" fill-opacity="1"><g transform="translate(150.120605, 28.476378)"><g><path d="M 12.953125 -9.484375 C 13.015625 -8.859375 13.046875 -8.164062 13.046875 -7.40625 L 13.015625 -6.3125 C 13.015625 -6.082031 12.898438 -5.96875 12.671875 -5.96875 L 5.171875 -5.96875 C 5.078125 -5.96875 5.03125 -5.921875 5.03125 -5.828125 C 5.070312 -5.390625 5.113281 -5.066406 5.15625 -4.859375 C 5.25 -4.335938 5.476562 -3.925781 5.84375 -3.625 C 6.207031 -3.320312 6.664062 -3.171875 7.21875 -3.171875 C 8.144531 -3.191406 8.785156 -3.613281 9.140625 -4.4375 C 9.234375 -4.625 9.375 -4.703125 9.5625 -4.671875 L 12.5625 -4.078125 C 12.789062 -4.015625 12.867188 -3.875 12.796875 -3.65625 C 12.378906 -2.40625 11.691406 -1.445312 10.734375 -0.78125 C 9.785156 -0.113281 8.613281 0.21875 7.21875 0.21875 C 5.539062 0.21875 4.203125 -0.160156 3.203125 -0.921875 C 2.210938 -1.679688 1.566406 -2.78125 1.265625 -4.21875 C 1.097656 -4.988281 1.015625 -6.164062 1.015625 -7.75 C 1.015625 -8.65625 1.070312 -9.421875 1.1875 -10.046875 C 1.394531 -11.484375 2.015625 -12.628906 3.046875 -13.484375 C 4.085938 -14.335938 5.398438 -14.765625 6.984375 -14.765625 C 8.703125 -14.765625 10.097656 -14.28125 11.171875 -13.3125 C 12.253906 -12.34375 12.847656 -11.066406 12.953125 -9.484375 Z M 7.015625 -11.34375 C 6.503906 -11.34375 6.082031 -11.191406 5.75 -10.890625 C 5.425781 -10.585938 5.21875 -10.175781 5.125 -9.65625 C 5.0625 -9.3125 5.03125 -8.953125 5.03125 -8.578125 C 5.03125 -8.484375 5.078125 -8.4375 5.171875 -8.4375 L 8.859375 -8.4375 C 8.953125 -8.4375 9 -8.484375 9 -8.578125 C 9 -8.953125 8.96875 -9.3125 8.90625 -9.65625 C 8.832031 -10.15625 8.625 -10.5625 8.28125 -10.875 C 7.945312 -11.1875 7.523438 -11.34375 7.015625 -11.34375 Z M 7.015625 -11.34375 "/></g></g></g></g></g></svg>