<svg xmlns="http://www.w3.org/2000/svg" xmlns:xlink="http://www.w3.org/1999/xlink" width="1900" zoomAndPan="magnify" viewBox="0 0 1425 899.99999" height="1200" preserveAspectRatio="xMidYMid meet" version="1.0"><defs><g/><clipPath id="9ce8c134bc"><path d="M 0 0 L 1425 0 L 1425 900 L 0 900 Z M 0 0 " clip-rule="nonzero"/></clipPath><clipPath id="fba3390bf1"><rect x="0" width="1425" y="0" height="900"/></clipPath><clipPath id="42570851c3"><path d="M 712.5 654.503906 L 1039 654.503906 L 1039 721.714844 L 712.5 721.714844 Z M 712.5 654.503906 " clip-rule="nonzero"/></clipPath><clipPath id="fa0dd60429"><path d="M 746.105469 654.503906 L 1005.375 654.503906 C 1023.9375 654.503906 1038.980469 669.550781 1038.980469 688.109375 C 1038.980469 706.667969 1023.9375 721.714844 1005.375 721.714844 L 746.105469 721.714844 C 727.546875 721.714844 712.5 706.667969 712.5 688.109375 C 712.5 669.550781 727.546875 654.503906 746.105469 654.503906 Z M 746.105469 654.503906 " clip-rule="nonzero"/></clipPath><clipPath id="d4f1f7029e"><path d="M 0.5 0.503906 L 327 0.503906 L 327 67.714844 L 0.5 67.714844 Z M 0.5 0.503906 " clip-rule="nonzero"/></clipPath><clipPath id="73ce10f699"><path d="M 34.105469 0.503906 L 293.375 0.503906 C 311.9375 0.503906 326.980469 15.550781 326.980469 34.109375 C 326.980469 52.667969 311.9375 67.714844 293.375 67.714844 L 34.105469 67.714844 C 15.546875 67.714844 0.5 52.667969 0.5 34.109375 C 0.5 15.550781 15.546875 0.503906 34.105469 0.503906 Z M 34.105469 0.503906 " clip-rule="nonzero"/></clipPath><clipPath id="2fdddae020"><rect x="0" width="327" y="0" height="68"/></clipPath><clipPath id="8dfb24c26c"><path d="M 1080.363281 654.503906 L 1406.960938 654.503906 L 1406.960938 721.714844 L 1080.363281 721.714844 Z M 1080.363281 654.503906 " clip-rule="nonzero"/></clipPath><clipPath id="33011b4b5b"><path d="M 1113.96875 654.503906 L 1373.242188 654.503906 C 1391.800781 654.503906 1406.84375 669.550781 1406.84375 688.109375 C 1406.84375 706.667969 1391.800781 721.714844 1373.242188 721.714844 L 1113.96875 721.714844 C 1095.410156 721.714844 1080.363281 706.667969 1080.363281 688.109375 C 1080.363281 669.550781 1095.410156 654.503906 1113.96875 654.503906 Z M 1113.96875 654.503906 " clip-rule="nonzero"/></clipPath><clipPath id="25493052b9"><path d="M 0.363281 0.503906 L 326.878906 0.503906 L 326.878906 67.714844 L 0.363281 67.714844 Z M 0.363281 0.503906 " clip-rule="nonzero"/></clipPath><clipPath id="9f97d7c346"><path d="M 33.96875 0.503906 L 293.242188 0.503906 C 311.800781 0.503906 326.84375 15.550781 326.84375 34.109375 C 326.84375 52.667969 311.800781 67.714844 293.242188 67.714844 L 33.96875 67.714844 C 15.410156 67.714844 0.363281 52.667969 0.363281 34.109375 C 0.363281 15.550781 15.410156 0.503906 33.96875 0.503906 Z M 33.96875 0.503906 " clip-rule="nonzero"/></clipPath><clipPath id="de8d4b914c"><rect x="0" width="327" y="0" height="68"/></clipPath><clipPath id="a3c3295cc6"><path d="M 416.007812 632.542969 L 1425 632.542969 L 1425 757.378906 L 416.007812 757.378906 Z M 416.007812 632.542969 " clip-rule="nonzero"/></clipPath><clipPath id="72008991a9"><path d="M 0.0078125 0.542969 L 1009 0.542969 L 1009 125.378906 L 0.0078125 125.378906 Z M 0.0078125 0.542969 " clip-rule="nonzero"/></clipPath><linearGradient x1="1074.98999" gradientTransform="matrix(0.487647, 0, 0, 0.487647, 0.00397997, 0.542428)" y1="-0.000000000000227374" x2="1074.98999" gradientUnits="userSpaceOnUse" y2="255.999969" id="8be1889bbd"><stop stop-opacity="1" stop-color="rgb(4.309082%, 43.919373%, 3.529358%)" offset="0"/><stop stop-opacity="1" stop-color="rgb(4.66156%, 44.241333%, 3.767395%)" offset="0.00390625"/><stop stop-opacity="1" stop-color="rgb(5.014038%, 44.563293%, 4.006958%)" offset="0.0078125"/><stop stop-opacity="1" stop-color="rgb(5.366516%, 44.883728%, 4.244995%)" offset="0.0117188"/><stop stop-opacity="1" stop-color="rgb(5.718994%, 45.205688%, 4.484558%)" offset="0.015625"/><stop stop-opacity="1" stop-color="rgb(6.071472%, 45.527649%, 4.724121%)" offset="0.0195312"/><stop stop-opacity="1" stop-color="rgb(6.42395%, 45.849609%, 4.963684%)" offset="0.0234375"/><stop stop-opacity="1" stop-color="rgb(6.774902%, 46.17157%, 5.201721%)" offset="0.0273438"/><stop stop-opacity="1" stop-color="rgb(7.12738%, 46.49353%, 5.441284%)" offset="0.03125"/><stop stop-opacity="1" stop-color="rgb(7.479858%, 46.813965%, 5.679321%)" offset="0.0351562"/><stop stop-opacity="1" stop-color="rgb(7.832336%, 47.135925%, 5.918884%)" offset="0.0390625"/><stop stop-opacity="1" stop-color="rgb(8.184814%, 47.457886%, 6.156921%)" offset="0.0429688"/><stop stop-opacity="1" stop-color="rgb(8.537292%, 47.779846%, 6.396484%)" offset="0.046875"/><stop stop-opacity="1" stop-color="rgb(8.889771%, 48.101807%, 6.636047%)" offset="0.0507812"/><stop stop-opacity="1" stop-color="rgb(9.242249%, 48.423767%, 6.87561%)" offset="0.0546875"/><stop stop-opacity="1" stop-color="rgb(9.594727%, 48.744202%, 7.113647%)" offset="0.0585938"/><stop stop-opacity="1" stop-color="rgb(9.947205%, 49.066162%, 7.35321%)" offset="0.0625"/><stop stop-opacity="1" stop-color="rgb(10.299683%, 49.388123%, 7.591248%)" offset="0.0664063"/><stop stop-opacity="1" stop-color="rgb(10.652161%, 49.710083%, 7.830811%)" offset="0.0703125"/><stop stop-opacity="1" stop-color="rgb(11.003113%, 50.032043%, 8.068848%)" offset="0.0742187"/><stop stop-opacity="1" stop-color="rgb(11.355591%, 50.354004%, 8.308411%)" offset="0.078125"/><stop stop-opacity="1" stop-color="rgb(11.708069%, 50.674438%, 8.547974%)" offset="0.0820313"/><stop stop-opacity="1" stop-color="rgb(12.060547%, 50.996399%, 8.787537%)" offset="0.0859375"/><stop stop-opacity="1" stop-color="rgb(12.413025%, 51.318359%, 9.025574%)" offset="0.0898437"/><stop stop-opacity="1" stop-color="rgb(12.765503%, 51.64032%, 9.265137%)" offset="0.09375"/><stop stop-opacity="1" stop-color="rgb(13.117981%, 51.96228%, 9.503174%)" offset="0.0976563"/><stop stop-opacity="1" stop-color="rgb(13.470459%, 52.284241%, 9.742737%)" offset="0.101562"/><stop stop-opacity="1" stop-color="rgb(13.822937%, 52.604675%, 9.980774%)" offset="0.105469"/><stop stop-opacity="1" stop-color="rgb(14.175415%, 52.926636%, 10.220337%)" offset="0.109375"/><stop stop-opacity="1" stop-color="rgb(14.526367%, 53.248596%, 10.4599%)" offset="0.113281"/><stop stop-opacity="1" stop-color="rgb(14.878845%, 53.570557%, 10.699463%)" offset="0.117188"/><stop stop-opacity="1" stop-color="rgb(15.231323%, 53.892517%, 10.9375%)" offset="0.121094"/><stop stop-opacity="1" stop-color="rgb(15.583801%, 54.214478%, 11.177063%)" offset="0.125"/><stop stop-opacity="1" stop-color="rgb(15.936279%, 54.536438%, 11.4151%)" offset="0.128906"/><stop stop-opacity="1" stop-color="rgb(16.288757%, 54.858398%, 11.654663%)" offset="0.132813"/><stop stop-opacity="1" stop-color="rgb(16.641235%, 55.178833%, 11.8927%)" offset="0.136719"/><stop stop-opacity="1" stop-color="rgb(16.993713%, 55.500793%, 12.132263%)" offset="0.140625"/><stop stop-opacity="1" stop-color="rgb(17.346191%, 55.822754%, 12.371826%)" offset="0.144531"/><stop stop-opacity="1" stop-color="rgb(17.698669%, 56.144714%, 12.611389%)" offset="0.148437"/><stop stop-opacity="1" stop-color="rgb(18.051147%, 56.466675%, 12.849426%)" offset="0.152344"/><stop stop-opacity="1" stop-color="rgb(18.403625%, 56.788635%, 13.088989%)" offset="0.15625"/><stop stop-opacity="1" stop-color="rgb(18.754578%, 57.10907%, 13.327026%)" offset="0.160156"/><stop stop-opacity="1" stop-color="rgb(19.107056%, 57.43103%, 13.566589%)" offset="0.164063"/><stop stop-opacity="1" stop-color="rgb(19.459534%, 57.752991%, 13.804626%)" offset="0.167969"/><stop stop-opacity="1" stop-color="rgb(19.812012%, 58.074951%, 14.044189%)" offset="0.171875"/><stop stop-opacity="1" stop-color="rgb(20.16449%, 58.396912%, 14.282227%)" offset="0.175781"/><stop stop-opacity="1" stop-color="rgb(20.516968%, 58.718872%, 14.52179%)" offset="0.179687"/><stop stop-opacity="1" stop-color="rgb(20.869446%, 59.039307%, 14.761353%)" offset="0.183594"/><stop stop-opacity="1" stop-color="rgb(21.221924%, 59.361267%, 15.000916%)" offset="0.1875"/><stop stop-opacity="1" stop-color="rgb(21.574402%, 59.683228%, 15.238953%)" offset="0.191406"/><stop stop-opacity="1" stop-color="rgb(21.92688%, 60.005188%, 15.478516%)" offset="0.195313"/><stop stop-opacity="1" stop-color="rgb(22.279358%, 60.327148%, 15.716553%)" offset="0.199219"/><stop stop-opacity="1" stop-color="rgb(22.631836%, 60.649109%, 15.956116%)" offset="0.203125"/><stop stop-opacity="1" stop-color="rgb(22.982788%, 60.969543%, 16.194153%)" offset="0.207031"/><stop stop-opacity="1" stop-color="rgb(23.335266%, 61.291504%, 16.433716%)" offset="0.210937"/><stop stop-opacity="1" stop-color="rgb(23.687744%, 61.613464%, 16.673279%)" offset="0.214844"/><stop stop-opacity="1" stop-color="rgb(24.040222%, 61.935425%, 16.912842%)" offset="0.21875"/><stop stop-opacity="1" stop-color="rgb(24.3927%, 62.257385%, 17.150879%)" offset="0.222656"/><stop stop-opacity="1" stop-color="rgb(24.745178%, 62.579346%, 17.390442%)" offset="0.226563"/><stop stop-opacity="1" stop-color="rgb(25.097656%, 62.89978%, 17.628479%)" offset="0.230469"/><stop stop-opacity="1" stop-color="rgb(25.450134%, 63.221741%, 17.868042%)" offset="0.234375"/><stop stop-opacity="1" stop-color="rgb(25.802612%, 63.543701%, 18.106079%)" offset="0.238281"/><stop stop-opacity="1" stop-color="rgb(26.15509%, 63.865662%, 18.345642%)" offset="0.242187"/><stop stop-opacity="1" stop-color="rgb(26.506042%, 64.187622%, 18.585205%)" offset="0.246094"/><stop stop-opacity="1" stop-color="rgb(26.858521%, 64.509583%, 18.824768%)" offset="0.25"/><stop stop-opacity="1" stop-color="rgb(27.210999%, 64.830017%, 19.062805%)" offset="0.253906"/><stop stop-opacity="1" stop-color="rgb(27.563477%, 65.151978%, 19.302368%)" offset="0.257812"/><stop stop-opacity="1" stop-color="rgb(27.915955%, 65.473938%, 19.540405%)" offset="0.261719"/><stop stop-opacity="1" stop-color="rgb(28.268433%, 65.795898%, 19.779968%)" offset="0.265625"/><stop stop-opacity="1" stop-color="rgb(28.620911%, 66.117859%, 20.018005%)" offset="0.269531"/><stop stop-opacity="1" stop-color="rgb(28.973389%, 66.439819%, 20.257568%)" offset="0.273438"/><stop stop-opacity="1" stop-color="rgb(29.325867%, 66.76178%, 20.497131%)" offset="0.277344"/><stop stop-opacity="1" stop-color="rgb(29.678345%, 67.08374%, 20.736694%)" offset="0.28125"/><stop stop-opacity="1" stop-color="rgb(30.030823%, 67.404175%, 20.974731%)" offset="0.285156"/><stop stop-opacity="1" stop-color="rgb(30.383301%, 67.726135%, 21.214294%)" offset="0.289062"/><stop stop-opacity="1" stop-color="rgb(30.734253%, 68.048096%, 21.452332%)" offset="0.292969"/><stop stop-opacity="1" stop-color="rgb(31.086731%, 68.370056%, 21.691895%)" offset="0.296875"/><stop stop-opacity="1" stop-color="rgb(31.439209%, 68.692017%, 21.929932%)" offset="0.300781"/><stop stop-opacity="1" stop-color="rgb(31.791687%, 69.013977%, 22.169495%)" offset="0.304688"/><stop stop-opacity="1" stop-color="rgb(32.144165%, 69.334412%, 22.409058%)" offset="0.308594"/><stop stop-opacity="1" stop-color="rgb(32.496643%, 69.656372%, 22.648621%)" offset="0.3125"/><stop stop-opacity="1" stop-color="rgb(32.849121%, 69.978333%, 22.886658%)" offset="0.316406"/><stop stop-opacity="1" stop-color="rgb(33.201599%, 70.300293%, 23.126221%)" offset="0.320312"/><stop stop-opacity="1" stop-color="rgb(33.554077%, 70.622253%, 23.364258%)" offset="0.324219"/><stop stop-opacity="1" stop-color="rgb(33.906555%, 70.944214%, 23.603821%)" offset="0.328125"/><stop stop-opacity="1" stop-color="rgb(34.259033%, 71.264648%, 23.841858%)" offset="0.332031"/><stop stop-opacity="1" stop-color="rgb(34.611511%, 71.586609%, 24.081421%)" offset="0.335938"/><stop stop-opacity="1" stop-color="rgb(34.962463%, 71.908569%, 24.320984%)" offset="0.339844"/><stop stop-opacity="1" stop-color="rgb(35.314941%, 72.23053%, 24.560547%)" offset="0.34375"/><stop stop-opacity="1" stop-color="rgb(35.667419%, 72.55249%, 24.798584%)" offset="0.347656"/><stop stop-opacity="1" stop-color="rgb(36.019897%, 72.874451%, 25.038147%)" offset="0.351562"/><stop stop-opacity="1" stop-color="rgb(36.372375%, 73.194885%, 25.276184%)" offset="0.355469"/><stop stop-opacity="1" stop-color="rgb(36.724854%, 73.516846%, 25.515747%)" offset="0.359375"/><stop stop-opacity="1" stop-color="rgb(37.077332%, 73.838806%, 25.753784%)" offset="0.363281"/><stop stop-opacity="1" stop-color="rgb(37.42981%, 74.160767%, 25.993347%)" offset="0.367188"/><stop stop-opacity="1" stop-color="rgb(37.782288%, 74.482727%, 26.23291%)" offset="0.371094"/><stop stop-opacity="1" stop-color="rgb(38.134766%, 74.804688%, 26.472473%)" offset="0.375"/><stop stop-opacity="1" stop-color="rgb(38.485718%, 75.125122%, 26.71051%)" offset="0.378906"/><stop stop-opacity="1" stop-color="rgb(38.838196%, 75.447083%, 26.950073%)" offset="0.382812"/><stop stop-opacity="1" stop-color="rgb(39.190674%, 75.769043%, 27.18811%)" offset="0.386719"/><stop stop-opacity="1" stop-color="rgb(39.543152%, 76.091003%, 27.427673%)" offset="0.390625"/><stop stop-opacity="1" stop-color="rgb(39.89563%, 76.412964%, 27.66571%)" offset="0.394531"/><stop stop-opacity="1" stop-color="rgb(40.248108%, 76.734924%, 27.905273%)" offset="0.398438"/><stop stop-opacity="1" stop-color="rgb(40.600586%, 77.055359%, 28.143311%)" offset="0.402344"/><stop stop-opacity="1" stop-color="rgb(40.953064%, 77.377319%, 28.382874%)" offset="0.40625"/><stop stop-opacity="1" stop-color="rgb(41.305542%, 77.69928%, 28.622437%)" offset="0.410156"/><stop stop-opacity="1" stop-color="rgb(41.65802%, 78.02124%, 28.862%)" offset="0.414062"/><stop stop-opacity="1" stop-color="rgb(42.010498%, 78.343201%, 29.100037%)" offset="0.417969"/><stop stop-opacity="1" stop-color="rgb(42.362976%, 78.665161%, 29.3396%)" offset="0.421875"/><stop stop-opacity="1" stop-color="rgb(42.713928%, 78.985596%, 29.577637%)" offset="0.425781"/><stop stop-opacity="1" stop-color="rgb(43.066406%, 79.307556%, 29.8172%)" offset="0.429688"/><stop stop-opacity="1" stop-color="rgb(43.418884%, 79.629517%, 30.055237%)" offset="0.433594"/><stop stop-opacity="1" stop-color="rgb(43.771362%, 79.951477%, 30.2948%)" offset="0.4375"/><stop stop-opacity="1" stop-color="rgb(44.12384%, 80.273438%, 30.534363%)" offset="0.441406"/><stop stop-opacity="1" stop-color="rgb(44.476318%, 80.595398%, 30.773926%)" offset="0.445312"/><stop stop-opacity="1" stop-color="rgb(44.828796%, 80.917358%, 31.011963%)" offset="0.449219"/><stop stop-opacity="1" stop-color="rgb(45.181274%, 81.239319%, 31.251526%)" offset="0.453125"/><stop stop-opacity="1" stop-color="rgb(45.533752%, 81.559753%, 31.489563%)" offset="0.457031"/><stop stop-opacity="1" stop-color="rgb(45.88623%, 81.881714%, 31.729126%)" offset="0.460938"/><stop stop-opacity="1" stop-color="rgb(46.238708%, 82.203674%, 31.967163%)" offset="0.464844"/><stop stop-opacity="1" stop-color="rgb(46.591187%, 82.525635%, 32.206726%)" offset="0.46875"/><stop stop-opacity="1" stop-color="rgb(46.942139%, 82.847595%, 32.446289%)" offset="0.472656"/><stop stop-opacity="1" stop-color="rgb(47.294617%, 83.169556%, 32.685852%)" offset="0.476562"/><stop stop-opacity="1" stop-color="rgb(47.647095%, 83.48999%, 32.923889%)" offset="0.480469"/><stop stop-opacity="1" stop-color="rgb(47.999573%, 83.811951%, 33.163452%)" offset="0.484375"/><stop stop-opacity="1" stop-color="rgb(48.352051%, 84.133911%, 33.401489%)" offset="0.488281"/><stop stop-opacity="1" stop-color="rgb(48.704529%, 84.455872%, 33.641052%)" offset="0.492188"/><stop stop-opacity="1" stop-color="rgb(49.057007%, 84.777832%, 33.879089%)" offset="0.496094"/><stop stop-opacity="1" stop-color="rgb(49.409485%, 85.099792%, 34.118652%)" offset="0.5"/><stop stop-opacity="1" stop-color="rgb(49.234009%, 84.893799%, 33.955383%)" offset="0.503906"/><stop stop-opacity="1" stop-color="rgb(49.060059%, 84.689331%, 33.79364%)" offset="0.507812"/><stop stop-opacity="1" stop-color="rgb(48.884583%, 84.483337%, 33.631897%)" offset="0.511719"/><stop stop-opacity="1" stop-color="rgb(48.710632%, 84.277344%, 33.470154%)" offset="0.515625"/><stop stop-opacity="1" stop-color="rgb(48.535156%, 84.07135%, 33.306885%)" offset="0.519531"/><stop stop-opacity="1" stop-color="rgb(48.361206%, 83.866882%, 33.145142%)" offset="0.523438"/><stop stop-opacity="1" stop-color="rgb(48.18573%, 83.660889%, 32.981873%)" offset="0.527344"/><stop stop-opacity="1" stop-color="rgb(48.01178%, 83.456421%, 32.820129%)" offset="0.53125"/><stop stop-opacity="1" stop-color="rgb(47.83783%, 83.250427%, 32.65686%)" offset="0.535156"/><stop stop-opacity="1" stop-color="rgb(47.663879%, 83.045959%, 32.495117%)" offset="0.539063"/><stop stop-opacity="1" stop-color="rgb(47.488403%, 82.839966%, 32.331848%)" offset="0.542969"/><stop stop-opacity="1" stop-color="rgb(47.314453%, 82.635498%, 32.170105%)" offset="0.546875"/><stop stop-opacity="1" stop-color="rgb(47.138977%, 82.429504%, 32.006836%)" offset="0.550781"/><stop stop-opacity="1" stop-color="rgb(46.965027%, 82.225037%, 31.845093%)" offset="0.554688"/><stop stop-opacity="1" stop-color="rgb(46.789551%, 82.019043%, 31.681824%)" offset="0.558594"/><stop stop-opacity="1" stop-color="rgb(46.615601%, 81.814575%, 31.520081%)" offset="0.5625"/><stop stop-opacity="1" stop-color="rgb(46.440125%, 81.608582%, 31.356812%)" offset="0.566406"/><stop stop-opacity="1" stop-color="rgb(46.266174%, 81.404114%, 31.195068%)" offset="0.570312"/><stop stop-opacity="1" stop-color="rgb(46.090698%, 81.19812%, 31.031799%)" offset="0.574219"/><stop stop-opacity="1" stop-color="rgb(45.916748%, 80.993652%, 30.870056%)" offset="0.578125"/><stop stop-opacity="1" stop-color="rgb(45.741272%, 80.787659%, 30.708313%)" offset="0.582031"/><stop stop-opacity="1" stop-color="rgb(45.567322%, 80.581665%, 30.54657%)" offset="0.585937"/><stop stop-opacity="1" stop-color="rgb(45.391846%, 80.375671%, 30.383301%)" offset="0.589844"/><stop stop-opacity="1" stop-color="rgb(45.217896%, 80.171204%, 30.221558%)" offset="0.59375"/><stop stop-opacity="1" stop-color="rgb(45.043945%, 79.96521%, 30.058289%)" offset="0.597656"/><stop stop-opacity="1" stop-color="rgb(44.869995%, 79.760742%, 29.896545%)" offset="0.601562"/><stop stop-opacity="1" stop-color="rgb(44.694519%, 79.554749%, 29.733276%)" offset="0.605469"/><stop stop-opacity="1" stop-color="rgb(44.520569%, 79.350281%, 29.571533%)" offset="0.609375"/><stop stop-opacity="1" stop-color="rgb(44.345093%, 79.144287%, 29.408264%)" offset="0.613281"/><stop stop-opacity="1" stop-color="rgb(44.171143%, 78.939819%, 29.246521%)" offset="0.617188"/><stop stop-opacity="1" stop-color="rgb(43.995667%, 78.733826%, 29.083252%)" offset="0.621094"/><stop stop-opacity="1" stop-color="rgb(43.821716%, 78.529358%, 28.921509%)" offset="0.625"/><stop stop-opacity="1" stop-color="rgb(43.64624%, 78.323364%, 28.75824%)" offset="0.628906"/><stop stop-opacity="1" stop-color="rgb(43.47229%, 78.118896%, 28.596497%)" offset="0.632812"/><stop stop-opacity="1" stop-color="rgb(43.296814%, 77.912903%, 28.433228%)" offset="0.636719"/><stop stop-opacity="1" stop-color="rgb(43.122864%, 77.708435%, 28.271484%)" offset="0.640625"/><stop stop-opacity="1" stop-color="rgb(42.947388%, 77.502441%, 28.108215%)" offset="0.644531"/><stop stop-opacity="1" stop-color="rgb(42.773438%, 77.297974%, 27.946472%)" offset="0.648438"/><stop stop-opacity="1" stop-color="rgb(42.599487%, 77.09198%, 27.784729%)" offset="0.652344"/><stop stop-opacity="1" stop-color="rgb(42.425537%, 76.885986%, 27.622986%)" offset="0.65625"/><stop stop-opacity="1" stop-color="rgb(42.250061%, 76.679993%, 27.459717%)" offset="0.660156"/><stop stop-opacity="1" stop-color="rgb(42.076111%, 76.475525%, 27.297974%)" offset="0.664063"/><stop stop-opacity="1" stop-color="rgb(41.900635%, 76.269531%, 27.134705%)" offset="0.667969"/><stop stop-opacity="1" stop-color="rgb(41.726685%, 76.065063%, 26.972961%)" offset="0.671875"/><stop stop-opacity="1" stop-color="rgb(41.551208%, 75.85907%, 26.809692%)" offset="0.675781"/><stop stop-opacity="1" stop-color="rgb(41.377258%, 75.654602%, 26.647949%)" offset="0.679688"/><stop stop-opacity="1" stop-color="rgb(41.201782%, 75.448608%, 26.48468%)" offset="0.683594"/><stop stop-opacity="1" stop-color="rgb(41.027832%, 75.244141%, 26.322937%)" offset="0.6875"/><stop stop-opacity="1" stop-color="rgb(40.852356%, 75.038147%, 26.159668%)" offset="0.691406"/><stop stop-opacity="1" stop-color="rgb(40.678406%, 74.833679%, 25.997925%)" offset="0.695312"/><stop stop-opacity="1" stop-color="rgb(40.50293%, 74.627686%, 25.834656%)" offset="0.699219"/><stop stop-opacity="1" stop-color="rgb(40.328979%, 74.423218%, 25.672913%)" offset="0.703125"/><stop stop-opacity="1" stop-color="rgb(40.155029%, 74.217224%, 25.509644%)" offset="0.707031"/><stop stop-opacity="1" stop-color="rgb(39.981079%, 74.012756%, 25.3479%)" offset="0.710937"/><stop stop-opacity="1" stop-color="rgb(39.805603%, 73.806763%, 25.184631%)" offset="0.714844"/><stop stop-opacity="1" stop-color="rgb(39.631653%, 73.602295%, 25.022888%)" offset="0.71875"/><stop stop-opacity="1" stop-color="rgb(39.456177%, 73.396301%, 24.861145%)" offset="0.722656"/><stop stop-opacity="1" stop-color="rgb(39.282227%, 73.191833%, 24.699402%)" offset="0.726562"/><stop stop-opacity="1" stop-color="rgb(39.10675%, 72.98584%, 24.536133%)" offset="0.730469"/><stop stop-opacity="1" stop-color="rgb(38.9328%, 72.779846%, 24.37439%)" offset="0.734375"/><stop stop-opacity="1" stop-color="rgb(38.757324%, 72.573853%, 24.211121%)" offset="0.738281"/><stop stop-opacity="1" stop-color="rgb(38.583374%, 72.369385%, 24.049377%)" offset="0.742188"/><stop stop-opacity="1" stop-color="rgb(38.407898%, 72.163391%, 23.886108%)" offset="0.746094"/><stop stop-opacity="1" stop-color="rgb(38.233948%, 71.958923%, 23.724365%)" offset="0.75"/><stop stop-opacity="1" stop-color="rgb(38.058472%, 71.75293%, 23.561096%)" offset="0.753906"/><stop stop-opacity="1" stop-color="rgb(37.884521%, 71.548462%, 23.399353%)" offset="0.757812"/><stop stop-opacity="1" stop-color="rgb(37.709045%, 71.342468%, 23.236084%)" offset="0.761719"/><stop stop-opacity="1" stop-color="rgb(37.535095%, 71.138%, 23.074341%)" offset="0.765625"/><stop stop-opacity="1" stop-color="rgb(37.361145%, 70.932007%, 22.911072%)" offset="0.769531"/><stop stop-opacity="1" stop-color="rgb(37.187195%, 70.727539%, 22.749329%)" offset="0.773438"/><stop stop-opacity="1" stop-color="rgb(37.011719%, 70.521545%, 22.58606%)" offset="0.777344"/><stop stop-opacity="1" stop-color="rgb(36.837769%, 70.317078%, 22.424316%)" offset="0.78125"/><stop stop-opacity="1" stop-color="rgb(36.662292%, 70.111084%, 22.261047%)" offset="0.785156"/><stop stop-opacity="1" stop-color="rgb(36.488342%, 69.906616%, 22.099304%)" offset="0.789063"/><stop stop-opacity="1" stop-color="rgb(36.312866%, 69.700623%, 21.937561%)" offset="0.792969"/><stop stop-opacity="1" stop-color="rgb(36.138916%, 69.496155%, 21.775818%)" offset="0.796875"/><stop stop-opacity="1" stop-color="rgb(35.96344%, 69.290161%, 21.612549%)" offset="0.800781"/><stop stop-opacity="1" stop-color="rgb(35.78949%, 69.084167%, 21.450806%)" offset="0.804688"/><stop stop-opacity="1" stop-color="rgb(35.614014%, 68.878174%, 21.287537%)" offset="0.808594"/><stop stop-opacity="1" stop-color="rgb(35.440063%, 68.673706%, 21.125793%)" offset="0.8125"/><stop stop-opacity="1" stop-color="rgb(35.264587%, 68.467712%, 20.962524%)" offset="0.816406"/><stop stop-opacity="1" stop-color="rgb(35.090637%, 68.263245%, 20.800781%)" offset="0.820312"/><stop stop-opacity="1" stop-color="rgb(34.916687%, 68.057251%, 20.637512%)" offset="0.824219"/><stop stop-opacity="1" stop-color="rgb(34.742737%, 67.852783%, 20.475769%)" offset="0.828125"/><stop stop-opacity="1" stop-color="rgb(34.567261%, 67.64679%, 20.3125%)" offset="0.832031"/><stop stop-opacity="1" stop-color="rgb(34.393311%, 67.442322%, 20.150757%)" offset="0.835937"/><stop stop-opacity="1" stop-color="rgb(34.217834%, 67.236328%, 19.987488%)" offset="0.839844"/><stop stop-opacity="1" stop-color="rgb(34.043884%, 67.03186%, 19.825745%)" offset="0.84375"/><stop stop-opacity="1" stop-color="rgb(33.868408%, 66.825867%, 19.662476%)" offset="0.847656"/><stop stop-opacity="1" stop-color="rgb(33.694458%, 66.621399%, 19.500732%)" offset="0.851562"/><stop stop-opacity="1" stop-color="rgb(33.518982%, 66.415405%, 19.337463%)" offset="0.855469"/><stop stop-opacity="1" stop-color="rgb(33.345032%, 66.210938%, 19.17572%)" offset="0.859375"/><stop stop-opacity="1" stop-color="rgb(33.169556%, 66.004944%, 19.013977%)" offset="0.863281"/><stop stop-opacity="1" stop-color="rgb(32.995605%, 65.800476%, 18.852234%)" offset="0.867188"/><stop stop-opacity="1" stop-color="rgb(32.820129%, 65.594482%, 18.688965%)" offset="0.871094"/><stop stop-opacity="1" stop-color="rgb(32.646179%, 65.388489%, 18.527222%)" offset="0.875"/><stop stop-opacity="1" stop-color="rgb(32.472229%, 65.182495%, 18.363953%)" offset="0.878906"/><stop stop-opacity="1" stop-color="rgb(32.298279%, 64.978027%, 18.202209%)" offset="0.882812"/><stop stop-opacity="1" stop-color="rgb(32.122803%, 64.772034%, 18.03894%)" offset="0.886719"/><stop stop-opacity="1" stop-color="rgb(31.948853%, 64.567566%, 17.877197%)" offset="0.890625"/><stop stop-opacity="1" stop-color="rgb(31.773376%, 64.361572%, 17.713928%)" offset="0.894531"/><stop stop-opacity="1" stop-color="rgb(31.599426%, 64.157104%, 17.552185%)" offset="0.898438"/><stop stop-opacity="1" stop-color="rgb(31.42395%, 63.951111%, 17.388916%)" offset="0.902344"/><stop stop-opacity="1" stop-color="rgb(31.25%, 63.746643%, 17.227173%)" offset="0.90625"/><stop stop-opacity="1" stop-color="rgb(31.074524%, 63.540649%, 17.063904%)" offset="0.910156"/><stop stop-opacity="1" stop-color="rgb(30.900574%, 63.336182%, 16.902161%)" offset="0.914063"/><stop stop-opacity="1" stop-color="rgb(30.725098%, 63.130188%, 16.738892%)" offset="0.917969"/><stop stop-opacity="1" stop-color="rgb(30.551147%, 62.92572%, 16.577148%)" offset="0.921875"/><stop stop-opacity="1" stop-color="rgb(30.375671%, 62.719727%, 16.413879%)" offset="0.925781"/><stop stop-opacity="1" stop-color="rgb(30.201721%, 62.515259%, 16.252136%)" offset="0.929688"/><stop stop-opacity="1" stop-color="rgb(30.026245%, 62.309265%, 16.090393%)" offset="0.933594"/><stop stop-opacity="1" stop-color="rgb(29.852295%, 62.104797%, 15.92865%)" offset="0.9375"/><stop stop-opacity="1" stop-color="rgb(29.678345%, 61.898804%, 15.765381%)" offset="0.941406"/><stop stop-opacity="1" stop-color="rgb(29.504395%, 61.694336%, 15.603638%)" offset="0.945312"/><stop stop-opacity="1" stop-color="rgb(29.328918%, 61.488342%, 15.440369%)" offset="0.949219"/><stop stop-opacity="1" stop-color="rgb(29.154968%, 61.282349%, 15.278625%)" offset="0.953125"/><stop stop-opacity="1" stop-color="rgb(28.979492%, 61.076355%, 15.115356%)" offset="0.957031"/><stop stop-opacity="1" stop-color="rgb(28.805542%, 60.871887%, 14.953613%)" offset="0.960937"/><stop stop-opacity="1" stop-color="rgb(28.630066%, 60.665894%, 14.790344%)" offset="0.964844"/><stop stop-opacity="1" stop-color="rgb(28.456116%, 60.461426%, 14.628601%)" offset="0.96875"/><stop stop-opacity="1" stop-color="rgb(28.28064%, 60.255432%, 14.465332%)" offset="0.972656"/><stop stop-opacity="1" stop-color="rgb(28.106689%, 60.050964%, 14.303589%)" offset="0.976562"/><stop stop-opacity="1" stop-color="rgb(27.931213%, 59.844971%, 14.14032%)" offset="0.980469"/><stop stop-opacity="1" stop-color="rgb(27.757263%, 59.640503%, 13.978577%)" offset="0.984375"/><stop stop-opacity="1" stop-color="rgb(27.581787%, 59.434509%, 13.815308%)" offset="0.988281"/><stop stop-opacity="1" stop-color="rgb(27.407837%, 59.230042%, 13.653564%)" offset="0.992188"/><stop stop-opacity="1" stop-color="rgb(27.233887%, 59.024048%, 13.490295%)" offset="0.996094"/><stop stop-opacity="1" stop-color="rgb(27.059937%, 58.81958%, 13.328552%)" offset="1"/></linearGradient><clipPath id="d9851da82d"><rect x="0" width="1009" y="0" height="126"/></clipPath><clipPath id="908aeab7db"><path d="M 32.621094 153.640625 L 647.25 153.640625 L 647.25 768.265625 L 32.621094 768.265625 Z M 32.621094 153.640625 " clip-rule="nonzero"/></clipPath><clipPath id="6bcba5f05f"><path d="M 339.9375 153.640625 C 170.210938 153.640625 32.621094 291.230469 32.621094 460.953125 C 32.621094 630.679688 170.210938 768.265625 339.9375 768.265625 C 509.660156 768.265625 647.25 630.679688 647.25 460.953125 C 647.25 291.230469 509.660156 153.640625 339.9375 153.640625 Z M 339.9375 153.640625 " clip-rule="nonzero"/></clipPath><clipPath id="4d2daa859a"><path d="M 0.621094 0.640625 L 615.25 0.640625 L 615.25 615.265625 L 0.621094 615.265625 Z M 0.621094 0.640625 " clip-rule="nonzero"/></clipPath><clipPath id="aa844878a9"><path d="M 307.9375 0.640625 C 138.210938 0.640625 0.621094 138.230469 0.621094 307.953125 C 0.621094 477.679688 138.210938 615.265625 307.9375 615.265625 C 477.660156 615.265625 615.25 477.679688 615.25 307.953125 C 615.25 138.230469 477.660156 0.640625 307.9375 0.640625 Z M 307.9375 0.640625 " clip-rule="nonzero"/></clipPath><clipPath id="3043a4980e"><rect x="0" width="616" y="0" height="616"/></clipPath><clipPath id="b5a53e8371"><path d="M 756 654.183594 L 1026.226562 654.183594 L 1026.226562 737 L 756 737 Z M 756 654.183594 " clip-rule="nonzero"/></clipPath><clipPath id="3c0518731c"><path d="M 795.9375 654.503906 L 986.4375 654.503906 C 996.976562 654.503906 1007.089844 658.691406 1014.542969 666.148438 C 1022 673.601562 1026.1875 683.710938 1026.1875 694.253906 L 1026.1875 697.25 C 1026.1875 707.792969 1022 717.902344 1014.542969 725.355469 C 1007.089844 732.8125 996.976562 737 986.4375 737 L 795.9375 737 C 785.394531 737 775.28125 732.8125 767.828125 725.355469 C 760.375 717.902344 756.1875 707.792969 756.1875 697.25 L 756.1875 694.253906 C 756.1875 683.710938 760.375 673.601562 767.828125 666.148438 C 775.28125 658.691406 785.394531 654.503906 795.9375 654.503906 Z M 795.9375 654.503906 " clip-rule="nonzero"/></clipPath><clipPath id="b4c5f3485c"><path d="M 0 0.480469 L 270.226562 0.480469 L 270.226562 83 L 0 83 Z M 0 0.480469 " clip-rule="nonzero"/></clipPath><clipPath id="c0d17d3508"><path d="M 39.9375 0.503906 L 230.4375 0.503906 C 240.976562 0.503906 251.089844 4.691406 258.542969 12.148438 C 266 19.601562 270.1875 29.710938 270.1875 40.253906 L 270.1875 43.25 C 270.1875 53.792969 266 63.902344 258.542969 71.355469 C 251.089844 78.8125 240.976562 83 230.4375 83 L 39.9375 83 C 29.394531 83 19.28125 78.8125 11.828125 71.355469 C 4.375 63.902344 0.1875 53.792969 0.1875 43.25 L 0.1875 40.253906 C 0.1875 29.710938 4.375 19.601562 11.828125 12.148438 C 19.28125 4.691406 29.394531 0.503906 39.9375 0.503906 Z M 39.9375 0.503906 " clip-rule="nonzero"/></clipPath><clipPath id="17b05ff773"><rect x="0" width="271" y="0" height="83"/></clipPath><clipPath id="2a3190d0db"><path d="M 1114.625 654.183594 L 1384.984375 654.183594 L 1384.984375 737 L 1114.625 737 Z M 1114.625 654.183594 " clip-rule="nonzero"/></clipPath><clipPath id="2c12374879"><path d="M 1154.695312 654.503906 L 1345.195312 654.503906 C 1355.738281 654.503906 1365.847656 658.691406 1373.304688 666.148438 C 1380.757812 673.601562 1384.945312 683.710938 1384.945312 694.253906 L 1384.945312 697.25 C 1384.945312 707.792969 1380.757812 717.902344 1373.304688 725.355469 C 1365.847656 732.8125 1355.738281 737 1345.195312 737 L 1154.695312 737 C 1144.152344 737 1134.042969 732.8125 1126.589844 725.355469 C 1119.132812 717.902344 1114.945312 707.792969 1114.945312 697.25 L 1114.945312 694.253906 C 1114.945312 683.710938 1119.132812 673.601562 1126.589844 666.148438 C 1134.042969 658.691406 1144.152344 654.503906 1154.695312 654.503906 Z M 1154.695312 654.503906 " clip-rule="nonzero"/></clipPath><clipPath id="613e81953d"><path d="M 0.800781 0.480469 L 270.984375 0.480469 L 270.984375 83 L 0.800781 83 Z M 0.800781 0.480469 " clip-rule="nonzero"/></clipPath><clipPath id="195a658af5"><path d="M 40.695312 0.503906 L 231.195312 0.503906 C 241.738281 0.503906 251.847656 4.691406 259.304688 12.148438 C 266.757812 19.601562 270.945312 29.710938 270.945312 40.253906 L 270.945312 43.25 C 270.945312 53.792969 266.757812 63.902344 259.304688 71.355469 C 251.847656 78.8125 241.738281 83 231.195312 83 L 40.695312 83 C 30.152344 83 20.042969 78.8125 12.589844 71.355469 C 5.132812 63.902344 0.945312 53.792969 0.945312 43.25 L 0.945312 40.253906 C 0.945312 29.710938 5.132812 19.601562 12.589844 12.148438 C 20.042969 4.691406 30.152344 0.503906 40.695312 0.503906 Z M 40.695312 0.503906 " clip-rule="nonzero"/></clipPath><clipPath id="b73bdb7d9d"><rect x="0" width="271" y="0" height="83"/></clipPath><clipPath id="3c037c2a89"><path d="M 1145.238281 677 L 1183 677 L 1183 715 L 1145.238281 715 Z M 1145.238281 677 " clip-rule="nonzero"/></clipPath><clipPath id="d03040bf2c"><path d="M 791 676.214844 L 811 676.214844 L 811 706 L 791 706 Z M 791 676.214844 " clip-rule="nonzero"/></clipPath><clipPath id="8eca1c2960"><path d="M 781.9375 699 L 820 699 L 820 714.464844 L 781.9375 714.464844 Z M 781.9375 699 " clip-rule="nonzero"/></clipPath><clipPath id="9623cdd6ba"><rect x="0" width="153" y="0" height="35"/></clipPath><clipPath id="37fc8b91f9"><rect x="0" width="165" y="0" height="34"/></clipPath><clipPath id="64f308d082"><path d="M 44.621094 165.640625 L 659.25 165.640625 L 659.25 780.265625 L 44.621094 780.265625 Z M 44.621094 165.640625 " clip-rule="nonzero"/></clipPath><clipPath id="e0a399e53c"><path d="M 351.9375 165.640625 C 182.210938 165.640625 44.621094 303.230469 44.621094 472.953125 C 44.621094 642.679688 182.210938 780.265625 351.9375 780.265625 C 521.660156 780.265625 659.25 642.679688 659.25 472.953125 C 659.25 303.230469 521.660156 165.640625 351.9375 165.640625 Z M 351.9375 165.640625 " clip-rule="nonzero"/></clipPath><clipPath id="f68b60d16b"><path d="M 0.621094 0.640625 L 615.25 0.640625 L 615.25 615.265625 L 0.621094 615.265625 Z M 0.621094 0.640625 " clip-rule="nonzero"/></clipPath><clipPath id="0c4302b488"><path d="M 307.9375 0.640625 C 138.210938 0.640625 0.621094 138.230469 0.621094 307.953125 C 0.621094 477.679688 138.210938 615.265625 307.9375 615.265625 C 477.660156 615.265625 615.25 477.679688 615.25 307.953125 C 615.25 138.230469 477.660156 0.640625 307.9375 0.640625 Z M 307.9375 0.640625 " clip-rule="nonzero"/></clipPath><clipPath id="d909054381"><rect x="0" width="616" y="0" height="616"/></clipPath></defs><rect x="-142.5" width="1710" fill="#ffffff" y="-89.999999" height="1079.999988" fill-opacity="1"/><rect x="-142.5" width="1710" fill="#ffffff" y="-89.999999" height="1079.999988" fill-opacity="1"/><g transform="matrix(1, 0, 0, 1, 0, 0.000000000000108392)"><g clip-path="url(#fba3390bf1)"><g clip-path="url(#9ce8c134bc)"><rect x="-313.5" width="2052" fill="#000000" height="1295.999986" y="-197.999998" fill-opacity="1"/></g></g></g><g clip-path="url(#42570851c3)"><g clip-path="url(#fa0dd60429)"><g transform="matrix(1, 0, 0, 1, 712, 654)"><g clip-path="url(#2fdddae020)"><g clip-path="url(#d4f1f7029e)"><g clip-path="url(#73ce10f699)"><path fill="#1f8f3a" d="M 0.5 0.503906 L 327.097656 0.503906 L 327.097656 67.714844 L 0.5 67.714844 Z M 0.5 0.503906 " fill-opacity="1" fill-rule="nonzero"/></g></g></g></g></g></g><g clip-path="url(#8dfb24c26c)"><g clip-path="url(#33011b4b5b)"><g transform="matrix(1, 0, 0, 1, 1080, 654)"><g clip-path="url(#de8d4b914c)"><g clip-path="url(#25493052b9)"><g clip-path="url(#9f97d7c346)"><path fill="#1f8f3a" d="M 0.363281 0.503906 L 326.960938 0.503906 L 326.960938 67.714844 L 0.363281 67.714844 Z M 0.363281 0.503906 " fill-opacity="1" fill-rule="nonzero"/></g></g></g></g></g></g><g clip-path="url(#a3c3295cc6)"><g transform="matrix(1, 0, 0, 1, 416, 632)"><g clip-path="url(#d9851da82d)"><g clip-path="url(#72008991a9)"><path fill="url(#8be1889bbd)" d="M 0.0078125 0.542969 L 0.0078125 125.378906 L 1009 125.378906 L 1009 0.542969 Z M 0.0078125 0.542969 " fill-rule="nonzero"/></g></g></g></g><g clip-path="url(#908aeab7db)"><g clip-path="url(#6bcba5f05f)"><g transform="matrix(1, 0, 0, 1, 32, 153)"><g clip-path="url(#3043a4980e)"><g clip-path="url(#4d2daa859a)"><g clip-path="url(#aa844878a9)"><path fill="#ffffff" d="M 0.621094 0.640625 L 615.25 0.640625 L 615.25 615.265625 L 0.621094 615.265625 Z M 0.621094 0.640625 " fill-opacity="1" fill-rule="nonzero"/></g></g></g></g></g></g><g clip-path="url(#b5a53e8371)"><g clip-path="url(#3c0518731c)"><g transform="matrix(1, 0, 0, 1, 756, 654)"><g clip-path="url(#17b05ff773)"><g clip-path="url(#b4c5f3485c)"><g clip-path="url(#c0d17d3508)"><path fill="#000000" d="M 0.1875 0.503906 L 270.226562 0.503906 L 270.226562 83 L 0.1875 83 Z M 0.1875 0.503906 " fill-opacity="1" fill-rule="nonzero"/></g></g></g></g></g></g><g clip-path="url(#2a3190d0db)"><g clip-path="url(#2c12374879)"><g transform="matrix(1, 0, 0, 1, 1114, 654)"><g clip-path="url(#b73bdb7d9d)"><g clip-path="url(#613e81953d)"><g clip-path="url(#195a658af5)"><path fill="#000000" d="M 0.945312 0.503906 L 270.984375 0.503906 L 270.984375 83 L 0.945312 83 Z M 0.945312 0.503906 " fill-opacity="1" fill-rule="nonzero"/></g></g></g></g></g></g><path fill="#ffffff" d="M 1181.011719 689.941406 C 1180.535156 689.941406 1180.058594 689.742188 1179.664062 689.386719 L 1170.542969 680.226562 C 1169.789062 679.472656 1169.789062 678.28125 1170.542969 677.566406 C 1171.296875 676.8125 1172.484375 676.8125 1173.199219 677.566406 L 1182.359375 686.730469 C 1183.113281 687.484375 1183.113281 688.671875 1182.359375 689.386719 C 1182.003906 689.742188 1181.527344 689.941406 1181.011719 689.941406 Z M 1181.011719 689.941406 " fill-opacity="1" fill-rule="nonzero"/><path fill="#ffffff" d="M 1171.890625 699.101562 C 1171.414062 699.101562 1170.9375 698.90625 1170.542969 698.546875 C 1169.789062 697.792969 1169.789062 696.605469 1170.542969 695.890625 L 1179.703125 686.730469 C 1180.457031 685.976562 1181.644531 685.976562 1182.359375 686.730469 C 1183.113281 687.484375 1183.113281 688.671875 1182.359375 689.386719 L 1173.199219 698.546875 C 1172.839844 698.90625 1172.367188 699.101562 1171.890625 699.101562 Z M 1171.890625 699.101562 " fill-opacity="1" fill-rule="nonzero"/><path fill="#ffffff" d="M 1155.550781 706.28125 C 1154.519531 706.28125 1153.6875 705.449219 1153.6875 704.417969 C 1153.6875 692.996094 1160.507812 686.175781 1171.890625 686.175781 L 1180.378906 686.175781 C 1181.410156 686.175781 1182.242188 687.007812 1182.242188 688.039062 C 1182.242188 689.070312 1181.410156 689.902344 1180.378906 689.902344 L 1171.890625 689.902344 C 1162.570312 689.902344 1157.453125 695.058594 1157.453125 704.378906 C 1157.414062 705.449219 1156.582031 706.28125 1155.550781 706.28125 Z M 1155.550781 706.28125 " fill-opacity="1" fill-rule="nonzero"/><g clip-path="url(#3c037c2a89)"><path fill="#ffffff" d="M 1174.863281 714.6875 L 1153.289062 714.6875 C 1148.847656 714.6875 1145.238281 711.082031 1145.238281 706.636719 L 1145.238281 685.0625 C 1145.238281 680.621094 1148.847656 677.011719 1153.289062 677.011719 C 1154.320312 677.011719 1155.152344 677.84375 1155.152344 678.875 C 1155.152344 679.90625 1154.320312 680.742188 1153.289062 680.742188 C 1150.910156 680.742188 1149.007812 682.644531 1149.007812 685.023438 L 1149.007812 706.597656 C 1149.007812 708.976562 1150.910156 710.882812 1153.289062 710.882812 L 1174.863281 710.882812 C 1177.242188 710.882812 1179.148438 708.976562 1179.148438 706.597656 C 1179.148438 705.566406 1179.980469 704.734375 1181.011719 704.734375 C 1182.042969 704.734375 1182.875 705.566406 1182.875 706.597656 C 1182.914062 711.082031 1179.304688 714.6875 1174.863281 714.6875 Z M 1174.863281 714.6875 " fill-opacity="1" fill-rule="nonzero"/></g><g clip-path="url(#d03040bf2c)"><path fill="#ffffff" d="M 802.542969 699.714844 L 802.542969 677.882812 C 802.542969 677.4375 802.371094 677.015625 802.058594 676.699219 C 801.742188 676.394531 801.316406 676.214844 800.875 676.214844 C 800.433594 676.214844 800.011719 676.394531 799.695312 676.699219 C 799.378906 677.015625 799.207031 677.4375 799.207031 677.882812 L 799.207031 699.714844 C 799.207031 699.714844 796.023438 696.53125 794.246094 694.753906 C 793.933594 694.4375 793.507812 694.265625 793.066406 694.265625 C 792.625 694.265625 792.199219 694.4375 791.886719 694.753906 C 791.234375 695.402344 791.234375 696.457031 791.886719 697.105469 L 799.757812 704.980469 C 800.054688 705.277344 800.453125 705.441406 800.875 705.441406 C 801.300781 705.441406 801.695312 705.277344 801.992188 704.980469 L 809.867188 697.105469 C 810.515625 696.457031 810.515625 695.402344 809.867188 694.753906 C 809.550781 694.4375 809.128906 694.265625 808.683594 694.265625 C 808.242188 694.265625 807.820312 694.4375 807.503906 694.753906 C 805.71875 696.53125 802.542969 699.714844 802.542969 699.714844 Z M 802.542969 699.714844 " fill-opacity="1" fill-rule="evenodd"/></g><g clip-path="url(#8eca1c2960)"><path fill="#ffffff" d="M 781.9375 710.933594 C 781.9375 711.769531 782.273438 712.574219 782.867188 713.160156 C 783.460938 713.753906 784.265625 714.089844 785.09375 714.089844 L 816.65625 714.089844 C 817.496094 714.089844 818.296875 713.753906 818.882812 713.160156 C 819.480469 712.5625 819.8125 711.761719 819.8125 710.933594 L 819.8125 701.382812 C 819.8125 700.460938 819.066406 699.714844 818.144531 699.714844 C 817.703125 699.714844 817.28125 699.894531 816.964844 700.199219 C 816.648438 700.515625 816.476562 700.941406 816.476562 701.382812 L 816.476562 709.183594 C 816.476562 710.058594 815.773438 710.761719 814.898438 710.761719 L 786.851562 710.761719 C 785.976562 710.761719 785.273438 710.058594 785.273438 709.183594 L 785.273438 701.382812 C 785.273438 700.941406 785.09375 700.515625 784.789062 700.199219 C 784.472656 699.886719 784.046875 699.714844 783.605469 699.714844 C 782.6875 699.714844 781.9375 700.460938 781.9375 701.382812 Z M 781.9375 710.933594 " fill-opacity="1" fill-rule="evenodd"/></g><g transform="matrix(1, 0, 0, 1, 836, 677)"><g clip-path="url(#9623cdd6ba)"><g fill="#ffffff" fill-opacity="1"><g transform="translate(0.207483, 28.32671)"><g><path d="M 7.4375 0.21875 C 6.132812 0.21875 4.992188 -0.0078125 4.015625 -0.46875 C 3.035156 -0.925781 2.273438 -1.570312 1.734375 -2.40625 C 1.203125 -3.25 0.9375 -4.21875 0.9375 -5.3125 L 0.9375 -6.0625 C 0.9375 -6.15625 0.96875 -6.234375 1.03125 -6.296875 C 1.09375 -6.359375 1.171875 -6.390625 1.265625 -6.390625 L 4.53125 -6.390625 C 4.625 -6.390625 4.703125 -6.359375 4.765625 -6.296875 C 4.828125 -6.234375 4.859375 -6.15625 4.859375 -6.0625 L 4.859375 -5.515625 C 4.859375 -4.859375 5.101562 -4.304688 5.59375 -3.859375 C 6.09375 -3.421875 6.753906 -3.203125 7.578125 -3.203125 C 8.316406 -3.203125 8.878906 -3.390625 9.265625 -3.765625 C 9.648438 -4.140625 9.84375 -4.617188 9.84375 -5.203125 C 9.84375 -5.640625 9.71875 -6.015625 9.46875 -6.328125 C 9.226562 -6.640625 8.882812 -6.929688 8.4375 -7.203125 C 8 -7.472656 7.316406 -7.84375 6.390625 -8.3125 C 5.265625 -8.882812 4.34375 -9.414062 3.625 -9.90625 C 2.90625 -10.394531 2.289062 -11.023438 1.78125 -11.796875 C 1.269531 -12.566406 1.015625 -13.5 1.015625 -14.59375 C 1.015625 -15.695312 1.273438 -16.65625 1.796875 -17.46875 C 2.316406 -18.289062 3.046875 -18.921875 3.984375 -19.359375 C 4.929688 -19.804688 6.007812 -20.03125 7.21875 -20.03125 C 8.476562 -20.03125 9.597656 -19.789062 10.578125 -19.3125 C 11.554688 -18.832031 12.320312 -18.15625 12.875 -17.28125 C 13.425781 -16.414062 13.703125 -15.421875 13.703125 -14.296875 L 13.703125 -13.71875 C 13.703125 -13.625 13.664062 -13.546875 13.59375 -13.484375 C 13.53125 -13.421875 13.453125 -13.390625 13.359375 -13.390625 L 10.109375 -13.390625 C 10.003906 -13.390625 9.921875 -13.421875 9.859375 -13.484375 C 9.796875 -13.546875 9.765625 -13.625 9.765625 -13.71875 L 9.765625 -14.234375 C 9.765625 -14.910156 9.523438 -15.472656 9.046875 -15.921875 C 8.578125 -16.378906 7.9375 -16.609375 7.125 -16.609375 C 6.445312 -16.609375 5.914062 -16.429688 5.53125 -16.078125 C 5.144531 -15.734375 4.953125 -15.25 4.953125 -14.625 C 4.953125 -14.195312 5.0625 -13.820312 5.28125 -13.5 C 5.507812 -13.175781 5.859375 -12.867188 6.328125 -12.578125 C 6.804688 -12.285156 7.523438 -11.90625 8.484375 -11.4375 L 9.078125 -11.09375 C 10.171875 -10.488281 11.023438 -9.960938 11.640625 -9.515625 C 12.253906 -9.078125 12.769531 -8.515625 13.1875 -7.828125 C 13.601562 -7.148438 13.8125 -6.332031 13.8125 -5.375 C 13.8125 -3.65625 13.226562 -2.289062 12.0625 -1.28125 C 10.90625 -0.28125 9.363281 0.21875 7.4375 0.21875 Z M 7.4375 0.21875 "/></g></g></g><g fill="#ffffff" fill-opacity="1"><g transform="translate(14.915945, 28.32671)"><g><path d="M 6.8125 -14.765625 C 7.945312 -14.765625 8.957031 -14.5625 9.84375 -14.15625 C 10.726562 -13.75 11.421875 -13.179688 11.921875 -12.453125 C 12.421875 -11.734375 12.671875 -10.910156 12.671875 -9.984375 L 12.671875 -0.34375 C 12.671875 -0.25 12.640625 -0.164062 12.578125 -0.09375 C 12.515625 -0.03125 12.4375 0 12.34375 0 L 9.03125 0 C 8.9375 0 8.851562 -0.03125 8.78125 -0.09375 C 8.71875 -0.164062 8.6875 -0.25 8.6875 -0.34375 L 8.6875 -1.125 C 8.6875 -1.1875 8.664062 -1.222656 8.625 -1.234375 C 8.59375 -1.253906 8.554688 -1.238281 8.515625 -1.1875 C 7.796875 -0.25 6.679688 0.21875 5.171875 0.21875 C 3.890625 0.21875 2.816406 -0.109375 1.953125 -0.765625 C 1.097656 -1.421875 0.671875 -2.523438 0.671875 -4.078125 C 0.671875 -7.148438 2.597656 -8.6875 6.453125 -8.6875 L 8.546875 -8.6875 C 8.640625 -8.6875 8.6875 -8.734375 8.6875 -8.828125 L 8.6875 -9.484375 C 8.6875 -10.046875 8.519531 -10.492188 8.1875 -10.828125 C 7.863281 -11.171875 7.414062 -11.34375 6.84375 -11.34375 C 6.394531 -11.34375 6.019531 -11.238281 5.71875 -11.03125 C 5.414062 -10.820312 5.226562 -10.539062 5.15625 -10.1875 C 5.09375 -10 4.957031 -9.90625 4.75 -9.90625 L 1.328125 -10.109375 C 1.234375 -10.109375 1.148438 -10.132812 1.078125 -10.1875 C 1.015625 -10.238281 0.992188 -10.3125 1.015625 -10.40625 C 1.128906 -11.707031 1.71875 -12.757812 2.78125 -13.5625 C 3.851562 -14.363281 5.195312 -14.765625 6.8125 -14.765625 Z M 6.359375 -2.796875 C 7.003906 -2.796875 7.550781 -2.972656 8 -3.328125 C 8.457031 -3.691406 8.6875 -4.164062 8.6875 -4.75 L 8.6875 -5.9375 C 8.6875 -6.03125 8.640625 -6.078125 8.546875 -6.078125 L 6.96875 -6.078125 C 6.257812 -6.078125 5.707031 -5.925781 5.3125 -5.625 C 4.914062 -5.320312 4.71875 -4.890625 4.71875 -4.328125 C 4.71875 -3.835938 4.867188 -3.457031 5.171875 -3.1875 C 5.472656 -2.925781 5.867188 -2.796875 6.359375 -2.796875 Z M 6.359375 -2.796875 "/></g></g></g><g fill="#ffffff" fill-opacity="1"><g transform="translate(28.690985, 28.32671)"><g><path d="M 4.921875 0 C 4.710938 0 4.582031 -0.09375 4.53125 -0.28125 L 0.5625 -14.203125 L 0.53125 -14.3125 C 0.53125 -14.488281 0.632812 -14.578125 0.84375 -14.578125 L 4.46875 -14.578125 C 4.675781 -14.578125 4.800781 -14.472656 4.84375 -14.265625 L 6.671875 -5.796875 C 6.691406 -5.722656 6.71875 -5.6875 6.75 -5.6875 C 6.789062 -5.6875 6.820312 -5.722656 6.84375 -5.796875 L 8.65625 -14.265625 C 8.695312 -14.472656 8.820312 -14.578125 9.03125 -14.578125 L 12.65625 -14.515625 C 12.894531 -14.515625 12.988281 -14.394531 12.9375 -14.15625 L 9.03125 -0.28125 C 8.96875 -0.09375 8.832031 0 8.625 0 Z M 4.921875 0 "/></g></g></g><g fill="#ffffff" fill-opacity="1"><g transform="translate(42.211452, 28.32671)"><g><path d="M 12.953125 -9.484375 C 13.015625 -8.859375 13.046875 -8.164062 13.046875 -7.40625 L 13.015625 -6.3125 C 13.015625 -6.082031 12.898438 -5.96875 12.671875 -5.96875 L 5.171875 -5.96875 C 5.078125 -5.96875 5.03125 -5.921875 5.03125 -5.828125 C 5.070312 -5.390625 5.113281 -5.066406 5.15625 -4.859375 C 5.25 -4.335938 5.476562 -3.925781 5.84375 -3.625 C 6.207031 -3.320312 6.664062 -3.171875 7.21875 -3.171875 C 8.144531 -3.191406 8.785156 -3.613281 9.140625 -4.4375 C 9.234375 -4.625 9.375 -4.703125 9.5625 -4.671875 L 12.5625 -4.078125 C 12.789062 -4.015625 12.867188 -3.875 12.796875 -3.65625 C 12.378906 -2.40625 11.691406 -1.445312 10.734375 -0.78125 C 9.785156 -0.113281 8.613281 0.21875 7.21875 0.21875 C 5.539062 0.21875 4.203125 -0.160156 3.203125 -0.921875 C 2.210938 -1.679688 1.566406 -2.78125 1.265625 -4.21875 C 1.097656 -4.988281 1.015625 -6.164062 1.015625 -7.75 C 1.015625 -8.65625 1.070312 -9.421875 1.1875 -10.046875 C 1.394531 -11.484375 2.015625 -12.628906 3.046875 -13.484375 C 4.085938 -14.335938 5.398438 -14.765625 6.984375 -14.765625 C 8.703125 -14.765625 10.097656 -14.28125 11.171875 -13.3125 C 12.253906 -12.34375 12.847656 -11.066406 12.953125 -9.484375 Z M 7.015625 -11.34375 C 6.503906 -11.34375 6.082031 -11.191406 5.75 -10.890625 C 5.425781 -10.585938 5.21875 -10.175781 5.125 -9.65625 C 5.0625 -9.3125 5.03125 -8.953125 5.03125 -8.578125 C 5.03125 -8.484375 5.078125 -8.4375 5.171875 -8.4375 L 8.859375 -8.4375 C 8.953125 -8.4375 9 -8.484375 9 -8.578125 C 9 -8.953125 8.96875 -9.3125 8.90625 -9.65625 C 8.832031 -10.15625 8.625 -10.5625 8.28125 -10.875 C 7.945312 -11.1875 7.523438 -11.34375 7.015625 -11.34375 Z M 7.015625 -11.34375 "/></g></g></g><g fill="#ffffff" fill-opacity="1"><g transform="translate(56.127921, 28.32671)"><g/></g></g><g fill="#ffffff" fill-opacity="1"><g transform="translate(61.785023, 28.32671)"><g><path d="M 7.640625 0.21875 C 6.359375 0.21875 5.222656 -0.03125 4.234375 -0.53125 C 3.253906 -1.039062 2.492188 -1.765625 1.953125 -2.703125 C 1.421875 -3.648438 1.15625 -4.75 1.15625 -6 L 1.15625 -13.859375 C 1.15625 -15.085938 1.421875 -16.164062 1.953125 -17.09375 C 2.492188 -18.03125 3.253906 -18.753906 4.234375 -19.265625 C 5.222656 -19.773438 6.359375 -20.03125 7.640625 -20.03125 C 8.921875 -20.03125 10.050781 -19.78125 11.03125 -19.28125 C 12.007812 -18.78125 12.769531 -18.078125 13.3125 -17.171875 C 13.851562 -16.265625 14.125 -15.207031 14.125 -14 L 14.125 -13.859375 C 14.125 -13.765625 14.085938 -13.679688 14.015625 -13.609375 C 13.953125 -13.535156 13.875 -13.5 13.78125 -13.5 L 10.46875 -13.359375 C 10.238281 -13.359375 10.125 -13.460938 10.125 -13.671875 L 10.125 -14.03125 C 10.125 -14.8125 9.894531 -15.4375 9.4375 -15.90625 C 8.988281 -16.375 8.390625 -16.609375 7.640625 -16.609375 C 6.890625 -16.609375 6.285156 -16.375 5.828125 -15.90625 C 5.378906 -15.4375 5.15625 -14.8125 5.15625 -14.03125 L 5.15625 -5.75 C 5.15625 -4.96875 5.378906 -4.347656 5.828125 -3.890625 C 6.285156 -3.429688 6.890625 -3.203125 7.640625 -3.203125 C 8.390625 -3.203125 8.988281 -3.429688 9.4375 -3.890625 C 9.894531 -4.347656 10.125 -4.96875 10.125 -5.75 L 10.125 -6.109375 C 10.125 -6.316406 10.238281 -6.421875 10.46875 -6.421875 L 13.78125 -6.28125 C 13.875 -6.28125 13.953125 -6.242188 14.015625 -6.171875 C 14.085938 -6.109375 14.125 -6.03125 14.125 -5.9375 L 14.125 -5.859375 C 14.125 -4.648438 13.851562 -3.582031 13.3125 -2.65625 C 12.769531 -1.726562 12.007812 -1.015625 11.03125 -0.515625 C 10.050781 -0.0234375 8.921875 0.21875 7.640625 0.21875 Z M 7.640625 0.21875 "/></g></g></g><g fill="#ffffff" fill-opacity="1"><g transform="translate(76.946047, 28.32671)"><g><path d="M 7.125 0.21875 C 5.488281 0.21875 4.144531 -0.1875 3.09375 -1 C 2.050781 -1.820312 1.425781 -2.953125 1.21875 -4.390625 C 1.0625 -5.253906 0.984375 -6.222656 0.984375 -7.296875 C 0.984375 -8.390625 1.0625 -9.363281 1.21875 -10.21875 C 1.425781 -11.613281 2.050781 -12.71875 3.09375 -13.53125 C 4.144531 -14.351562 5.488281 -14.765625 7.125 -14.765625 C 8.75 -14.765625 10.078125 -14.351562 11.109375 -13.53125 C 12.140625 -12.71875 12.765625 -11.613281 12.984375 -10.21875 C 13.140625 -9.363281 13.21875 -8.390625 13.21875 -7.296875 C 13.21875 -6.242188 13.140625 -5.285156 12.984375 -4.421875 C 12.773438 -2.960938 12.15625 -1.820312 11.125 -1 C 10.101562 -0.1875 8.769531 0.21875 7.125 0.21875 Z M 7.125 -3.203125 C 7.613281 -3.203125 8.03125 -3.359375 8.375 -3.671875 C 8.726562 -3.992188 8.960938 -4.429688 9.078125 -4.984375 C 9.171875 -5.773438 9.21875 -6.546875 9.21875 -7.296875 C 9.21875 -8.066406 9.171875 -8.832031 9.078125 -9.59375 C 8.984375 -10.132812 8.757812 -10.5625 8.40625 -10.875 C 8.0625 -11.1875 7.628906 -11.34375 7.109375 -11.34375 C 6.597656 -11.34375 6.164062 -11.1875 5.8125 -10.875 C 5.46875 -10.5625 5.25 -10.132812 5.15625 -9.59375 C 5.0625 -9.03125 5.015625 -8.265625 5.015625 -7.296875 C 5.015625 -6.359375 5.050781 -5.585938 5.125 -4.984375 C 5.238281 -4.429688 5.472656 -3.992188 5.828125 -3.671875 C 6.179688 -3.359375 6.613281 -3.203125 7.125 -3.203125 Z M 7.125 -3.203125 "/></g></g></g><g fill="#ffffff" fill-opacity="1"><g transform="translate(91.17365, 28.32671)"><g><path d="M 8.453125 -14.765625 C 9.835938 -14.765625 10.921875 -14.328125 11.703125 -13.453125 C 12.484375 -12.578125 12.875 -11.359375 12.875 -9.796875 L 12.875 -0.34375 C 12.875 -0.25 12.835938 -0.164062 12.765625 -0.09375 C 12.703125 -0.03125 12.625 0 12.53125 0 L 9.21875 0 C 9.125 0 9.046875 -0.03125 8.984375 -0.09375 C 8.921875 -0.164062 8.890625 -0.25 8.890625 -0.34375 L 8.890625 -9.21875 C 8.890625 -9.882812 8.726562 -10.40625 8.40625 -10.78125 C 8.082031 -11.15625 7.648438 -11.34375 7.109375 -11.34375 C 6.535156 -11.34375 6.082031 -11.148438 5.75 -10.765625 C 5.425781 -10.378906 5.265625 -9.859375 5.265625 -9.203125 L 5.265625 -0.34375 C 5.265625 -0.25 5.226562 -0.164062 5.15625 -0.09375 C 5.09375 -0.03125 5.015625 0 4.921875 0 L 1.609375 0 C 1.515625 0 1.429688 -0.03125 1.359375 -0.09375 C 1.296875 -0.164062 1.265625 -0.25 1.265625 -0.34375 L 1.265625 -14.203125 C 1.265625 -14.296875 1.296875 -14.375 1.359375 -14.4375 C 1.429688 -14.507812 1.515625 -14.546875 1.609375 -14.546875 L 4.921875 -14.546875 C 5.015625 -14.546875 5.09375 -14.507812 5.15625 -14.4375 C 5.226562 -14.375 5.265625 -14.296875 5.265625 -14.203125 L 5.265625 -13.40625 C 5.265625 -13.351562 5.28125 -13.320312 5.3125 -13.3125 C 5.351562 -13.300781 5.40625 -13.332031 5.46875 -13.40625 C 6.144531 -14.3125 7.140625 -14.765625 8.453125 -14.765625 Z M 8.453125 -14.765625 "/></g></g></g><g fill="#ffffff" fill-opacity="1"><g transform="translate(105.231538, 28.32671)"><g><path d="M 8.765625 -11.890625 C 8.765625 -11.796875 8.734375 -11.710938 8.671875 -11.640625 C 8.609375 -11.578125 8.53125 -11.546875 8.4375 -11.546875 L 6.25 -11.546875 C 6.15625 -11.546875 6.109375 -11.5 6.109375 -11.40625 L 6.109375 -5.03125 C 6.109375 -4.445312 6.222656 -4.023438 6.453125 -3.765625 C 6.691406 -3.515625 7.0625 -3.398438 7.5625 -3.421875 L 8.125 -3.421875 C 8.21875 -3.421875 8.296875 -3.382812 8.359375 -3.3125 C 8.421875 -3.25 8.453125 -3.171875 8.453125 -3.078125 L 8.453125 -0.34375 C 8.453125 -0.113281 8.34375 0 8.125 0 C 7.800781 0.0195312 7.328125 0.03125 6.703125 0.03125 C 5.210938 0.03125 4.101562 -0.210938 3.375 -0.703125 C 2.65625 -1.191406 2.296875 -2.117188 2.296875 -3.484375 L 2.296875 -11.40625 C 2.296875 -11.5 2.25 -11.546875 2.15625 -11.546875 L 0.84375 -11.546875 C 0.75 -11.546875 0.671875 -11.578125 0.609375 -11.640625 C 0.546875 -11.710938 0.515625 -11.796875 0.515625 -11.890625 L 0.515625 -14.203125 C 0.515625 -14.296875 0.546875 -14.375 0.609375 -14.4375 C 0.671875 -14.507812 0.75 -14.546875 0.84375 -14.546875 L 2.15625 -14.546875 C 2.25 -14.546875 2.296875 -14.59375 2.296875 -14.6875 L 2.296875 -17.9375 C 2.296875 -18.03125 2.328125 -18.109375 2.390625 -18.171875 C 2.453125 -18.242188 2.53125 -18.28125 2.625 -18.28125 L 5.765625 -18.28125 C 5.859375 -18.28125 5.9375 -18.242188 6 -18.171875 C 6.070312 -18.109375 6.109375 -18.03125 6.109375 -17.9375 L 6.109375 -14.6875 C 6.109375 -14.59375 6.15625 -14.546875 6.25 -14.546875 L 8.4375 -14.546875 C 8.53125 -14.546875 8.609375 -14.507812 8.671875 -14.4375 C 8.734375 -14.375 8.765625 -14.296875 8.765625 -14.203125 Z M 8.765625 -11.890625 "/></g></g></g><g fill="#ffffff" fill-opacity="1"><g transform="translate(114.707184, 28.32671)"><g><path d="M 6.8125 -14.765625 C 7.945312 -14.765625 8.957031 -14.5625 9.84375 -14.15625 C 10.726562 -13.75 11.421875 -13.179688 11.921875 -12.453125 C 12.421875 -11.734375 12.671875 -10.910156 12.671875 -9.984375 L 12.671875 -0.34375 C 12.671875 -0.25 12.640625 -0.164062 12.578125 -0.09375 C 12.515625 -0.03125 12.4375 0 12.34375 0 L 9.03125 0 C 8.9375 0 8.851562 -0.03125 8.78125 -0.09375 C 8.71875 -0.164062 8.6875 -0.25 8.6875 -0.34375 L 8.6875 -1.125 C 8.6875 -1.1875 8.664062 -1.222656 8.625 -1.234375 C 8.59375 -1.253906 8.554688 -1.238281 8.515625 -1.1875 C 7.796875 -0.25 6.679688 0.21875 5.171875 0.21875 C 3.890625 0.21875 2.816406 -0.109375 1.953125 -0.765625 C 1.097656 -1.421875 0.671875 -2.523438 0.671875 -4.078125 C 0.671875 -7.148438 2.597656 -8.6875 6.453125 -8.6875 L 8.546875 -8.6875 C 8.640625 -8.6875 8.6875 -8.734375 8.6875 -8.828125 L 8.6875 -9.484375 C 8.6875 -10.046875 8.519531 -10.492188 8.1875 -10.828125 C 7.863281 -11.171875 7.414062 -11.34375 6.84375 -11.34375 C 6.394531 -11.34375 6.019531 -11.238281 5.71875 -11.03125 C 5.414062 -10.820312 5.226562 -10.539062 5.15625 -10.1875 C 5.09375 -10 4.957031 -9.90625 4.75 -9.90625 L 1.328125 -10.109375 C 1.234375 -10.109375 1.148438 -10.132812 1.078125 -10.1875 C 1.015625 -10.238281 0.992188 -10.3125 1.015625 -10.40625 C 1.128906 -11.707031 1.71875 -12.757812 2.78125 -13.5625 C 3.851562 -14.363281 5.195312 -14.765625 6.8125 -14.765625 Z M 6.359375 -2.796875 C 7.003906 -2.796875 7.550781 -2.972656 8 -3.328125 C 8.457031 -3.691406 8.6875 -4.164062 8.6875 -4.75 L 8.6875 -5.9375 C 8.6875 -6.03125 8.640625 -6.078125 8.546875 -6.078125 L 6.96875 -6.078125 C 6.257812 -6.078125 5.707031 -5.925781 5.3125 -5.625 C 4.914062 -5.320312 4.71875 -4.890625 4.71875 -4.328125 C 4.71875 -3.835938 4.867188 -3.457031 5.171875 -3.1875 C 5.472656 -2.925781 5.867188 -2.796875 6.359375 -2.796875 Z M 6.359375 -2.796875 "/></g></g></g><g fill="#ffffff" fill-opacity="1"><g transform="translate(128.482224, 28.32671)"><g><path d="M 7.046875 0.21875 C 5.460938 0.21875 4.15625 -0.175781 3.125 -0.96875 C 2.09375 -1.769531 1.457031 -2.867188 1.21875 -4.265625 C 1.0625 -5.046875 0.984375 -6.066406 0.984375 -7.328125 C 0.984375 -8.273438 1.0625 -9.273438 1.21875 -10.328125 C 1.457031 -11.679688 2.097656 -12.757812 3.140625 -13.5625 C 4.179688 -14.363281 5.484375 -14.765625 7.046875 -14.765625 C 8.578125 -14.765625 9.863281 -14.378906 10.90625 -13.609375 C 11.957031 -12.835938 12.601562 -11.820312 12.84375 -10.5625 C 12.882812 -10.382812 12.921875 -10.109375 12.953125 -9.734375 C 12.953125 -9.523438 12.84375 -9.398438 12.625 -9.359375 L 9.359375 -9.0625 L 9.3125 -9.0625 C 9.144531 -9.0625 9.039062 -9.160156 9 -9.359375 C 9 -9.492188 8.988281 -9.59375 8.96875 -9.65625 C 8.925781 -9.800781 8.890625 -9.929688 8.859375 -10.046875 C 8.742188 -10.421875 8.523438 -10.726562 8.203125 -10.96875 C 7.878906 -11.21875 7.484375 -11.34375 7.015625 -11.34375 C 6.503906 -11.34375 6.085938 -11.191406 5.765625 -10.890625 C 5.453125 -10.585938 5.25 -10.175781 5.15625 -9.65625 C 5.039062 -9.03125 4.984375 -8.242188 4.984375 -7.296875 C 4.984375 -6.265625 5.046875 -5.453125 5.171875 -4.859375 C 5.265625 -4.359375 5.46875 -3.957031 5.78125 -3.65625 C 6.09375 -3.351562 6.503906 -3.203125 7.015625 -3.203125 C 7.566406 -3.203125 8.003906 -3.351562 8.328125 -3.65625 C 8.660156 -3.957031 8.851562 -4.332031 8.90625 -4.78125 L 8.96875 -5.125 C 8.988281 -5.21875 9.03125 -5.296875 9.09375 -5.359375 C 9.164062 -5.429688 9.25 -5.457031 9.34375 -5.4375 L 12.625 -5.15625 C 12.832031 -5.113281 12.9375 -4.988281 12.9375 -4.78125 C 12.9375 -4.664062 12.914062 -4.476562 12.875 -4.21875 C 12.6875 -2.84375 12.066406 -1.757812 11.015625 -0.96875 C 9.972656 -0.175781 8.648438 0.21875 7.046875 0.21875 Z M 7.046875 0.21875 "/></g></g></g><g fill="#ffffff" fill-opacity="1"><g transform="translate(142.228978, 28.32671)"><g><path d="M 8.765625 -11.890625 C 8.765625 -11.796875 8.734375 -11.710938 8.671875 -11.640625 C 8.609375 -11.578125 8.53125 -11.546875 8.4375 -11.546875 L 6.25 -11.546875 C 6.15625 -11.546875 6.109375 -11.5 6.109375 -11.40625 L 6.109375 -5.03125 C 6.109375 -4.445312 6.222656 -4.023438 6.453125 -3.765625 C 6.691406 -3.515625 7.0625 -3.398438 7.5625 -3.421875 L 8.125 -3.421875 C 8.21875 -3.421875 8.296875 -3.382812 8.359375 -3.3125 C 8.421875 -3.25 8.453125 -3.171875 8.453125 -3.078125 L 8.453125 -0.34375 C 8.453125 -0.113281 8.34375 0 8.125 0 C 7.800781 0.0195312 7.328125 0.03125 6.703125 0.03125 C 5.210938 0.03125 4.101562 -0.210938 3.375 -0.703125 C 2.65625 -1.191406 2.296875 -2.117188 2.296875 -3.484375 L 2.296875 -11.40625 C 2.296875 -11.5 2.25 -11.546875 2.15625 -11.546875 L 0.84375 -11.546875 C 0.75 -11.546875 0.671875 -11.578125 0.609375 -11.640625 C 0.546875 -11.710938 0.515625 -11.796875 0.515625 -11.890625 L 0.515625 -14.203125 C 0.515625 -14.296875 0.546875 -14.375 0.609375 -14.4375 C 0.671875 -14.507812 0.75 -14.546875 0.84375 -14.546875 L 2.15625 -14.546875 C 2.25 -14.546875 2.296875 -14.59375 2.296875 -14.6875 L 2.296875 -17.9375 C 2.296875 -18.03125 2.328125 -18.109375 2.390625 -18.171875 C 2.453125 -18.242188 2.53125 -18.28125 2.625 -18.28125 L 5.765625 -18.28125 C 5.859375 -18.28125 5.9375 -18.242188 6 -18.171875 C 6.070312 -18.109375 6.109375 -18.03125 6.109375 -17.9375 L 6.109375 -14.6875 C 6.109375 -14.59375 6.15625 -14.546875 6.25 -14.546875 L 8.4375 -14.546875 C 8.53125 -14.546875 8.609375 -14.507812 8.671875 -14.4375 C 8.734375 -14.375 8.765625 -14.296875 8.765625 -14.203125 Z M 8.765625 -11.890625 "/></g></g></g></g></g><g transform="matrix(1, 0, 0, 1, 1199, 678)"><g clip-path="url(#37fc8b91f9)"><g fill="#ffffff" fill-opacity="1"><g transform="translate(0.614281, 27.51626)"><g><path d="M 7.4375 0.21875 C 6.132812 0.21875 4.992188 -0.0078125 4.015625 -0.46875 C 3.035156 -0.925781 2.273438 -1.570312 1.734375 -2.40625 C 1.203125 -3.25 0.9375 -4.21875 0.9375 -5.3125 L 0.9375 -6.0625 C 0.9375 -6.15625 0.96875 -6.234375 1.03125 -6.296875 C 1.09375 -6.359375 1.171875 -6.390625 1.265625 -6.390625 L 4.53125 -6.390625 C 4.625 -6.390625 4.703125 -6.359375 4.765625 -6.296875 C 4.828125 -6.234375 4.859375 -6.15625 4.859375 -6.0625 L 4.859375 -5.515625 C 4.859375 -4.859375 5.101562 -4.304688 5.59375 -3.859375 C 6.09375 -3.421875 6.753906 -3.203125 7.578125 -3.203125 C 8.316406 -3.203125 8.878906 -3.390625 9.265625 -3.765625 C 9.648438 -4.140625 9.84375 -4.617188 9.84375 -5.203125 C 9.84375 -5.640625 9.71875 -6.015625 9.46875 -6.328125 C 9.226562 -6.640625 8.882812 -6.929688 8.4375 -7.203125 C 8 -7.472656 7.316406 -7.84375 6.390625 -8.3125 C 5.265625 -8.882812 4.34375 -9.414062 3.625 -9.90625 C 2.90625 -10.394531 2.289062 -11.023438 1.78125 -11.796875 C 1.269531 -12.566406 1.015625 -13.5 1.015625 -14.59375 C 1.015625 -15.695312 1.273438 -16.65625 1.796875 -17.46875 C 2.316406 -18.289062 3.046875 -18.921875 3.984375 -19.359375 C 4.929688 -19.804688 6.007812 -20.03125 7.21875 -20.03125 C 8.476562 -20.03125 9.597656 -19.789062 10.578125 -19.3125 C 11.554688 -18.832031 12.320312 -18.15625 12.875 -17.28125 C 13.425781 -16.414062 13.703125 -15.421875 13.703125 -14.296875 L 13.703125 -13.71875 C 13.703125 -13.625 13.664062 -13.546875 13.59375 -13.484375 C 13.53125 -13.421875 13.453125 -13.390625 13.359375 -13.390625 L 10.109375 -13.390625 C 10.003906 -13.390625 9.921875 -13.421875 9.859375 -13.484375 C 9.796875 -13.546875 9.765625 -13.625 9.765625 -13.71875 L 9.765625 -14.234375 C 9.765625 -14.910156 9.523438 -15.472656 9.046875 -15.921875 C 8.578125 -16.378906 7.9375 -16.609375 7.125 -16.609375 C 6.445312 -16.609375 5.914062 -16.429688 5.53125 -16.078125 C 5.144531 -15.734375 4.953125 -15.25 4.953125 -14.625 C 4.953125 -14.195312 5.0625 -13.820312 5.28125 -13.5 C 5.507812 -13.175781 5.859375 -12.867188 6.328125 -12.578125 C 6.804688 -12.285156 7.523438 -11.90625 8.484375 -11.4375 L 9.078125 -11.09375 C 10.171875 -10.488281 11.023438 -9.960938 11.640625 -9.515625 C 12.253906 -9.078125 12.769531 -8.515625 13.1875 -7.828125 C 13.601562 -7.148438 13.8125 -6.332031 13.8125 -5.375 C 13.8125 -3.65625 13.226562 -2.289062 12.0625 -1.28125 C 10.90625 -0.28125 9.363281 0.21875 7.4375 0.21875 Z M 7.4375 0.21875 "/></g></g></g><g fill="#ffffff" fill-opacity="1"><g transform="translate(15.322742, 27.51626)"><g><path d="M 12.953125 -9.484375 C 13.015625 -8.859375 13.046875 -8.164062 13.046875 -7.40625 L 13.015625 -6.3125 C 13.015625 -6.082031 12.898438 -5.96875 12.671875 -5.96875 L 5.171875 -5.96875 C 5.078125 -5.96875 5.03125 -5.921875 5.03125 -5.828125 C 5.070312 -5.390625 5.113281 -5.066406 5.15625 -4.859375 C 5.25 -4.335938 5.476562 -3.925781 5.84375 -3.625 C 6.207031 -3.320312 6.664062 -3.171875 7.21875 -3.171875 C 8.144531 -3.191406 8.785156 -3.613281 9.140625 -4.4375 C 9.234375 -4.625 9.375 -4.703125 9.5625 -4.671875 L 12.5625 -4.078125 C 12.789062 -4.015625 12.867188 -3.875 12.796875 -3.65625 C 12.378906 -2.40625 11.691406 -1.445312 10.734375 -0.78125 C 9.785156 -0.113281 8.613281 0.21875 7.21875 0.21875 C 5.539062 0.21875 4.203125 -0.160156 3.203125 -0.921875 C 2.210938 -1.679688 1.566406 -2.78125 1.265625 -4.21875 C 1.097656 -4.988281 1.015625 -6.164062 1.015625 -7.75 C 1.015625 -8.65625 1.070312 -9.421875 1.1875 -10.046875 C 1.394531 -11.484375 2.015625 -12.628906 3.046875 -13.484375 C 4.085938 -14.335938 5.398438 -14.765625 6.984375 -14.765625 C 8.703125 -14.765625 10.097656 -14.28125 11.171875 -13.3125 C 12.253906 -12.34375 12.847656 -11.066406 12.953125 -9.484375 Z M 7.015625 -11.34375 C 6.503906 -11.34375 6.082031 -11.191406 5.75 -10.890625 C 5.425781 -10.585938 5.21875 -10.175781 5.125 -9.65625 C 5.0625 -9.3125 5.03125 -8.953125 5.03125 -8.578125 C 5.03125 -8.484375 5.078125 -8.4375 5.171875 -8.4375 L 8.859375 -8.4375 C 8.953125 -8.4375 9 -8.484375 9 -8.578125 C 9 -8.953125 8.96875 -9.3125 8.90625 -9.65625 C 8.832031 -10.15625 8.625 -10.5625 8.28125 -10.875 C 7.945312 -11.1875 7.523438 -11.34375 7.015625 -11.34375 Z M 7.015625 -11.34375 "/></g></g></g><g fill="#ffffff" fill-opacity="1"><g transform="translate(29.239211, 27.51626)"><g><path d="M 8.453125 -14.765625 C 9.835938 -14.765625 10.921875 -14.328125 11.703125 -13.453125 C 12.484375 -12.578125 12.875 -11.359375 12.875 -9.796875 L 12.875 -0.34375 C 12.875 -0.25 12.835938 -0.164062 12.765625 -0.09375 C 12.703125 -0.03125 12.625 0 12.53125 0 L 9.21875 0 C 9.125 0 9.046875 -0.03125 8.984375 -0.09375 C 8.921875 -0.164062 8.890625 -0.25 8.890625 -0.34375 L 8.890625 -9.21875 C 8.890625 -9.882812 8.726562 -10.40625 8.40625 -10.78125 C 8.082031 -11.15625 7.648438 -11.34375 7.109375 -11.34375 C 6.535156 -11.34375 6.082031 -11.148438 5.75 -10.765625 C 5.425781 -10.378906 5.265625 -9.859375 5.265625 -9.203125 L 5.265625 -0.34375 C 5.265625 -0.25 5.226562 -0.164062 5.15625 -0.09375 C 5.09375 -0.03125 5.015625 0 4.921875 0 L 1.609375 0 C 1.515625 0 1.429688 -0.03125 1.359375 -0.09375 C 1.296875 -0.164062 1.265625 -0.25 1.265625 -0.34375 L 1.265625 -14.203125 C 1.265625 -14.296875 1.296875 -14.375 1.359375 -14.4375 C 1.429688 -14.507812 1.515625 -14.546875 1.609375 -14.546875 L 4.921875 -14.546875 C 5.015625 -14.546875 5.09375 -14.507812 5.15625 -14.4375 C 5.226562 -14.375 5.265625 -14.296875 5.265625 -14.203125 L 5.265625 -13.40625 C 5.265625 -13.351562 5.28125 -13.320312 5.3125 -13.3125 C 5.351562 -13.300781 5.40625 -13.332031 5.46875 -13.40625 C 6.144531 -14.3125 7.140625 -14.765625 8.453125 -14.765625 Z M 8.453125 -14.765625 "/></g></g></g><g fill="#ffffff" fill-opacity="1"><g transform="translate(43.297099, 27.51626)"><g><path d="M 9.03125 -19.46875 C 9.03125 -19.5625 9.0625 -19.640625 9.125 -19.703125 C 9.1875 -19.773438 9.265625 -19.8125 9.359375 -19.8125 L 12.671875 -19.8125 C 12.765625 -19.8125 12.84375 -19.773438 12.90625 -19.703125 C 12.976562 -19.640625 13.015625 -19.5625 13.015625 -19.46875 L 13.015625 -0.34375 C 13.015625 -0.25 12.976562 -0.164062 12.90625 -0.09375 C 12.84375 -0.03125 12.765625 0 12.671875 0 L 9.359375 0 C 9.265625 0 9.1875 -0.03125 9.125 -0.09375 C 9.0625 -0.164062 9.03125 -0.25 9.03125 -0.34375 L 9.03125 -0.96875 C 9.03125 -1.019531 9.007812 -1.054688 8.96875 -1.078125 C 8.925781 -1.097656 8.890625 -1.078125 8.859375 -1.015625 C 8.160156 -0.191406 7.160156 0.21875 5.859375 0.21875 C 3.554688 0.21875 2.078125 -1.273438 1.421875 -4.265625 C 1.222656 -5.210938 1.125 -6.257812 1.125 -7.40625 C 1.125 -8.425781 1.210938 -9.421875 1.390625 -10.390625 C 1.972656 -13.304688 3.476562 -14.765625 5.90625 -14.765625 C 6.570312 -14.765625 7.140625 -14.675781 7.609375 -14.5 C 8.078125 -14.320312 8.492188 -14.015625 8.859375 -13.578125 C 8.890625 -13.523438 8.925781 -13.503906 8.96875 -13.515625 C 9.007812 -13.535156 9.03125 -13.578125 9.03125 -13.640625 Z M 8.796875 -4.84375 C 8.929688 -5.382812 9 -6.203125 9 -7.296875 C 9 -8.296875 8.921875 -9.128906 8.765625 -9.796875 C 8.523438 -10.828125 7.972656 -11.34375 7.109375 -11.34375 C 6.671875 -11.34375 6.3125 -11.210938 6.03125 -10.953125 C 5.75 -10.691406 5.539062 -10.3125 5.40625 -9.8125 C 5.238281 -9.269531 5.15625 -8.429688 5.15625 -7.296875 C 5.15625 -6.222656 5.21875 -5.410156 5.34375 -4.859375 C 5.59375 -3.753906 6.179688 -3.203125 7.109375 -3.203125 C 7.953125 -3.203125 8.515625 -3.75 8.796875 -4.84375 Z M 8.796875 -4.84375 "/></g></g></g><g fill="#ffffff" fill-opacity="1"><g transform="translate(57.581273, 27.51626)"><g/></g></g><g fill="#ffffff" fill-opacity="1"><g transform="translate(63.238375, 27.51626)"><g><path d="M 8.765625 -11.890625 C 8.765625 -11.796875 8.734375 -11.710938 8.671875 -11.640625 C 8.609375 -11.578125 8.53125 -11.546875 8.4375 -11.546875 L 6.25 -11.546875 C 6.15625 -11.546875 6.109375 -11.5 6.109375 -11.40625 L 6.109375 -5.03125 C 6.109375 -4.445312 6.222656 -4.023438 6.453125 -3.765625 C 6.691406 -3.515625 7.0625 -3.398438 7.5625 -3.421875 L 8.125 -3.421875 C 8.21875 -3.421875 8.296875 -3.382812 8.359375 -3.3125 C 8.421875 -3.25 8.453125 -3.171875 8.453125 -3.078125 L 8.453125 -0.34375 C 8.453125 -0.113281 8.34375 0 8.125 0 C 7.800781 0.0195312 7.328125 0.03125 6.703125 0.03125 C 5.210938 0.03125 4.101562 -0.210938 3.375 -0.703125 C 2.65625 -1.191406 2.296875 -2.117188 2.296875 -3.484375 L 2.296875 -11.40625 C 2.296875 -11.5 2.25 -11.546875 2.15625 -11.546875 L 0.84375 -11.546875 C 0.75 -11.546875 0.671875 -11.578125 0.609375 -11.640625 C 0.546875 -11.710938 0.515625 -11.796875 0.515625 -11.890625 L 0.515625 -14.203125 C 0.515625 -14.296875 0.546875 -14.375 0.609375 -14.4375 C 0.671875 -14.507812 0.75 -14.546875 0.84375 -14.546875 L 2.15625 -14.546875 C 2.25 -14.546875 2.296875 -14.59375 2.296875 -14.6875 L 2.296875 -17.9375 C 2.296875 -18.03125 2.328125 -18.109375 2.390625 -18.171875 C 2.453125 -18.242188 2.53125 -18.28125 2.625 -18.28125 L 5.765625 -18.28125 C 5.859375 -18.28125 5.9375 -18.242188 6 -18.171875 C 6.070312 -18.109375 6.109375 -18.03125 6.109375 -17.9375 L 6.109375 -14.6875 C 6.109375 -14.59375 6.15625 -14.546875 6.25 -14.546875 L 8.4375 -14.546875 C 8.53125 -14.546875 8.609375 -14.507812 8.671875 -14.4375 C 8.734375 -14.375 8.765625 -14.296875 8.765625 -14.203125 Z M 8.765625 -11.890625 "/></g></g></g><g fill="#ffffff" fill-opacity="1"><g transform="translate(72.714021, 27.51626)"><g><path d="M 7.125 0.21875 C 5.488281 0.21875 4.144531 -0.1875 3.09375 -1 C 2.050781 -1.820312 1.425781 -2.953125 1.21875 -4.390625 C 1.0625 -5.253906 0.984375 -6.222656 0.984375 -7.296875 C 0.984375 -8.390625 1.0625 -9.363281 1.21875 -10.21875 C 1.425781 -11.613281 2.050781 -12.71875 3.09375 -13.53125 C 4.144531 -14.351562 5.488281 -14.765625 7.125 -14.765625 C 8.75 -14.765625 10.078125 -14.351562 11.109375 -13.53125 C 12.140625 -12.71875 12.765625 -11.613281 12.984375 -10.21875 C 13.140625 -9.363281 13.21875 -8.390625 13.21875 -7.296875 C 13.21875 -6.242188 13.140625 -5.285156 12.984375 -4.421875 C 12.773438 -2.960938 12.15625 -1.820312 11.125 -1 C 10.101562 -0.1875 8.769531 0.21875 7.125 0.21875 Z M 7.125 -3.203125 C 7.613281 -3.203125 8.03125 -3.359375 8.375 -3.671875 C 8.726562 -3.992188 8.960938 -4.429688 9.078125 -4.984375 C 9.171875 -5.773438 9.21875 -6.546875 9.21875 -7.296875 C 9.21875 -8.066406 9.171875 -8.832031 9.078125 -9.59375 C 8.984375 -10.132812 8.757812 -10.5625 8.40625 -10.875 C 8.0625 -11.1875 7.628906 -11.34375 7.109375 -11.34375 C 6.597656 -11.34375 6.164062 -11.1875 5.8125 -10.875 C 5.46875 -10.5625 5.25 -10.132812 5.15625 -9.59375 C 5.0625 -9.03125 5.015625 -8.265625 5.015625 -7.296875 C 5.015625 -6.359375 5.050781 -5.585938 5.125 -4.984375 C 5.238281 -4.429688 5.472656 -3.992188 5.828125 -3.671875 C 6.179688 -3.359375 6.613281 -3.203125 7.125 -3.203125 Z M 7.125 -3.203125 "/></g></g></g><g fill="#ffffff" fill-opacity="1"><g transform="translate(86.941624, 27.51626)"><g/></g></g><g fill="#ffffff" fill-opacity="1"><g transform="translate(92.598726, 27.51626)"><g><path d="M 8.609375 -19.84375 C 9.734375 -19.84375 10.734375 -19.585938 11.609375 -19.078125 C 12.492188 -18.566406 13.175781 -17.847656 13.65625 -16.921875 C 14.132812 -15.992188 14.375 -14.9375 14.375 -13.75 C 14.375 -12.582031 14.132812 -11.550781 13.65625 -10.65625 C 13.175781 -9.757812 12.492188 -9.066406 11.609375 -8.578125 C 10.734375 -8.085938 9.734375 -7.84375 8.609375 -7.84375 L 5.546875 -7.84375 C 5.453125 -7.84375 5.40625 -7.796875 5.40625 -7.703125 L 5.40625 -0.34375 C 5.40625 -0.25 5.367188 -0.164062 5.296875 -0.09375 C 5.234375 -0.03125 5.15625 0 5.0625 0 L 1.75 0 C 1.65625 0 1.578125 -0.03125 1.515625 -0.09375 C 1.453125 -0.164062 1.421875 -0.25 1.421875 -0.34375 L 1.421875 -19.5 C 1.421875 -19.59375 1.453125 -19.671875 1.515625 -19.734375 C 1.578125 -19.804688 1.65625 -19.84375 1.75 -19.84375 Z M 7.953125 -11 C 8.691406 -11 9.28125 -11.238281 9.71875 -11.71875 C 10.164062 -12.207031 10.390625 -12.859375 10.390625 -13.671875 C 10.390625 -14.492188 10.164062 -15.148438 9.71875 -15.640625 C 9.28125 -16.140625 8.691406 -16.390625 7.953125 -16.390625 L 5.546875 -16.390625 C 5.453125 -16.390625 5.40625 -16.34375 5.40625 -16.25 L 5.40625 -11.15625 C 5.40625 -11.050781 5.453125 -11 5.546875 -11 Z M 7.953125 -11 "/></g></g></g><g fill="#ffffff" fill-opacity="1"><g transform="translate(107.618322, 27.51626)"><g><path d="M 8.453125 -14.765625 C 9.835938 -14.765625 10.921875 -14.328125 11.703125 -13.453125 C 12.484375 -12.578125 12.875 -11.359375 12.875 -9.796875 L 12.875 -0.34375 C 12.875 -0.25 12.835938 -0.164062 12.765625 -0.09375 C 12.703125 -0.03125 12.625 0 12.53125 0 L 9.21875 0 C 9.125 0 9.046875 -0.03125 8.984375 -0.09375 C 8.921875 -0.164062 8.890625 -0.25 8.890625 -0.34375 L 8.890625 -9.21875 C 8.890625 -9.882812 8.726562 -10.40625 8.40625 -10.78125 C 8.082031 -11.15625 7.648438 -11.34375 7.109375 -11.34375 C 6.535156 -11.34375 6.082031 -11.148438 5.75 -10.765625 C 5.425781 -10.378906 5.265625 -9.859375 5.265625 -9.203125 L 5.265625 -0.34375 C 5.265625 -0.25 5.226562 -0.164062 5.15625 -0.09375 C 5.09375 -0.03125 5.015625 0 4.921875 0 L 1.609375 0 C 1.515625 0 1.429688 -0.03125 1.359375 -0.09375 C 1.296875 -0.164062 1.265625 -0.25 1.265625 -0.34375 L 1.265625 -19.46875 C 1.265625 -19.5625 1.296875 -19.640625 1.359375 -19.703125 C 1.429688 -19.773438 1.515625 -19.8125 1.609375 -19.8125 L 4.921875 -19.8125 C 5.015625 -19.8125 5.09375 -19.773438 5.15625 -19.703125 C 5.226562 -19.640625 5.265625 -19.5625 5.265625 -19.46875 L 5.265625 -13.40625 C 5.265625 -13.351562 5.28125 -13.320312 5.3125 -13.3125 C 5.351562 -13.300781 5.40625 -13.332031 5.46875 -13.40625 C 6.144531 -14.3125 7.140625 -14.765625 8.453125 -14.765625 Z M 8.453125 -14.765625 "/></g></g></g><g fill="#ffffff" fill-opacity="1"><g transform="translate(121.676209, 27.51626)"><g><path d="M 7.125 0.21875 C 5.488281 0.21875 4.144531 -0.1875 3.09375 -1 C 2.050781 -1.820312 1.425781 -2.953125 1.21875 -4.390625 C 1.0625 -5.253906 0.984375 -6.222656 0.984375 -7.296875 C 0.984375 -8.390625 1.0625 -9.363281 1.21875 -10.21875 C 1.425781 -11.613281 2.050781 -12.71875 3.09375 -13.53125 C 4.144531 -14.351562 5.488281 -14.765625 7.125 -14.765625 C 8.75 -14.765625 10.078125 -14.351562 11.109375 -13.53125 C 12.140625 -12.71875 12.765625 -11.613281 12.984375 -10.21875 C 13.140625 -9.363281 13.21875 -8.390625 13.21875 -7.296875 C 13.21875 -6.242188 13.140625 -5.285156 12.984375 -4.421875 C 12.773438 -2.960938 12.15625 -1.820312 11.125 -1 C 10.101562 -0.1875 8.769531 0.21875 7.125 0.21875 Z M 7.125 -3.203125 C 7.613281 -3.203125 8.03125 -3.359375 8.375 -3.671875 C 8.726562 -3.992188 8.960938 -4.429688 9.078125 -4.984375 C 9.171875 -5.773438 9.21875 -6.546875 9.21875 -7.296875 C 9.21875 -8.066406 9.171875 -8.832031 9.078125 -9.59375 C 8.984375 -10.132812 8.757812 -10.5625 8.40625 -10.875 C 8.0625 -11.1875 7.628906 -11.34375 7.109375 -11.34375 C 6.597656 -11.34375 6.164062 -11.1875 5.8125 -10.875 C 5.46875 -10.5625 5.25 -10.132812 5.15625 -9.59375 C 5.0625 -9.03125 5.015625 -8.265625 5.015625 -7.296875 C 5.015625 -6.359375 5.050781 -5.585938 5.125 -4.984375 C 5.238281 -4.429688 5.472656 -3.992188 5.828125 -3.671875 C 6.179688 -3.359375 6.613281 -3.203125 7.125 -3.203125 Z M 7.125 -3.203125 "/></g></g></g><g fill="#ffffff" fill-opacity="1"><g transform="translate(135.903812, 27.51626)"><g><path d="M 8.453125 -14.765625 C 9.835938 -14.765625 10.921875 -14.328125 11.703125 -13.453125 C 12.484375 -12.578125 12.875 -11.359375 12.875 -9.796875 L 12.875 -0.34375 C 12.875 -0.25 12.835938 -0.164062 12.765625 -0.09375 C 12.703125 -0.03125 12.625 0 12.53125 0 L 9.21875 0 C 9.125 0 9.046875 -0.03125 8.984375 -0.09375 C 8.921875 -0.164062 8.890625 -0.25 8.890625 -0.34375 L 8.890625 -9.21875 C 8.890625 -9.882812 8.726562 -10.40625 8.40625 -10.78125 C 8.082031 -11.15625 7.648438 -11.34375 7.109375 -11.34375 C 6.535156 -11.34375 6.082031 -11.148438 5.75 -10.765625 C 5.425781 -10.378906 5.265625 -9.859375 5.265625 -9.203125 L 5.265625 -0.34375 C 5.265625 -0.25 5.226562 -0.164062 5.15625 -0.09375 C 5.09375 -0.03125 5.015625 0 4.921875 0 L 1.609375 0 C 1.515625 0 1.429688 -0.03125 1.359375 -0.09375 C 1.296875 -0.164062 1.265625 -0.25 1.265625 -0.34375 L 1.265625 -14.203125 C 1.265625 -14.296875 1.296875 -14.375 1.359375 -14.4375 C 1.429688 -14.507812 1.515625 -14.546875 1.609375 -14.546875 L 4.921875 -14.546875 C 5.015625 -14.546875 5.09375 -14.507812 5.15625 -14.4375 C 5.226562 -14.375 5.265625 -14.296875 5.265625 -14.203125 L 5.265625 -13.40625 C 5.265625 -13.351562 5.28125 -13.320312 5.3125 -13.3125 C 5.351562 -13.300781 5.40625 -13.332031 5.46875 -13.40625 C 6.144531 -14.3125 7.140625 -14.765625 8.453125 -14.765625 Z M 8.453125 -14.765625 "/></g></g></g><g fill="#ffffff" fill-opacity="1"><g transform="translate(149.9617, 27.51626)"><g><path d="M 12.953125 -9.484375 C 13.015625 -8.859375 13.046875 -8.164062 13.046875 -7.40625 L 13.015625 -6.3125 C 13.015625 -6.082031 12.898438 -5.96875 12.671875 -5.96875 L 5.171875 -5.96875 C 5.078125 -5.96875 5.03125 -5.921875 5.03125 -5.828125 C 5.070312 -5.390625 5.113281 -5.066406 5.15625 -4.859375 C 5.25 -4.335938 5.476562 -3.925781 5.84375 -3.625 C 6.207031 -3.320312 6.664062 -3.171875 7.21875 -3.171875 C 8.144531 -3.191406 8.785156 -3.613281 9.140625 -4.4375 C 9.234375 -4.625 9.375 -4.703125 9.5625 -4.671875 L 12.5625 -4.078125 C 12.789062 -4.015625 12.867188 -3.875 12.796875 -3.65625 C 12.378906 -2.40625 11.691406 -1.445312 10.734375 -0.78125 C 9.785156 -0.113281 8.613281 0.21875 7.21875 0.21875 C 5.539062 0.21875 4.203125 -0.160156 3.203125 -0.921875 C 2.210938 -1.679688 1.566406 -2.78125 1.265625 -4.21875 C 1.097656 -4.988281 1.015625 -6.164062 1.015625 -7.75 C 1.015625 -8.65625 1.070312 -9.421875 1.1875 -10.046875 C 1.394531 -11.484375 2.015625 -12.628906 3.046875 -13.484375 C 4.085938 -14.335938 5.398438 -14.765625 6.984375 -14.765625 C 8.703125 -14.765625 10.097656 -14.28125 11.171875 -13.3125 C 12.253906 -12.34375 12.847656 -11.066406 12.953125 -9.484375 Z M 7.015625 -11.34375 C 6.503906 -11.34375 6.082031 -11.191406 5.75 -10.890625 C 5.425781 -10.585938 5.21875 -10.175781 5.125 -9.65625 C 5.0625 -9.3125 5.03125 -8.953125 5.03125 -8.578125 C 5.03125 -8.484375 5.078125 -8.4375 5.171875 -8.4375 L 8.859375 -8.4375 C 8.953125 -8.4375 9 -8.484375 9 -8.578125 C 9 -8.953125 8.96875 -9.3125 8.90625 -9.65625 C 8.832031 -10.15625 8.625 -10.5625 8.28125 -10.875 C 7.945312 -11.1875 7.523438 -11.34375 7.015625 -11.34375 Z M 7.015625 -11.34375 "/></g></g></g></g></g><g clip-path="url(#64f308d082)"><g clip-path="url(#e0a399e53c)"><g transform="matrix(1, 0, 0, 1, 44, 165)"><g clip-path="url(#d909054381)"><g clip-path="url(#f68b60d16b)"><g clip-path="url(#0c4302b488)"><path fill="#ffffff" d="M 0.621094 0.640625 L 615.25 0.640625 L 615.25 615.265625 L 0.621094 615.265625 Z M 0.621094 0.640625 " fill-opacity="1" fill-rule="nonzero"/></g></g></g></g></g></g></svg>
