<svg xmlns="http://www.w3.org/2000/svg" xmlns:xlink="http://www.w3.org/1999/xlink" width="390" zoomAndPan="magnify" viewBox="0 0 292.5 632.999981" height="844" preserveAspectRatio="xMidYMid meet" version="1.0"><defs><g/><clipPath id="8b959242c7"><path d="M 0 0.539062 L 292 0.539062 L 292 632.457031 L 0 632.457031 Z M 0 0.539062 " clip-rule="nonzero"/></clipPath><clipPath id="ceeac8f08a"><path d="M 0 0.539062 L 292 0.539062 L 292 282.929688 L 0 282.929688 Z M 0 0.539062 " clip-rule="nonzero"/></clipPath><clipPath id="ac6e289450"><path d="M -78.851562 0.539062 L 328.738281 0.539062 C 336.183594 0.539062 342.214844 6.574219 342.214844 14.015625 L 342.214844 269.453125 C 342.214844 276.898438 336.183594 282.929688 328.738281 282.929688 L -78.851562 282.929688 C -86.296875 282.929688 -92.328125 276.898438 -92.328125 269.453125 L -92.328125 14.015625 C -92.328125 6.574219 -86.296875 0.539062 -78.851562 0.539062 Z M -78.851562 0.539062 " clip-rule="nonzero"/></clipPath><clipPath id="2afb0a2e24"><path d="M 0 0.539062 L 292 0.539062 L 292 282.929688 L 0 282.929688 Z M 0 0.539062 " clip-rule="nonzero"/></clipPath><clipPath id="0cada9c1b4"><path d="M -78.851562 0.539062 L 328.738281 0.539062 C 336.183594 0.539062 342.214844 6.574219 342.214844 14.015625 L 342.214844 269.453125 C 342.214844 276.898438 336.183594 282.929688 328.738281 282.929688 L -78.851562 282.929688 C -86.296875 282.929688 -92.328125 276.898438 -92.328125 269.453125 L -92.328125 14.015625 C -92.328125 6.574219 -86.296875 0.539062 -78.851562 0.539062 Z M -78.851562 0.539062 " clip-rule="nonzero"/></clipPath><clipPath id="f30352d02f"><rect x="0" width="292" y="0" height="283"/></clipPath><clipPath id="de8122da02"><path d="M 121.734375 568.183594 L 139.707031 568.183594 L 139.707031 583.160156 L 121.734375 583.160156 Z M 121.734375 568.183594 " clip-rule="nonzero"/></clipPath><clipPath id="5f2dee47f5"><path d="M 57.6875 270.101562 L 292 270.101562 L 292 320.300781 L 57.6875 320.300781 Z M 57.6875 270.101562 " clip-rule="nonzero"/></clipPath><clipPath id="de146aecce"><path d="M 0.6875 0.101562 L 235 0.101562 L 235 50.300781 L 0.6875 50.300781 Z M 0.6875 0.101562 " clip-rule="nonzero"/></clipPath><clipPath id="45d3b62107"><rect x="0" width="235" y="0" height="51"/></clipPath></defs><g clip-path="url(#8b959242c7)"><path fill="#ffffff" d="M 0 0.539062 L 292 0.539062 L 292 632.460938 L 0 632.460938 Z M 0 0.539062 " fill-opacity="1" fill-rule="nonzero"/><path fill="#ffffff" d="M 0 0.539062 L 292 0.539062 L 292 632.460938 L 0 632.460938 Z M 0 0.539062 " fill-opacity="1" fill-rule="nonzero"/></g><g clip-path="url(#ceeac8f08a)"><g clip-path="url(#ac6e289450)"><g transform="matrix(1, 0, 0, 1, 0, -0.000000000000015987)"><g clip-path="url(#f30352d02f)"><g clip-path="url(#2afb0a2e24)"><g clip-path="url(#0cada9c1b4)"><path fill="#000000" d="M -92.328125 0.539062 L 342.289062 0.539062 L 342.289062 282.929688 L -92.328125 282.929688 Z M -92.328125 0.539062 " fill-opacity="1" fill-rule="nonzero"/></g></g></g></g></g></g><g clip-path="url(#de8122da02)"><path fill="#ffffff" d="M 139.355469 568.589844 C 139.355469 568.585938 139.355469 568.585938 139.355469 568.585938 C 139.359375 568.578125 139.363281 568.570312 139.367188 568.5625 C 139.367188 568.558594 139.371094 568.554688 139.371094 568.554688 C 139.375 568.542969 139.378906 568.535156 139.378906 568.527344 C 139.378906 568.523438 139.378906 568.523438 139.382812 568.523438 C 139.382812 568.511719 139.386719 568.503906 139.386719 568.492188 C 139.386719 568.488281 139.386719 568.488281 139.386719 568.484375 C 139.390625 568.476562 139.390625 568.46875 139.390625 568.460938 C 139.390625 568.457031 139.390625 568.453125 139.390625 568.453125 C 139.390625 568.429688 139.386719 568.410156 139.382812 568.386719 C 139.382812 568.386719 139.378906 568.382812 139.378906 568.378906 C 139.378906 568.371094 139.375 568.363281 139.371094 568.355469 C 139.371094 568.355469 139.371094 568.351562 139.367188 568.347656 C 139.363281 568.339844 139.359375 568.332031 139.355469 568.324219 C 139.355469 568.320312 139.355469 568.320312 139.355469 568.320312 C 139.355469 568.320312 139.355469 568.320312 139.355469 568.316406 C 139.347656 568.308594 139.34375 568.300781 139.335938 568.292969 C 139.335938 568.289062 139.332031 568.289062 139.332031 568.285156 C 139.324219 568.277344 139.320312 568.273438 139.3125 568.265625 C 139.3125 568.265625 139.308594 568.261719 139.308594 568.261719 C 139.300781 568.253906 139.292969 568.246094 139.285156 568.242188 C 139.285156 568.242188 139.285156 568.242188 139.285156 568.238281 C 139.277344 568.234375 139.265625 568.226562 139.257812 568.222656 C 139.253906 568.21875 139.253906 568.21875 139.25 568.21875 C 139.246094 568.214844 139.238281 568.210938 139.230469 568.207031 C 139.226562 568.207031 139.222656 568.203125 139.222656 568.203125 C 139.210938 568.199219 139.203125 568.199219 139.195312 568.195312 C 139.195312 568.195312 139.191406 568.195312 139.191406 568.195312 C 139.179688 568.191406 139.171875 568.1875 139.160156 568.1875 C 139.15625 568.1875 139.15625 568.1875 139.152344 568.1875 C 139.144531 568.1875 139.132812 568.183594 139.125 568.183594 C 139.125 568.183594 139.121094 568.183594 139.121094 568.183594 L 122.027344 568.183594 C 121.914062 568.183594 121.8125 568.257812 121.773438 568.363281 C 121.734375 568.472656 121.769531 568.589844 121.855469 568.664062 L 128.933594 574.386719 L 130.242188 583.269531 C 130.257812 583.382812 130.34375 583.472656 130.457031 583.492188 C 130.472656 583.496094 130.492188 583.5 130.507812 583.5 C 130.601562 583.5 130.691406 583.449219 130.738281 583.363281 L 139.351562 568.59375 Z M 138.125 568.722656 L 129.210938 573.917969 L 122.785156 568.722656 Z M 130.660156 582.429688 L 129.476562 574.382812 L 138.375 569.199219 Z M 130.660156 582.429688 " fill-opacity="1" fill-rule="nonzero"/></g><g fill="#ffffff" fill-opacity="1"><g transform="translate(144.367406, 579.714219)"><g><path d="M 3.796875 0.125 C 3.203125 0.125 2.671875 0.0507812 2.203125 -0.09375 C 1.742188 -0.238281 1.359375 -0.429688 1.046875 -0.671875 C 0.742188 -0.910156 0.507812 -1.171875 0.34375 -1.453125 L 1.28125 -2.59375 L 1.421875 -2.59375 C 1.679688 -2.207031 2.007812 -1.898438 2.40625 -1.671875 C 2.800781 -1.453125 3.265625 -1.34375 3.796875 -1.34375 C 4.242188 -1.34375 4.582031 -1.4375 4.8125 -1.625 C 5.039062 -1.8125 5.15625 -2.078125 5.15625 -2.421875 C 5.15625 -2.617188 5.117188 -2.785156 5.046875 -2.921875 C 4.972656 -3.054688 4.847656 -3.171875 4.671875 -3.265625 C 4.503906 -3.367188 4.273438 -3.457031 3.984375 -3.53125 L 2.890625 -3.78125 C 2.117188 -3.957031 1.546875 -4.25 1.171875 -4.65625 C 0.796875 -5.0625 0.609375 -5.59375 0.609375 -6.25 C 0.609375 -6.726562 0.726562 -7.148438 0.96875 -7.515625 C 1.207031 -7.878906 1.554688 -8.160156 2.015625 -8.359375 C 2.484375 -8.566406 3.039062 -8.671875 3.6875 -8.671875 C 4.34375 -8.671875 4.90625 -8.582031 5.375 -8.40625 C 5.84375 -8.238281 6.238281 -7.976562 6.5625 -7.625 L 5.734375 -6.46875 L 5.578125 -6.46875 C 5.335938 -6.726562 5.0625 -6.921875 4.75 -7.046875 C 4.4375 -7.171875 4.082031 -7.234375 3.6875 -7.234375 C 3.21875 -7.234375 2.863281 -7.148438 2.625 -6.984375 C 2.382812 -6.816406 2.265625 -6.59375 2.265625 -6.3125 C 2.265625 -6.039062 2.347656 -5.820312 2.515625 -5.65625 C 2.679688 -5.5 2.972656 -5.378906 3.390625 -5.296875 L 4.515625 -5.0625 C 5.347656 -4.882812 5.953125 -4.582031 6.328125 -4.15625 C 6.703125 -3.738281 6.890625 -3.191406 6.890625 -2.515625 C 6.890625 -1.984375 6.773438 -1.519531 6.546875 -1.125 C 6.316406 -0.726562 5.96875 -0.421875 5.5 -0.203125 C 5.03125 0.015625 4.460938 0.125 3.796875 0.125 Z M 3.796875 0.125 "/></g></g><g transform="translate(151.714222, 579.714219)"><g><path d="M 0.9375 0 L 0.9375 -9.046875 L 2.546875 -9.046875 L 2.546875 -5.609375 L 2.671875 -5.59375 C 2.890625 -5.90625 3.15625 -6.144531 3.46875 -6.3125 C 3.78125 -6.488281 4.15625 -6.578125 4.59375 -6.578125 C 6.019531 -6.578125 6.734375 -5.769531 6.734375 -4.15625 L 6.734375 0 L 5.109375 0 L 5.109375 -3.953125 C 5.109375 -4.390625 5.019531 -4.707031 4.84375 -4.90625 C 4.664062 -5.101562 4.394531 -5.203125 4.03125 -5.203125 C 3.570312 -5.203125 3.207031 -5.050781 2.9375 -4.75 C 2.675781 -4.445312 2.546875 -3.976562 2.546875 -3.34375 L 2.546875 0 Z M 0.9375 0 "/></g></g><g transform="translate(159.271615, 579.714219)"><g><path d="M 2.515625 0.125 C 2.097656 0.125 1.738281 0.0507812 1.4375 -0.09375 C 1.132812 -0.25 0.898438 -0.472656 0.734375 -0.765625 C 0.566406 -1.066406 0.484375 -1.425781 0.484375 -1.84375 C 0.484375 -2.21875 0.566406 -2.535156 0.734375 -2.796875 C 0.898438 -3.054688 1.15625 -3.269531 1.5 -3.4375 C 1.84375 -3.601562 2.289062 -3.734375 2.84375 -3.828125 C 3.226562 -3.890625 3.519531 -3.957031 3.71875 -4.03125 C 3.925781 -4.101562 4.0625 -4.1875 4.125 -4.28125 C 4.195312 -4.375 4.234375 -4.492188 4.234375 -4.640625 C 4.234375 -4.835938 4.160156 -4.988281 4.015625 -5.09375 C 3.867188 -5.207031 3.628906 -5.265625 3.296875 -5.265625 C 2.941406 -5.265625 2.601562 -5.1875 2.28125 -5.03125 C 1.957031 -4.875 1.675781 -4.664062 1.4375 -4.40625 L 1.3125 -4.40625 L 0.640625 -5.421875 C 0.960938 -5.785156 1.359375 -6.066406 1.828125 -6.265625 C 2.304688 -6.472656 2.820312 -6.578125 3.375 -6.578125 C 4.226562 -6.578125 4.847656 -6.394531 5.234375 -6.03125 C 5.617188 -5.664062 5.8125 -5.148438 5.8125 -4.484375 L 5.8125 -1.6875 C 5.8125 -1.394531 5.9375 -1.25 6.1875 -1.25 C 6.289062 -1.25 6.390625 -1.269531 6.484375 -1.3125 L 6.5625 -1.28125 L 6.671875 -0.15625 C 6.585938 -0.09375 6.460938 -0.0390625 6.296875 0 C 6.140625 0.03125 5.96875 0.046875 5.78125 0.046875 C 5.394531 0.046875 5.09375 -0.0234375 4.875 -0.171875 C 4.65625 -0.316406 4.5 -0.550781 4.40625 -0.875 L 4.28125 -0.890625 C 3.96875 -0.210938 3.378906 0.125 2.515625 0.125 Z M 3.03125 -1.09375 C 3.40625 -1.09375 3.703125 -1.21875 3.921875 -1.46875 C 4.148438 -1.71875 4.265625 -2.066406 4.265625 -2.515625 L 4.265625 -3.171875 L 4.15625 -3.1875 C 4.0625 -3.113281 3.929688 -3.050781 3.765625 -3 C 3.609375 -2.945312 3.382812 -2.894531 3.09375 -2.84375 C 2.738281 -2.78125 2.484375 -2.675781 2.328125 -2.53125 C 2.171875 -2.394531 2.09375 -2.195312 2.09375 -1.9375 C 2.09375 -1.65625 2.175781 -1.441406 2.34375 -1.296875 C 2.507812 -1.160156 2.738281 -1.09375 3.03125 -1.09375 Z M 3.03125 -1.09375 "/></g></g><g transform="translate(166.074439, 579.714219)"><g><path d="M 0.9375 0 L 0.9375 -6.453125 L 2.5 -6.453125 L 2.5 -5.5 L 2.625 -5.46875 C 2.78125 -5.832031 2.984375 -6.097656 3.234375 -6.265625 C 3.492188 -6.429688 3.804688 -6.515625 4.171875 -6.515625 C 4.535156 -6.515625 4.8125 -6.453125 5 -6.328125 L 4.734375 -4.921875 L 4.609375 -4.90625 C 4.503906 -4.945312 4.398438 -4.976562 4.296875 -5 C 4.203125 -5.019531 4.082031 -5.03125 3.9375 -5.03125 C 3.488281 -5.03125 3.144531 -4.867188 2.90625 -4.546875 C 2.664062 -4.234375 2.546875 -3.722656 2.546875 -3.015625 L 2.546875 0 Z M 0.9375 0 "/></g></g></g><g fill="#ffffff" fill-opacity="1"><g transform="translate(170.964518, 579.714219)"><g><path d="M 6.375 -2.859375 L 2.234375 -2.859375 C 2.273438 -2.296875 2.429688 -1.882812 2.703125 -1.625 C 2.984375 -1.375 3.359375 -1.25 3.828125 -1.25 C 4.203125 -1.25 4.503906 -1.316406 4.734375 -1.453125 C 4.960938 -1.597656 5.144531 -1.8125 5.28125 -2.09375 L 5.40625 -2.09375 L 6.484375 -1.40625 C 6.273438 -0.945312 5.957031 -0.578125 5.53125 -0.296875 C 5.101562 -0.015625 4.535156 0.125 3.828125 0.125 C 3.160156 0.125 2.582031 0 2.09375 -0.25 C 1.613281 -0.507812 1.238281 -0.890625 0.96875 -1.390625 C 0.707031 -1.890625 0.578125 -2.5 0.578125 -3.21875 C 0.578125 -3.957031 0.710938 -4.578125 0.984375 -5.078125 C 1.265625 -5.578125 1.640625 -5.953125 2.109375 -6.203125 C 2.585938 -6.453125 3.117188 -6.578125 3.703125 -6.578125 C 4.617188 -6.578125 5.316406 -6.332031 5.796875 -5.84375 C 6.285156 -5.363281 6.53125 -4.65625 6.53125 -3.71875 C 6.53125 -3.382812 6.519531 -3.125 6.5 -2.9375 Z M 4.984375 -3.90625 C 4.972656 -4.394531 4.859375 -4.75 4.640625 -4.96875 C 4.429688 -5.195312 4.117188 -5.3125 3.703125 -5.3125 C 2.890625 -5.3125 2.410156 -4.84375 2.265625 -3.90625 Z M 4.984375 -3.90625 "/></g></g></g><g clip-path="url(#5f2dee47f5)"><g transform="matrix(1, 0, 0, 1, 57, 270)"><g clip-path="url(#45d3b62107)"><g clip-path="url(#de146aecce)"><path fill="#1f8f3a" d="M 0.6875 0.101562 L 253.246094 0.101562 L 253.246094 50.300781 L 0.6875 50.300781 Z M 0.6875 0.101562 " fill-opacity="1" fill-rule="nonzero"/></g></g></g></g></svg>
