<svg xmlns="http://www.w3.org/2000/svg" xmlns:xlink="http://www.w3.org/1999/xlink" width="390" zoomAndPan="magnify" viewBox="0 0 292.5 632.999981" height="844" preserveAspectRatio="xMidYMid meet" version="1.0"><defs><g/><clipPath id="ecbb0342e1"><path d="M 0 0.539062 L 292 0.539062 L 292 632.457031 L 0 632.457031 Z M 0 0.539062 " clip-rule="nonzero"/></clipPath><clipPath id="9716e0104d"><path d="M 0 0.539062 L 292 0.539062 L 292 277.703125 L 0 277.703125 Z M 0 0.539062 " clip-rule="nonzero"/></clipPath><clipPath id="980da98846"><path d="M -78.851562 0.539062 L 328.738281 0.539062 C 336.183594 0.539062 342.214844 6.574219 342.214844 14.015625 L 342.214844 264.226562 C 342.214844 271.667969 336.183594 277.703125 328.738281 277.703125 L -78.851562 277.703125 C -86.296875 277.703125 -92.328125 271.667969 -92.328125 264.226562 L -92.328125 14.015625 C -92.328125 6.574219 -86.296875 0.539062 -78.851562 0.539062 Z M -78.851562 0.539062 " clip-rule="nonzero"/></clipPath><clipPath id="74903f0f52"><path d="M 0 0.539062 L 292 0.539062 L 292 277.703125 L 0 277.703125 Z M 0 0.539062 " clip-rule="nonzero"/></clipPath><clipPath id="1c2a9f1b7a"><path d="M -78.851562 0.539062 L 328.738281 0.539062 C 336.183594 0.539062 342.214844 6.574219 342.214844 14.015625 L 342.214844 264.226562 C 342.214844 271.667969 336.183594 277.703125 328.738281 277.703125 L -78.851562 277.703125 C -86.296875 277.703125 -92.328125 271.667969 -92.328125 264.226562 L -92.328125 14.015625 C -92.328125 6.574219 -86.296875 0.539062 -78.851562 0.539062 Z M -78.851562 0.539062 " clip-rule="nonzero"/></clipPath><clipPath id="6e5db20289"><rect x="0" width="292" y="0" height="278"/></clipPath><clipPath id="6d0549e106"><path d="M 58.125 277.703125 L 292 277.703125 L 292 327.898438 L 58.125 327.898438 Z M 58.125 277.703125 " clip-rule="nonzero"/></clipPath><clipPath id="7097f2dddb"><path d="M 0.125 0.703125 L 234 0.703125 L 234 50.898438 L 0.125 50.898438 Z M 0.125 0.703125 " clip-rule="nonzero"/></clipPath><clipPath id="2c1adda24b"><rect x="0" width="234" y="0" height="51"/></clipPath><clipPath id="460d20978a"><path d="M 121.734375 568.183594 L 139.707031 568.183594 L 139.707031 583.160156 L 121.734375 583.160156 Z M 121.734375 568.183594 " clip-rule="nonzero"/></clipPath><clipPath id="0f6e0c1050"><path d="M 57.84375 0.175781 L 99.097656 0.175781 L 99.097656 41.425781 L 57.84375 41.425781 Z M 57.84375 0.175781 " clip-rule="nonzero"/></clipPath><clipPath id="5187d1686d"><path d="M 78.472656 0.175781 C 67.078125 0.175781 57.84375 9.410156 57.84375 20.800781 C 57.84375 32.191406 67.078125 41.425781 78.472656 41.425781 C 89.863281 41.425781 99.097656 32.191406 99.097656 20.800781 C 99.097656 9.410156 89.863281 0.175781 78.472656 0.175781 Z M 78.472656 0.175781 " clip-rule="nonzero"/></clipPath><clipPath id="c81af536c6"><path d="M 0.84375 0.175781 L 42.097656 0.175781 L 42.097656 41.425781 L 0.84375 41.425781 Z M 0.84375 0.175781 " clip-rule="nonzero"/></clipPath><clipPath id="66bb157582"><path d="M 21.472656 0.175781 C 10.078125 0.175781 0.84375 9.410156 0.84375 20.800781 C 0.84375 32.191406 10.078125 41.425781 21.472656 41.425781 C 32.863281 41.425781 42.097656 32.191406 42.097656 20.800781 C 42.097656 9.410156 32.863281 0.175781 21.472656 0.175781 Z M 21.472656 0.175781 " clip-rule="nonzero"/></clipPath><clipPath id="c9f750cab8"><rect x="0" width="43" y="0" height="42"/></clipPath><clipPath id="88c262225e"><path d="M 0.941406 0.175781 L 42.195312 0.175781 L 42.195312 41.425781 L 0.941406 41.425781 Z M 0.941406 0.175781 " clip-rule="nonzero"/></clipPath><clipPath id="2a4cc2304c"><path d="M 21.570312 0.175781 C 10.179688 0.175781 0.941406 9.410156 0.941406 20.800781 C 0.941406 32.191406 10.179688 41.425781 21.570312 41.425781 C 32.960938 41.425781 42.195312 32.191406 42.195312 20.800781 C 42.195312 9.410156 32.960938 0.175781 21.570312 0.175781 Z M 21.570312 0.175781 " clip-rule="nonzero"/></clipPath><clipPath id="8eecfb8833"><path d="M 0.941406 0.175781 L 42.195312 0.175781 L 42.195312 41.425781 L 0.941406 41.425781 Z M 0.941406 0.175781 " clip-rule="nonzero"/></clipPath><clipPath id="b3202712bb"><path d="M 21.570312 0.175781 C 10.179688 0.175781 0.941406 9.410156 0.941406 20.800781 C 0.941406 32.191406 10.179688 41.425781 21.570312 41.425781 C 32.960938 41.425781 42.195312 32.191406 42.195312 20.800781 C 42.195312 9.410156 32.960938 0.175781 21.570312 0.175781 Z M 21.570312 0.175781 " clip-rule="nonzero"/></clipPath><clipPath id="7055d2b44f"><rect x="0" width="43" y="0" height="42"/></clipPath><clipPath id="c206424775"><path d="M 9.507812 9 L 33 9 L 33 33.046875 L 9.507812 33.046875 Z M 9.507812 9 " clip-rule="nonzero"/></clipPath><clipPath id="0a2a0463d2"><path d="M 66.484375 12.214844 L 90.21875 12.214844 L 90.21875 29.402344 L 66.484375 29.402344 Z M 66.484375 12.214844 " clip-rule="nonzero"/></clipPath><clipPath id="69414b203a"><path d="M 114.648438 0.175781 L 155.902344 0.175781 L 155.902344 41.425781 L 114.648438 41.425781 Z M 114.648438 0.175781 " clip-rule="nonzero"/></clipPath><clipPath id="86a468cf00"><path d="M 135.273438 0.175781 C 123.882812 0.175781 114.648438 9.410156 114.648438 20.800781 C 114.648438 32.191406 123.882812 41.425781 135.273438 41.425781 C 146.667969 41.425781 155.902344 32.191406 155.902344 20.800781 C 155.902344 9.410156 146.667969 0.175781 135.273438 0.175781 Z M 135.273438 0.175781 " clip-rule="nonzero"/></clipPath><clipPath id="e8b58f7937"><path d="M 0.648438 0.175781 L 41.902344 0.175781 L 41.902344 41.425781 L 0.648438 41.425781 Z M 0.648438 0.175781 " clip-rule="nonzero"/></clipPath><clipPath id="bd49b0dd68"><path d="M 21.273438 0.175781 C 9.882812 0.175781 0.648438 9.410156 0.648438 20.800781 C 0.648438 32.191406 9.882812 41.425781 21.273438 41.425781 C 32.667969 41.425781 41.902344 32.191406 41.902344 20.800781 C 41.902344 9.410156 32.667969 0.175781 21.273438 0.175781 Z M 21.273438 0.175781 " clip-rule="nonzero"/></clipPath><clipPath id="9d458392fc"><rect x="0" width="42" y="0" height="42"/></clipPath><clipPath id="43a3c5af3f"><path d="M 126.070312 11.175781 L 145.714844 11.175781 L 145.714844 30.820312 L 126.070312 30.820312 Z M 126.070312 11.175781 " clip-rule="nonzero"/></clipPath><clipPath id="1f612782f8"><rect x="0" width="157" y="0" height="42"/></clipPath></defs><g clip-path="url(#ecbb0342e1)"><path fill="#ffffff" d="M 0 0.539062 L 292 0.539062 L 292 632.460938 L 0 632.460938 Z M 0 0.539062 " fill-opacity="1" fill-rule="nonzero"/><path fill="#ffffff" d="M 0 0.539062 L 292 0.539062 L 292 632.460938 L 0 632.460938 Z M 0 0.539062 " fill-opacity="1" fill-rule="nonzero"/></g><g clip-path="url(#9716e0104d)"><g clip-path="url(#980da98846)"><g transform="matrix(1, 0, 0, 1, 0, -0.000000000000015987)"><g clip-path="url(#6e5db20289)"><g clip-path="url(#74903f0f52)"><g clip-path="url(#1c2a9f1b7a)"><path fill="#000000" d="M -92.328125 0.539062 L 341.820312 0.539062 L 341.820312 277.703125 L -92.328125 277.703125 Z M -92.328125 0.539062 " fill-opacity="1" fill-rule="nonzero"/></g></g></g></g></g></g><g clip-path="url(#6d0549e106)"><g transform="matrix(1, 0, 0, 1, 58, 277)"><g clip-path="url(#2c1adda24b)"><g clip-path="url(#7097f2dddb)"><path fill="#1f8f3a" d="M 0.125 0.703125 L 252.679688 0.703125 L 252.679688 50.898438 L 0.125 50.898438 Z M 0.125 0.703125 " fill-opacity="1" fill-rule="nonzero"/></g></g></g></g><g clip-path="url(#460d20978a)"><path fill="#ffffff" d="M 139.355469 568.589844 C 139.355469 568.585938 139.355469 568.585938 139.355469 568.585938 C 139.359375 568.578125 139.363281 568.570312 139.367188 568.5625 C 139.367188 568.558594 139.371094 568.554688 139.371094 568.554688 C 139.375 568.542969 139.378906 568.535156 139.378906 568.527344 C 139.378906 568.523438 139.378906 568.523438 139.382812 568.523438 C 139.382812 568.511719 139.386719 568.503906 139.386719 568.492188 C 139.386719 568.488281 139.386719 568.488281 139.386719 568.484375 C 139.390625 568.476562 139.390625 568.46875 139.390625 568.460938 C 139.390625 568.457031 139.390625 568.453125 139.390625 568.453125 C 139.390625 568.429688 139.386719 568.410156 139.382812 568.386719 C 139.382812 568.386719 139.378906 568.382812 139.378906 568.378906 C 139.378906 568.371094 139.375 568.363281 139.371094 568.355469 C 139.371094 568.355469 139.371094 568.351562 139.367188 568.347656 C 139.363281 568.339844 139.359375 568.332031 139.355469 568.324219 C 139.355469 568.320312 139.355469 568.320312 139.355469 568.320312 C 139.355469 568.320312 139.355469 568.320312 139.355469 568.316406 C 139.347656 568.308594 139.34375 568.300781 139.335938 568.292969 C 139.335938 568.289062 139.332031 568.289062 139.332031 568.285156 C 139.324219 568.277344 139.320312 568.273438 139.3125 568.265625 C 139.3125 568.265625 139.308594 568.261719 139.308594 568.261719 C 139.300781 568.253906 139.292969 568.246094 139.285156 568.242188 C 139.285156 568.242188 139.285156 568.242188 139.285156 568.238281 C 139.277344 568.234375 139.265625 568.226562 139.257812 568.222656 C 139.253906 568.21875 139.253906 568.21875 139.25 568.21875 C 139.246094 568.214844 139.238281 568.210938 139.230469 568.207031 C 139.226562 568.207031 139.222656 568.203125 139.222656 568.203125 C 139.210938 568.199219 139.203125 568.199219 139.195312 568.195312 C 139.195312 568.195312 139.191406 568.195312 139.191406 568.195312 C 139.179688 568.191406 139.171875 568.1875 139.160156 568.1875 C 139.15625 568.1875 139.15625 568.1875 139.152344 568.1875 C 139.144531 568.1875 139.132812 568.183594 139.125 568.183594 C 139.125 568.183594 139.121094 568.183594 139.121094 568.183594 L 122.027344 568.183594 C 121.914062 568.183594 121.8125 568.257812 121.773438 568.363281 C 121.734375 568.472656 121.769531 568.589844 121.855469 568.664062 L 128.933594 574.386719 L 130.242188 583.269531 C 130.257812 583.382812 130.34375 583.472656 130.457031 583.492188 C 130.472656 583.496094 130.492188 583.5 130.507812 583.5 C 130.601562 583.5 130.691406 583.449219 130.738281 583.363281 L 139.351562 568.59375 Z M 138.125 568.722656 L 129.210938 573.917969 L 122.785156 568.722656 Z M 130.660156 582.429688 L 129.476562 574.382812 L 138.375 569.199219 Z M 130.660156 582.429688 " fill-opacity="1" fill-rule="nonzero"/></g><g fill="#ffffff" fill-opacity="1"><g transform="translate(144.367406, 579.714219)"><g><path d="M 3.796875 0.125 C 3.203125 0.125 2.671875 0.0507812 2.203125 -0.09375 C 1.742188 -0.238281 1.359375 -0.429688 1.046875 -0.671875 C 0.742188 -0.910156 0.507812 -1.171875 0.34375 -1.453125 L 1.28125 -2.59375 L 1.421875 -2.59375 C 1.679688 -2.207031 2.007812 -1.898438 2.40625 -1.671875 C 2.800781 -1.453125 3.265625 -1.34375 3.796875 -1.34375 C 4.242188 -1.34375 4.582031 -1.4375 4.8125 -1.625 C 5.039062 -1.8125 5.15625 -2.078125 5.15625 -2.421875 C 5.15625 -2.617188 5.117188 -2.785156 5.046875 -2.921875 C 4.972656 -3.054688 4.847656 -3.171875 4.671875 -3.265625 C 4.503906 -3.367188 4.273438 -3.457031 3.984375 -3.53125 L 2.890625 -3.78125 C 2.117188 -3.957031 1.546875 -4.25 1.171875 -4.65625 C 0.796875 -5.0625 0.609375 -5.59375 0.609375 -6.25 C 0.609375 -6.726562 0.726562 -7.148438 0.96875 -7.515625 C 1.207031 -7.878906 1.554688 -8.160156 2.015625 -8.359375 C 2.484375 -8.566406 3.039062 -8.671875 3.6875 -8.671875 C 4.34375 -8.671875 4.90625 -8.582031 5.375 -8.40625 C 5.84375 -8.238281 6.238281 -7.976562 6.5625 -7.625 L 5.734375 -6.46875 L 5.578125 -6.46875 C 5.335938 -6.726562 5.0625 -6.921875 4.75 -7.046875 C 4.4375 -7.171875 4.082031 -7.234375 3.6875 -7.234375 C 3.21875 -7.234375 2.863281 -7.148438 2.625 -6.984375 C 2.382812 -6.816406 2.265625 -6.59375 2.265625 -6.3125 C 2.265625 -6.039062 2.347656 -5.820312 2.515625 -5.65625 C 2.679688 -5.5 2.972656 -5.378906 3.390625 -5.296875 L 4.515625 -5.0625 C 5.347656 -4.882812 5.953125 -4.582031 6.328125 -4.15625 C 6.703125 -3.738281 6.890625 -3.191406 6.890625 -2.515625 C 6.890625 -1.984375 6.773438 -1.519531 6.546875 -1.125 C 6.316406 -0.726562 5.96875 -0.421875 5.5 -0.203125 C 5.03125 0.015625 4.460938 0.125 3.796875 0.125 Z M 3.796875 0.125 "/></g></g><g transform="translate(151.714222, 579.714219)"><g><path d="M 0.9375 0 L 0.9375 -9.046875 L 2.546875 -9.046875 L 2.546875 -5.609375 L 2.671875 -5.59375 C 2.890625 -5.90625 3.15625 -6.144531 3.46875 -6.3125 C 3.78125 -6.488281 4.15625 -6.578125 4.59375 -6.578125 C 6.019531 -6.578125 6.734375 -5.769531 6.734375 -4.15625 L 6.734375 0 L 5.109375 0 L 5.109375 -3.953125 C 5.109375 -4.390625 5.019531 -4.707031 4.84375 -4.90625 C 4.664062 -5.101562 4.394531 -5.203125 4.03125 -5.203125 C 3.570312 -5.203125 3.207031 -5.050781 2.9375 -4.75 C 2.675781 -4.445312 2.546875 -3.976562 2.546875 -3.34375 L 2.546875 0 Z M 0.9375 0 "/></g></g><g transform="translate(159.271615, 579.714219)"><g><path d="M 2.515625 0.125 C 2.097656 0.125 1.738281 0.0507812 1.4375 -0.09375 C 1.132812 -0.25 0.898438 -0.472656 0.734375 -0.765625 C 0.566406 -1.066406 0.484375 -1.425781 0.484375 -1.84375 C 0.484375 -2.21875 0.566406 -2.535156 0.734375 -2.796875 C 0.898438 -3.054688 1.15625 -3.269531 1.5 -3.4375 C 1.84375 -3.601562 2.289062 -3.734375 2.84375 -3.828125 C 3.226562 -3.890625 3.519531 -3.957031 3.71875 -4.03125 C 3.925781 -4.101562 4.0625 -4.1875 4.125 -4.28125 C 4.195312 -4.375 4.234375 -4.492188 4.234375 -4.640625 C 4.234375 -4.835938 4.160156 -4.988281 4.015625 -5.09375 C 3.867188 -5.207031 3.628906 -5.265625 3.296875 -5.265625 C 2.941406 -5.265625 2.601562 -5.1875 2.28125 -5.03125 C 1.957031 -4.875 1.675781 -4.664062 1.4375 -4.40625 L 1.3125 -4.40625 L 0.640625 -5.421875 C 0.960938 -5.785156 1.359375 -6.066406 1.828125 -6.265625 C 2.304688 -6.472656 2.820312 -6.578125 3.375 -6.578125 C 4.226562 -6.578125 4.847656 -6.394531 5.234375 -6.03125 C 5.617188 -5.664062 5.8125 -5.148438 5.8125 -4.484375 L 5.8125 -1.6875 C 5.8125 -1.394531 5.9375 -1.25 6.1875 -1.25 C 6.289062 -1.25 6.390625 -1.269531 6.484375 -1.3125 L 6.5625 -1.28125 L 6.671875 -0.15625 C 6.585938 -0.09375 6.460938 -0.0390625 6.296875 0 C 6.140625 0.03125 5.96875 0.046875 5.78125 0.046875 C 5.394531 0.046875 5.09375 -0.0234375 4.875 -0.171875 C 4.65625 -0.316406 4.5 -0.550781 4.40625 -0.875 L 4.28125 -0.890625 C 3.96875 -0.210938 3.378906 0.125 2.515625 0.125 Z M 3.03125 -1.09375 C 3.40625 -1.09375 3.703125 -1.21875 3.921875 -1.46875 C 4.148438 -1.71875 4.265625 -2.066406 4.265625 -2.515625 L 4.265625 -3.171875 L 4.15625 -3.1875 C 4.0625 -3.113281 3.929688 -3.050781 3.765625 -3 C 3.609375 -2.945312 3.382812 -2.894531 3.09375 -2.84375 C 2.738281 -2.78125 2.484375 -2.675781 2.328125 -2.53125 C 2.171875 -2.394531 2.09375 -2.195312 2.09375 -1.9375 C 2.09375 -1.65625 2.175781 -1.441406 2.34375 -1.296875 C 2.507812 -1.160156 2.738281 -1.09375 3.03125 -1.09375 Z M 3.03125 -1.09375 "/></g></g><g transform="translate(166.074439, 579.714219)"><g><path d="M 0.9375 0 L 0.9375 -6.453125 L 2.5 -6.453125 L 2.5 -5.5 L 2.625 -5.46875 C 2.78125 -5.832031 2.984375 -6.097656 3.234375 -6.265625 C 3.492188 -6.429688 3.804688 -6.515625 4.171875 -6.515625 C 4.535156 -6.515625 4.8125 -6.453125 5 -6.328125 L 4.734375 -4.921875 L 4.609375 -4.90625 C 4.503906 -4.945312 4.398438 -4.976562 4.296875 -5 C 4.203125 -5.019531 4.082031 -5.03125 3.9375 -5.03125 C 3.488281 -5.03125 3.144531 -4.867188 2.90625 -4.546875 C 2.664062 -4.234375 2.546875 -3.722656 2.546875 -3.015625 L 2.546875 0 Z M 0.9375 0 "/></g></g></g><g fill="#ffffff" fill-opacity="1"><g transform="translate(170.964518, 579.714219)"><g><path d="M 6.375 -2.859375 L 2.234375 -2.859375 C 2.273438 -2.296875 2.429688 -1.882812 2.703125 -1.625 C 2.984375 -1.375 3.359375 -1.25 3.828125 -1.25 C 4.203125 -1.25 4.503906 -1.316406 4.734375 -1.453125 C 4.960938 -1.597656 5.144531 -1.8125 5.28125 -2.09375 L 5.40625 -2.09375 L 6.484375 -1.40625 C 6.273438 -0.945312 5.957031 -0.578125 5.53125 -0.296875 C 5.101562 -0.015625 4.535156 0.125 3.828125 0.125 C 3.160156 0.125 2.582031 0 2.09375 -0.25 C 1.613281 -0.507812 1.238281 -0.890625 0.96875 -1.390625 C 0.707031 -1.890625 0.578125 -2.5 0.578125 -3.21875 C 0.578125 -3.957031 0.710938 -4.578125 0.984375 -5.078125 C 1.265625 -5.578125 1.640625 -5.953125 2.109375 -6.203125 C 2.585938 -6.453125 3.117188 -6.578125 3.703125 -6.578125 C 4.617188 -6.578125 5.316406 -6.332031 5.796875 -5.84375 C 6.285156 -5.363281 6.53125 -4.65625 6.53125 -3.71875 C 6.53125 -3.382812 6.519531 -3.125 6.5 -2.9375 Z M 4.984375 -3.90625 C 4.972656 -4.394531 4.859375 -4.75 4.640625 -4.96875 C 4.429688 -5.195312 4.117188 -5.3125 3.703125 -5.3125 C 2.890625 -5.3125 2.410156 -4.84375 2.265625 -3.90625 Z M 4.984375 -3.90625 "/></g></g></g><g transform="matrix(1, 0, 0, 1, 124, 282)"><g clip-path="url(#1f612782f8)"><g clip-path="url(#0f6e0c1050)"><g clip-path="url(#5187d1686d)"><g transform="matrix(1, 0, 0, 1, 57, -0.000000000000056843)"><g clip-path="url(#c9f750cab8)"><g clip-path="url(#c81af536c6)"><g clip-path="url(#66bb157582)"><path fill="#000000" d="M 0.84375 0.175781 L 42.097656 0.175781 L 42.097656 41.425781 L 0.84375 41.425781 Z M 0.84375 0.175781 " fill-opacity="1" fill-rule="nonzero"/></g></g></g></g></g></g><g clip-path="url(#88c262225e)"><g clip-path="url(#2a4cc2304c)"><g transform="matrix(1, 0, 0, 1, 0, -0.000000000000056843)"><g clip-path="url(#7055d2b44f)"><g clip-path="url(#8eecfb8833)"><g clip-path="url(#b3202712bb)"><path fill="#000000" d="M 0.941406 0.175781 L 42.195312 0.175781 L 42.195312 41.425781 L 0.941406 41.425781 Z M 0.941406 0.175781 " fill-opacity="1" fill-rule="nonzero"/></g></g></g></g></g></g><g clip-path="url(#c206424775)"><path fill="#ffffff" d="M 31.667969 30.472656 L 31.675781 30.472656 Z M 13.640625 10.460938 C 13.414062 10.460938 13.199219 10.5625 12.964844 10.769531 C 12.9375 10.792969 12.601562 11.113281 12.382812 11.320312 L 12.195312 11.5 C 11.082031 12.539062 10.578125 14.410156 10.910156 16.269531 C 11.015625 16.867188 11.1875 17.488281 11.421875 18.113281 C 12.597656 21.273438 14.828125 24.015625 16.492188 25.761719 C 18.152344 27.523438 20.773438 29.898438 23.863281 31.238281 C 24.472656 31.503906 25.085938 31.710938 25.679688 31.851562 C 27.515625 32.28125 29.410156 31.878906 30.507812 30.824219 L 30.691406 30.648438 C 30.902344 30.449219 31.234375 30.136719 31.28125 30.089844 C 31.964844 29.386719 31.625 28.800781 30.253906 27.410156 L 29.914062 27.054688 C 29.042969 26.15625 27.589844 24.648438 26.355469 24.792969 C 26.023438 24.835938 25.671875 25.078125 25.304688 25.335938 C 24.9375 25.59375 24.554688 25.859375 24.101562 26 C 22.878906 26.390625 21.640625 26.132812 20.609375 25.285156 C 19.996094 24.777344 19.367188 24.183594 18.800781 23.570312 C 18.222656 22.976562 17.664062 22.320312 17.191406 21.679688 C 16.398438 20.605469 16.210938 19.355469 16.664062 18.15625 C 16.832031 17.707031 17.117188 17.34375 17.394531 16.992188 C 17.671875 16.636719 17.933594 16.300781 17.988281 15.96875 C 18.203125 14.742188 16.773438 13.210938 15.921875 12.296875 L 15.589844 11.9375 C 14.683594 10.945312 14.136719 10.460938 13.640625 10.460938 Z M 27.160156 33.109375 C 26.546875 33.109375 25.957031 33.035156 25.429688 32.910156 C 24.773438 32.757812 24.097656 32.53125 23.425781 32.238281 C 20.167969 30.824219 17.429688 28.34375 15.703125 26.511719 C 13.96875 24.695312 11.640625 21.824219 10.402344 18.496094 C 10.144531 17.808594 9.953125 17.125 9.835938 16.460938 C 9.523438 14.699219 9.78125 12.261719 11.449219 10.703125 L 11.632812 10.527344 C 11.867188 10.308594 12.226562 9.964844 12.242188 9.953125 C 13.910156 8.484375 15.40625 10.121094 16.394531 11.199219 L 16.71875 11.554688 C 17.710938 12.617188 19.367188 14.394531 19.0625 16.152344 C 18.960938 16.753906 18.582031 17.238281 18.253906 17.664062 C 18.015625 17.964844 17.792969 18.25 17.683594 18.539062 C 17.363281 19.394531 17.496094 20.257812 18.070312 21.03125 C 18.511719 21.636719 19.039062 22.253906 19.589844 22.820312 C 20.136719 23.410156 20.726562 23.96875 21.304688 24.445312 C 22.046875 25.058594 22.902344 25.238281 23.773438 24.964844 C 24.070312 24.867188 24.363281 24.660156 24.679688 24.441406 C 25.121094 24.132812 25.621094 23.785156 26.230469 23.710938 C 28.003906 23.503906 29.6875 25.253906 30.695312 26.300781 L 31.03125 26.644531 C 32.058594 27.6875 33.609375 29.265625 32.058594 30.855469 C 32.035156 30.878906 31.671875 31.222656 31.441406 31.441406 L 31.261719 31.609375 C 30.117188 32.710938 28.578125 33.109375 27.160156 33.109375 " fill-opacity="1" fill-rule="nonzero"/></g><g clip-path="url(#0a2a0463d2)"><path fill="#ffffff" d="M 69.027344 28.597656 C 68.675781 28.597656 68.34375 28.5 68.058594 28.3125 L 74.890625 21.3125 L 77.09375 23.550781 C 77.453125 23.921875 77.9375 24.125 78.457031 24.125 C 78.972656 24.125 79.457031 23.921875 79.820312 23.554688 L 82.027344 21.3125 L 88.871094 28.3125 C 88.585938 28.5 88.253906 28.597656 87.90625 28.597656 Z M 67.519531 27.765625 C 67.34375 27.484375 67.25 27.164062 67.25 26.824219 L 67.25 14.757812 C 67.25 14.421875 67.34375 14.09375 67.523438 13.816406 L 74.351562 20.765625 Z M 69.027344 12.984375 L 87.90625 12.984375 C 88.253906 12.984375 88.585938 13.085938 88.867188 13.269531 L 81.753906 20.492188 L 79.269531 23.011719 C 79.054688 23.234375 78.765625 23.355469 78.457031 23.355469 C 78.148438 23.355469 77.855469 23.234375 77.640625 23.011719 L 75.164062 20.492188 L 68.0625 13.269531 C 68.347656 13.085938 68.679688 12.984375 69.027344 12.984375 Z M 82.566406 20.765625 L 89.410156 13.816406 C 89.585938 14.09375 89.679688 14.421875 89.679688 14.757812 L 89.679688 26.824219 C 89.679688 27.164062 89.585938 27.484375 89.410156 27.765625 Z M 89.710938 12.96875 C 89.710938 12.96875 89.710938 12.964844 89.710938 12.964844 C 89.230469 12.484375 88.589844 12.214844 87.90625 12.214844 L 69.027344 12.214844 C 68.34375 12.214844 67.703125 12.484375 67.222656 12.96875 C 67.21875 12.96875 67.21875 12.96875 67.21875 12.96875 C 66.742188 13.445312 66.480469 14.082031 66.480469 14.757812 L 66.480469 26.824219 C 66.480469 27.5 66.742188 28.136719 67.21875 28.613281 C 67.21875 28.617188 67.21875 28.617188 67.222656 28.617188 C 67.222656 28.621094 67.222656 28.621094 67.222656 28.621094 C 67.703125 29.101562 68.34375 29.367188 69.027344 29.367188 L 87.90625 29.367188 C 88.589844 29.367188 89.226562 29.101562 89.707031 28.621094 C 89.710938 28.621094 89.710938 28.617188 89.710938 28.617188 C 89.710938 28.617188 89.710938 28.617188 89.714844 28.617188 C 90.1875 28.136719 90.449219 27.5 90.449219 26.824219 L 90.449219 14.757812 C 90.449219 14.082031 90.1875 13.445312 89.710938 12.96875 " fill-opacity="1" fill-rule="nonzero"/></g><g clip-path="url(#69414b203a)"><g clip-path="url(#86a468cf00)"><g transform="matrix(1, 0, 0, 1, 114, -0.000000000000056843)"><g clip-path="url(#9d458392fc)"><g clip-path="url(#e8b58f7937)"><g clip-path="url(#bd49b0dd68)"><path fill="#000000" d="M 0.648438 0.175781 L 41.902344 0.175781 L 41.902344 41.425781 L 0.648438 41.425781 Z M 0.648438 0.175781 " fill-opacity="1" fill-rule="nonzero"/></g></g></g></g></g></g><g clip-path="url(#43a3c5af3f)"><path fill="#ffffff" d="M 142.5 13.996094 C 140.679688 12.175781 138.265625 11.175781 135.695312 11.175781 C 133.125 11.175781 130.707031 12.175781 128.890625 13.996094 C 127.070312 15.8125 126.070312 18.226562 126.070312 20.800781 C 126.070312 23.371094 127.070312 25.785156 128.890625 27.605469 C 130.707031 29.421875 133.125 30.421875 135.695312 30.421875 C 138.265625 30.421875 140.679688 29.421875 142.5 27.605469 C 144.316406 25.785156 145.316406 23.371094 145.316406 20.800781 C 145.316406 18.226562 144.316406 15.8125 142.5 13.996094 Z M 127.132812 20.800781 C 127.132812 19.726562 127.332031 18.699219 127.695312 17.753906 L 131.15625 17.753906 C 131 18.722656 130.921875 19.75 130.921875 20.800781 C 130.921875 21.8125 130.996094 22.804688 131.140625 23.746094 L 127.65625 23.746094 C 127.320312 22.828125 127.132812 21.832031 127.132812 20.800781 Z M 131.984375 20.800781 C 131.984375 19.742188 132.070312 18.714844 132.234375 17.753906 L 135.160156 17.753906 L 135.160156 23.746094 L 132.21875 23.746094 C 132.0625 22.8125 131.984375 21.820312 131.984375 20.800781 Z M 138.210938 14.59375 C 138.503906 15.222656 138.746094 15.925781 138.933594 16.691406 L 136.226562 16.691406 L 136.226562 12.339844 C 136.949219 12.601562 137.648438 13.394531 138.210938 14.59375 Z M 135.160156 12.339844 L 135.160156 16.691406 L 132.453125 16.691406 C 132.644531 15.925781 132.886719 15.222656 133.175781 14.59375 C 133.738281 13.394531 134.441406 12.601562 135.160156 12.339844 Z M 135.160156 24.808594 L 135.160156 29.257812 C 134.441406 28.996094 133.738281 28.203125 133.175781 27.003906 C 132.871094 26.351562 132.621094 25.609375 132.429688 24.808594 Z M 136.226562 29.257812 L 136.226562 24.808594 L 138.957031 24.808594 C 138.765625 25.609375 138.515625 26.351562 138.210938 27.003906 C 137.648438 28.203125 136.949219 28.996094 136.226562 29.257812 Z M 136.226562 23.746094 L 136.226562 17.753906 L 139.152344 17.753906 C 139.316406 18.714844 139.402344 19.742188 139.402344 20.800781 C 139.402344 21.820312 139.324219 22.8125 139.167969 23.746094 Z M 140.230469 17.753906 L 143.691406 17.753906 C 144.054688 18.699219 144.253906 19.726562 144.253906 20.800781 C 144.253906 21.832031 144.066406 22.828125 143.730469 23.746094 L 140.246094 23.746094 C 140.390625 22.804688 140.46875 21.8125 140.46875 20.800781 C 140.46875 19.75 140.386719 18.722656 140.230469 17.753906 Z M 143.199219 16.691406 L 140.023438 16.691406 C 139.8125 15.761719 139.527344 14.902344 139.175781 14.144531 C 138.902344 13.558594 138.597656 13.054688 138.265625 12.632812 C 140.382812 13.304688 142.148438 14.773438 143.199219 16.691406 Z M 133.121094 12.632812 C 132.792969 13.054688 132.484375 13.558594 132.210938 14.144531 C 131.859375 14.902344 131.574219 15.761719 131.363281 16.691406 L 128.1875 16.691406 C 129.238281 14.773438 131.003906 13.304688 133.121094 12.632812 Z M 128.136719 24.808594 L 131.339844 24.808594 C 131.554688 25.777344 131.847656 26.671875 132.210938 27.453125 C 132.484375 28.039062 132.792969 28.542969 133.121094 28.964844 C 130.96875 28.285156 129.179688 26.773438 128.136719 24.808594 Z M 138.265625 28.964844 C 138.597656 28.542969 138.902344 28.039062 139.175781 27.453125 C 139.539062 26.671875 139.832031 25.777344 140.046875 24.808594 L 143.253906 24.808594 C 142.207031 26.773438 140.417969 28.285156 138.265625 28.964844 Z M 138.265625 28.964844 " fill-opacity="1" fill-rule="nonzero"/></g></g></g></svg>
