<svg xmlns="http://www.w3.org/2000/svg" xmlns:xlink="http://www.w3.org/1999/xlink" width="390" zoomAndPan="magnify" viewBox="0 0 292.5 632.999981" height="844" preserveAspectRatio="xMidYMid meet" version="1.0"><defs><g/><clipPath id="0410107b68"><path d="M 0 0.539062 L 292 0.539062 L 292 632.457031 L 0 632.457031 Z M 0 0.539062 " clip-rule="nonzero"/></clipPath><clipPath id="98573ad128"><path d="M 0 0.539062 L 292 0.539062 L 292 271.167969 L 0 271.167969 Z M 0 0.539062 " clip-rule="nonzero"/></clipPath><clipPath id="2e76aa4a2b"><path d="M -78.851562 0.539062 L 328.738281 0.539062 C 336.183594 0.539062 342.214844 6.574219 342.214844 14.015625 L 342.214844 257.6875 C 342.214844 265.132812 336.183594 271.167969 328.738281 271.167969 L -78.851562 271.167969 C -86.296875 271.167969 -92.328125 265.132812 -92.328125 257.6875 L -92.328125 14.015625 C -92.328125 6.574219 -86.296875 0.539062 -78.851562 0.539062 Z M -78.851562 0.539062 " clip-rule="nonzero"/></clipPath><clipPath id="757170a2b4"><path d="M 0 0.539062 L 292 0.539062 L 292 271.167969 L 0 271.167969 Z M 0 0.539062 " clip-rule="nonzero"/></clipPath><clipPath id="02c9d6961a"><path d="M -78.851562 0.539062 L 328.738281 0.539062 C 336.183594 0.539062 342.214844 6.574219 342.214844 14.015625 L 342.214844 257.6875 C 342.214844 265.132812 336.183594 271.167969 328.738281 271.167969 L -78.851562 271.167969 C -86.296875 271.167969 -92.328125 265.132812 -92.328125 257.6875 L -92.328125 14.015625 C -92.328125 6.574219 -86.296875 0.539062 -78.851562 0.539062 Z M -78.851562 0.539062 " clip-rule="nonzero"/></clipPath><clipPath id="74b361fad1"><rect x="0" width="292" y="0" height="272"/></clipPath><clipPath id="b1f767d4cc"><path d="M 121.734375 568.183594 L 139.707031 568.183594 L 139.707031 583.160156 L 121.734375 583.160156 Z M 121.734375 568.183594 " clip-rule="nonzero"/></clipPath><clipPath id="aefd75df4e"><path d="M 1.125 0.167969 L 235 0.167969 L 235 50.363281 L 1.125 50.363281 Z M 1.125 0.167969 " clip-rule="nonzero"/></clipPath><clipPath id="a4f36f83ab"><path d="M 0.125 0.167969 L 234 0.167969 L 234 50.363281 L 0.125 50.363281 Z M 0.125 0.167969 " clip-rule="nonzero"/></clipPath><clipPath id="7e7464f75a"><rect x="0" width="234" y="0" height="51"/></clipPath><clipPath id="f45a33faab"><path d="M 124.84375 4.640625 L 166.097656 4.640625 L 166.097656 45.890625 L 124.84375 45.890625 Z M 124.84375 4.640625 " clip-rule="nonzero"/></clipPath><clipPath id="9a5dbc42d6"><path d="M 145.472656 4.640625 C 134.078125 4.640625 124.84375 13.875 124.84375 25.265625 C 124.84375 36.65625 134.078125 45.890625 145.472656 45.890625 C 156.863281 45.890625 166.097656 36.65625 166.097656 25.265625 C 166.097656 13.875 156.863281 4.640625 145.472656 4.640625 Z M 145.472656 4.640625 " clip-rule="nonzero"/></clipPath><clipPath id="629702bbfc"><path d="M 0.84375 0.640625 L 42.097656 0.640625 L 42.097656 41.890625 L 0.84375 41.890625 Z M 0.84375 0.640625 " clip-rule="nonzero"/></clipPath><clipPath id="7312236504"><path d="M 21.472656 0.640625 C 10.078125 0.640625 0.84375 9.875 0.84375 21.265625 C 0.84375 32.65625 10.078125 41.890625 21.472656 41.890625 C 32.863281 41.890625 42.097656 32.65625 42.097656 21.265625 C 42.097656 9.875 32.863281 0.640625 21.472656 0.640625 Z M 21.472656 0.640625 " clip-rule="nonzero"/></clipPath><clipPath id="09b8c150be"><rect x="0" width="43" y="0" height="42"/></clipPath><clipPath id="a44eee1afd"><path d="M 67.941406 4.640625 L 109.195312 4.640625 L 109.195312 45.890625 L 67.941406 45.890625 Z M 67.941406 4.640625 " clip-rule="nonzero"/></clipPath><clipPath id="bb910bd18e"><path d="M 88.570312 4.640625 C 77.179688 4.640625 67.941406 13.875 67.941406 25.265625 C 67.941406 36.65625 77.179688 45.890625 88.570312 45.890625 C 99.960938 45.890625 109.195312 36.65625 109.195312 25.265625 C 109.195312 13.875 99.960938 4.640625 88.570312 4.640625 Z M 88.570312 4.640625 " clip-rule="nonzero"/></clipPath><clipPath id="edf71ad793"><path d="M 0.941406 0.640625 L 42.195312 0.640625 L 42.195312 41.890625 L 0.941406 41.890625 Z M 0.941406 0.640625 " clip-rule="nonzero"/></clipPath><clipPath id="db591ba27e"><path d="M 21.570312 0.640625 C 10.179688 0.640625 0.941406 9.875 0.941406 21.265625 C 0.941406 32.65625 10.179688 41.890625 21.570312 41.890625 C 32.960938 41.890625 42.195312 32.65625 42.195312 21.265625 C 42.195312 9.875 32.960938 0.640625 21.570312 0.640625 Z M 21.570312 0.640625 " clip-rule="nonzero"/></clipPath><clipPath id="8653331130"><rect x="0" width="43" y="0" height="42"/></clipPath><clipPath id="ff6373022e"><path d="M 76.507812 13 L 100 13 L 100 37.507812 L 76.507812 37.507812 Z M 76.507812 13 " clip-rule="nonzero"/></clipPath><clipPath id="451953296c"><path d="M 133.484375 16.679688 L 157.21875 16.679688 L 157.21875 33.867188 L 133.484375 33.867188 Z M 133.484375 16.679688 " clip-rule="nonzero"/></clipPath><clipPath id="fd88270890"><path d="M 181.648438 4.640625 L 222.902344 4.640625 L 222.902344 45.890625 L 181.648438 45.890625 Z M 181.648438 4.640625 " clip-rule="nonzero"/></clipPath><clipPath id="a36aabd78f"><path d="M 202.273438 4.640625 C 190.882812 4.640625 181.648438 13.875 181.648438 25.265625 C 181.648438 36.65625 190.882812 45.890625 202.273438 45.890625 C 213.667969 45.890625 222.902344 36.65625 222.902344 25.265625 C 222.902344 13.875 213.667969 4.640625 202.273438 4.640625 Z M 202.273438 4.640625 " clip-rule="nonzero"/></clipPath><clipPath id="dc70f1b616"><path d="M 0.648438 0.640625 L 41.902344 0.640625 L 41.902344 41.890625 L 0.648438 41.890625 Z M 0.648438 0.640625 " clip-rule="nonzero"/></clipPath><clipPath id="e61f4bed2b"><path d="M 21.273438 0.640625 C 9.882812 0.640625 0.648438 9.875 0.648438 21.265625 C 0.648438 32.65625 9.882812 41.890625 21.273438 41.890625 C 32.667969 41.890625 41.902344 32.65625 41.902344 21.265625 C 41.902344 9.875 32.667969 0.640625 21.273438 0.640625 Z M 21.273438 0.640625 " clip-rule="nonzero"/></clipPath><clipPath id="fb4a3de46c"><rect x="0" width="42" y="0" height="42"/></clipPath><clipPath id="4c6ed01a1e"><path d="M 193.070312 15.640625 L 212.714844 15.640625 L 212.714844 35 L 193.070312 35 Z M 193.070312 15.640625 " clip-rule="nonzero"/></clipPath><clipPath id="1c65fa240b"><rect x="0" width="235" y="0" height="51"/></clipPath></defs><g clip-path="url(#0410107b68)"><path fill="#ffffff" d="M 0 0.539062 L 292 0.539062 L 292 632.460938 L 0 632.460938 Z M 0 0.539062 " fill-opacity="1" fill-rule="nonzero"/><path fill="#ffffff" d="M 0 0.539062 L 292 0.539062 L 292 632.460938 L 0 632.460938 Z M 0 0.539062 " fill-opacity="1" fill-rule="nonzero"/></g><g clip-path="url(#98573ad128)"><g clip-path="url(#2e76aa4a2b)"><g transform="matrix(1, 0, 0, 1, 0, -0.000000000000015987)"><g clip-path="url(#74b361fad1)"><g clip-path="url(#757170a2b4)"><g clip-path="url(#02c9d6961a)"><path fill="#000000" d="M -92.328125 0.539062 L 342.152344 0.539062 L 342.152344 271.167969 L -92.328125 271.167969 Z M -92.328125 0.539062 " fill-opacity="1" fill-rule="nonzero"/></g></g></g></g></g></g><g clip-path="url(#b1f767d4cc)"><path fill="#ffffff" d="M 139.355469 568.589844 C 139.355469 568.585938 139.355469 568.585938 139.355469 568.585938 C 139.359375 568.578125 139.363281 568.570312 139.367188 568.5625 C 139.367188 568.558594 139.371094 568.554688 139.371094 568.554688 C 139.375 568.542969 139.378906 568.535156 139.378906 568.527344 C 139.378906 568.523438 139.378906 568.523438 139.382812 568.523438 C 139.382812 568.511719 139.386719 568.503906 139.386719 568.492188 C 139.386719 568.488281 139.386719 568.488281 139.386719 568.484375 C 139.390625 568.476562 139.390625 568.46875 139.390625 568.460938 C 139.390625 568.457031 139.390625 568.453125 139.390625 568.453125 C 139.390625 568.429688 139.386719 568.410156 139.382812 568.386719 C 139.382812 568.386719 139.378906 568.382812 139.378906 568.378906 C 139.378906 568.371094 139.375 568.363281 139.371094 568.355469 C 139.371094 568.355469 139.371094 568.351562 139.367188 568.347656 C 139.363281 568.339844 139.359375 568.332031 139.355469 568.324219 C 139.355469 568.320312 139.355469 568.320312 139.355469 568.320312 C 139.355469 568.320312 139.355469 568.320312 139.355469 568.316406 C 139.347656 568.308594 139.34375 568.300781 139.335938 568.292969 C 139.335938 568.289062 139.332031 568.289062 139.332031 568.285156 C 139.324219 568.277344 139.320312 568.273438 139.3125 568.265625 C 139.3125 568.265625 139.308594 568.261719 139.308594 568.261719 C 139.300781 568.253906 139.292969 568.246094 139.285156 568.242188 C 139.285156 568.242188 139.285156 568.242188 139.285156 568.238281 C 139.277344 568.234375 139.265625 568.226562 139.257812 568.222656 C 139.253906 568.21875 139.253906 568.21875 139.25 568.21875 C 139.246094 568.214844 139.238281 568.210938 139.230469 568.207031 C 139.226562 568.207031 139.222656 568.203125 139.222656 568.203125 C 139.210938 568.199219 139.203125 568.199219 139.195312 568.195312 C 139.195312 568.195312 139.191406 568.195312 139.191406 568.195312 C 139.179688 568.191406 139.171875 568.1875 139.160156 568.1875 C 139.15625 568.1875 139.15625 568.1875 139.152344 568.1875 C 139.144531 568.1875 139.132812 568.183594 139.125 568.183594 C 139.125 568.183594 139.121094 568.183594 139.121094 568.183594 L 122.027344 568.183594 C 121.914062 568.183594 121.8125 568.257812 121.773438 568.363281 C 121.734375 568.472656 121.769531 568.589844 121.855469 568.664062 L 128.933594 574.386719 L 130.242188 583.269531 C 130.257812 583.382812 130.34375 583.472656 130.457031 583.492188 C 130.472656 583.496094 130.492188 583.5 130.507812 583.5 C 130.601562 583.5 130.691406 583.449219 130.738281 583.363281 L 139.351562 568.59375 Z M 138.125 568.722656 L 129.210938 573.917969 L 122.785156 568.722656 Z M 130.660156 582.429688 L 129.476562 574.382812 L 138.375 569.199219 Z M 130.660156 582.429688 " fill-opacity="1" fill-rule="nonzero"/></g><g fill="#ffffff" fill-opacity="1"><g transform="translate(144.367406, 579.714219)"><g><path d="M 3.796875 0.125 C 3.203125 0.125 2.671875 0.0507812 2.203125 -0.09375 C 1.742188 -0.238281 1.359375 -0.429688 1.046875 -0.671875 C 0.742188 -0.910156 0.507812 -1.171875 0.34375 -1.453125 L 1.28125 -2.59375 L 1.421875 -2.59375 C 1.679688 -2.207031 2.007812 -1.898438 2.40625 -1.671875 C 2.800781 -1.453125 3.265625 -1.34375 3.796875 -1.34375 C 4.242188 -1.34375 4.582031 -1.4375 4.8125 -1.625 C 5.039062 -1.8125 5.15625 -2.078125 5.15625 -2.421875 C 5.15625 -2.617188 5.117188 -2.785156 5.046875 -2.921875 C 4.972656 -3.054688 4.847656 -3.171875 4.671875 -3.265625 C 4.503906 -3.367188 4.273438 -3.457031 3.984375 -3.53125 L 2.890625 -3.78125 C 2.117188 -3.957031 1.546875 -4.25 1.171875 -4.65625 C 0.796875 -5.0625 0.609375 -5.59375 0.609375 -6.25 C 0.609375 -6.726562 0.726562 -7.148438 0.96875 -7.515625 C 1.207031 -7.878906 1.554688 -8.160156 2.015625 -8.359375 C 2.484375 -8.566406 3.039062 -8.671875 3.6875 -8.671875 C 4.34375 -8.671875 4.90625 -8.582031 5.375 -8.40625 C 5.84375 -8.238281 6.238281 -7.976562 6.5625 -7.625 L 5.734375 -6.46875 L 5.578125 -6.46875 C 5.335938 -6.726562 5.0625 -6.921875 4.75 -7.046875 C 4.4375 -7.171875 4.082031 -7.234375 3.6875 -7.234375 C 3.21875 -7.234375 2.863281 -7.148438 2.625 -6.984375 C 2.382812 -6.816406 2.265625 -6.59375 2.265625 -6.3125 C 2.265625 -6.039062 2.347656 -5.820312 2.515625 -5.65625 C 2.679688 -5.5 2.972656 -5.378906 3.390625 -5.296875 L 4.515625 -5.0625 C 5.347656 -4.882812 5.953125 -4.582031 6.328125 -4.15625 C 6.703125 -3.738281 6.890625 -3.191406 6.890625 -2.515625 C 6.890625 -1.984375 6.773438 -1.519531 6.546875 -1.125 C 6.316406 -0.726562 5.96875 -0.421875 5.5 -0.203125 C 5.03125 0.015625 4.460938 0.125 3.796875 0.125 Z M 3.796875 0.125 "/></g></g><g transform="translate(151.714222, 579.714219)"><g><path d="M 0.9375 0 L 0.9375 -9.046875 L 2.546875 -9.046875 L 2.546875 -5.609375 L 2.671875 -5.59375 C 2.890625 -5.90625 3.15625 -6.144531 3.46875 -6.3125 C 3.78125 -6.488281 4.15625 -6.578125 4.59375 -6.578125 C 6.019531 -6.578125 6.734375 -5.769531 6.734375 -4.15625 L 6.734375 0 L 5.109375 0 L 5.109375 -3.953125 C 5.109375 -4.390625 5.019531 -4.707031 4.84375 -4.90625 C 4.664062 -5.101562 4.394531 -5.203125 4.03125 -5.203125 C 3.570312 -5.203125 3.207031 -5.050781 2.9375 -4.75 C 2.675781 -4.445312 2.546875 -3.976562 2.546875 -3.34375 L 2.546875 0 Z M 0.9375 0 "/></g></g><g transform="translate(159.271615, 579.714219)"><g><path d="M 2.515625 0.125 C 2.097656 0.125 1.738281 0.0507812 1.4375 -0.09375 C 1.132812 -0.25 0.898438 -0.472656 0.734375 -0.765625 C 0.566406 -1.066406 0.484375 -1.425781 0.484375 -1.84375 C 0.484375 -2.21875 0.566406 -2.535156 0.734375 -2.796875 C 0.898438 -3.054688 1.15625 -3.269531 1.5 -3.4375 C 1.84375 -3.601562 2.289062 -3.734375 2.84375 -3.828125 C 3.226562 -3.890625 3.519531 -3.957031 3.71875 -4.03125 C 3.925781 -4.101562 4.0625 -4.1875 4.125 -4.28125 C 4.195312 -4.375 4.234375 -4.492188 4.234375 -4.640625 C 4.234375 -4.835938 4.160156 -4.988281 4.015625 -5.09375 C 3.867188 -5.207031 3.628906 -5.265625 3.296875 -5.265625 C 2.941406 -5.265625 2.601562 -5.1875 2.28125 -5.03125 C 1.957031 -4.875 1.675781 -4.664062 1.4375 -4.40625 L 1.3125 -4.40625 L 0.640625 -5.421875 C 0.960938 -5.785156 1.359375 -6.066406 1.828125 -6.265625 C 2.304688 -6.472656 2.820312 -6.578125 3.375 -6.578125 C 4.226562 -6.578125 4.847656 -6.394531 5.234375 -6.03125 C 5.617188 -5.664062 5.8125 -5.148438 5.8125 -4.484375 L 5.8125 -1.6875 C 5.8125 -1.394531 5.9375 -1.25 6.1875 -1.25 C 6.289062 -1.25 6.390625 -1.269531 6.484375 -1.3125 L 6.5625 -1.28125 L 6.671875 -0.15625 C 6.585938 -0.09375 6.460938 -0.0390625 6.296875 0 C 6.140625 0.03125 5.96875 0.046875 5.78125 0.046875 C 5.394531 0.046875 5.09375 -0.0234375 4.875 -0.171875 C 4.65625 -0.316406 4.5 -0.550781 4.40625 -0.875 L 4.28125 -0.890625 C 3.96875 -0.210938 3.378906 0.125 2.515625 0.125 Z M 3.03125 -1.09375 C 3.40625 -1.09375 3.703125 -1.21875 3.921875 -1.46875 C 4.148438 -1.71875 4.265625 -2.066406 4.265625 -2.515625 L 4.265625 -3.171875 L 4.15625 -3.1875 C 4.0625 -3.113281 3.929688 -3.050781 3.765625 -3 C 3.609375 -2.945312 3.382812 -2.894531 3.09375 -2.84375 C 2.738281 -2.78125 2.484375 -2.675781 2.328125 -2.53125 C 2.171875 -2.394531 2.09375 -2.195312 2.09375 -1.9375 C 2.09375 -1.65625 2.175781 -1.441406 2.34375 -1.296875 C 2.507812 -1.160156 2.738281 -1.09375 3.03125 -1.09375 Z M 3.03125 -1.09375 "/></g></g><g transform="translate(166.074439, 579.714219)"><g><path d="M 0.9375 0 L 0.9375 -6.453125 L 2.5 -6.453125 L 2.5 -5.5 L 2.625 -5.46875 C 2.78125 -5.832031 2.984375 -6.097656 3.234375 -6.265625 C 3.492188 -6.429688 3.804688 -6.515625 4.171875 -6.515625 C 4.535156 -6.515625 4.8125 -6.453125 5 -6.328125 L 4.734375 -4.921875 L 4.609375 -4.90625 C 4.503906 -4.945312 4.398438 -4.976562 4.296875 -5 C 4.203125 -5.019531 4.082031 -5.03125 3.9375 -5.03125 C 3.488281 -5.03125 3.144531 -4.867188 2.90625 -4.546875 C 2.664062 -4.234375 2.546875 -3.722656 2.546875 -3.015625 L 2.546875 0 Z M 0.9375 0 "/></g></g></g><g fill="#ffffff" fill-opacity="1"><g transform="translate(170.964518, 579.714219)"><g><path d="M 6.375 -2.859375 L 2.234375 -2.859375 C 2.273438 -2.296875 2.429688 -1.882812 2.703125 -1.625 C 2.984375 -1.375 3.359375 -1.25 3.828125 -1.25 C 4.203125 -1.25 4.503906 -1.316406 4.734375 -1.453125 C 4.960938 -1.597656 5.144531 -1.8125 5.28125 -2.09375 L 5.40625 -2.09375 L 6.484375 -1.40625 C 6.273438 -0.945312 5.957031 -0.578125 5.53125 -0.296875 C 5.101562 -0.015625 4.535156 0.125 3.828125 0.125 C 3.160156 0.125 2.582031 0 2.09375 -0.25 C 1.613281 -0.507812 1.238281 -0.890625 0.96875 -1.390625 C 0.707031 -1.890625 0.578125 -2.5 0.578125 -3.21875 C 0.578125 -3.957031 0.710938 -4.578125 0.984375 -5.078125 C 1.265625 -5.578125 1.640625 -5.953125 2.109375 -6.203125 C 2.585938 -6.453125 3.117188 -6.578125 3.703125 -6.578125 C 4.617188 -6.578125 5.316406 -6.332031 5.796875 -5.84375 C 6.285156 -5.363281 6.53125 -4.65625 6.53125 -3.71875 C 6.53125 -3.382812 6.519531 -3.125 6.5 -2.9375 Z M 4.984375 -3.90625 C 4.972656 -4.394531 4.859375 -4.75 4.640625 -4.96875 C 4.429688 -5.195312 4.117188 -5.3125 3.703125 -5.3125 C 2.890625 -5.3125 2.410156 -4.84375 2.265625 -3.90625 Z M 4.984375 -3.90625 "/></g></g></g><g transform="matrix(1, 0, 0, 1, 57, 271)"><g clip-path="url(#1c65fa240b)"><g clip-path="url(#aefd75df4e)"><g transform="matrix(1, 0, 0, 1, 1, 0)"><g clip-path="url(#7e7464f75a)"><g clip-path="url(#a4f36f83ab)"><path fill="#1f8f3a" d="M 0.125 0.167969 L 252.679688 0.167969 L 252.679688 50.363281 L 0.125 50.363281 Z M 0.125 0.167969 " fill-opacity="1" fill-rule="nonzero"/></g></g></g></g><g clip-path="url(#f45a33faab)"><g clip-path="url(#9a5dbc42d6)"><g transform="matrix(1, 0, 0, 1, 124, 4)"><g clip-path="url(#09b8c150be)"><g clip-path="url(#629702bbfc)"><g clip-path="url(#7312236504)"><path fill="#000000" d="M 0.84375 0.640625 L 42.097656 0.640625 L 42.097656 41.890625 L 0.84375 41.890625 Z M 0.84375 0.640625 " fill-opacity="1" fill-rule="nonzero"/></g></g></g></g></g></g><g clip-path="url(#a44eee1afd)"><g clip-path="url(#bb910bd18e)"><g transform="matrix(1, 0, 0, 1, 67, 4)"><g clip-path="url(#8653331130)"><g clip-path="url(#edf71ad793)"><g clip-path="url(#db591ba27e)"><path fill="#000000" d="M 0.941406 0.640625 L 42.195312 0.640625 L 42.195312 41.890625 L 0.941406 41.890625 Z M 0.941406 0.640625 " fill-opacity="1" fill-rule="nonzero"/></g></g></g></g></g></g><g clip-path="url(#ff6373022e)"><path fill="#ffffff" d="M 98.667969 34.9375 L 98.675781 34.9375 Z M 80.640625 14.925781 C 80.414062 14.925781 80.199219 15.027344 79.964844 15.234375 C 79.9375 15.257812 79.601562 15.574219 79.382812 15.785156 L 79.195312 15.964844 C 78.082031 17.003906 77.578125 18.875 77.910156 20.730469 C 78.015625 21.332031 78.1875 21.953125 78.421875 22.578125 C 79.597656 25.734375 81.828125 28.480469 83.492188 30.226562 C 85.152344 31.984375 87.773438 34.359375 90.863281 35.703125 C 91.472656 35.96875 92.085938 36.175781 92.679688 36.3125 C 94.515625 36.746094 96.410156 36.339844 97.507812 35.285156 L 97.691406 35.113281 C 97.902344 34.914062 98.234375 34.597656 98.28125 34.554688 C 98.964844 33.851562 98.625 33.265625 97.253906 31.871094 L 96.910156 31.519531 C 96.042969 30.621094 94.589844 29.113281 93.355469 29.257812 C 93.023438 29.296875 92.671875 29.542969 92.304688 29.800781 C 91.9375 30.058594 91.554688 30.320312 91.101562 30.464844 C 89.878906 30.855469 88.640625 30.597656 87.609375 29.75 C 86.996094 29.242188 86.367188 28.648438 85.800781 28.035156 C 85.222656 27.441406 84.664062 26.785156 84.191406 26.144531 C 83.398438 25.070312 83.210938 23.820312 83.664062 22.621094 C 83.832031 22.171875 84.117188 21.808594 84.394531 21.457031 C 84.671875 21.101562 84.933594 20.765625 84.988281 20.433594 C 85.203125 19.207031 83.773438 17.675781 82.921875 16.761719 L 82.589844 16.398438 C 81.683594 15.410156 81.136719 14.925781 80.640625 14.925781 Z M 94.160156 37.574219 C 93.546875 37.574219 92.957031 37.5 92.429688 37.375 C 91.773438 37.222656 91.097656 36.996094 90.425781 36.703125 C 87.167969 35.285156 84.429688 32.808594 82.703125 30.976562 C 80.96875 29.160156 78.640625 26.289062 77.402344 22.960938 C 77.144531 22.273438 76.953125 21.585938 76.835938 20.921875 C 76.523438 19.164062 76.78125 16.726562 78.449219 15.167969 L 78.632812 14.992188 C 78.867188 14.773438 79.226562 14.429688 79.242188 14.417969 C 80.910156 12.949219 82.40625 14.582031 83.394531 15.664062 L 83.71875 16.019531 C 84.710938 17.082031 86.367188 18.859375 86.0625 20.617188 C 85.960938 21.21875 85.582031 21.703125 85.253906 22.125 C 85.015625 22.429688 84.792969 22.714844 84.683594 23.003906 C 84.363281 23.859375 84.496094 24.71875 85.070312 25.496094 C 85.511719 26.097656 86.039062 26.71875 86.589844 27.285156 C 87.136719 27.875 87.726562 28.433594 88.304688 28.910156 C 89.046875 29.523438 89.902344 29.703125 90.773438 29.429688 C 91.070312 29.332031 91.363281 29.125 91.679688 28.90625 C 92.121094 28.597656 92.621094 28.25 93.230469 28.175781 C 95.003906 27.96875 96.6875 29.71875 97.695312 30.765625 L 98.03125 31.109375 C 99.058594 32.152344 100.609375 33.730469 99.058594 35.320312 C 99.035156 35.34375 98.671875 35.6875 98.441406 35.90625 L 98.261719 36.074219 C 97.117188 37.175781 95.578125 37.574219 94.160156 37.574219 " fill-opacity="1" fill-rule="nonzero"/></g><g clip-path="url(#451953296c)"><path fill="#ffffff" d="M 136.027344 33.0625 C 135.675781 33.0625 135.34375 32.964844 135.058594 32.777344 L 141.890625 25.777344 L 144.09375 28.015625 C 144.453125 28.386719 144.9375 28.589844 145.457031 28.589844 C 145.972656 28.589844 146.457031 28.386719 146.820312 28.019531 L 149.027344 25.777344 L 155.871094 32.777344 C 155.585938 32.964844 155.253906 33.0625 154.90625 33.0625 Z M 134.519531 32.230469 C 134.34375 31.949219 134.25 31.625 134.25 31.289062 L 134.25 19.222656 C 134.25 18.882812 134.34375 18.558594 134.523438 18.28125 L 141.351562 25.226562 Z M 136.027344 17.449219 L 154.90625 17.449219 C 155.253906 17.449219 155.585938 17.546875 155.867188 17.734375 L 148.753906 24.957031 L 146.269531 27.476562 C 146.054688 27.699219 145.765625 27.820312 145.457031 27.820312 C 145.148438 27.820312 144.855469 27.699219 144.640625 27.476562 L 142.164062 24.957031 L 135.0625 17.734375 C 135.347656 17.546875 135.679688 17.449219 136.027344 17.449219 Z M 149.566406 25.226562 L 156.410156 18.28125 C 156.585938 18.558594 156.679688 18.882812 156.679688 19.222656 L 156.679688 31.289062 C 156.679688 31.628906 156.585938 31.949219 156.410156 32.230469 Z M 156.710938 17.433594 C 156.710938 17.429688 156.710938 17.429688 156.710938 17.429688 C 156.230469 16.945312 155.589844 16.679688 154.90625 16.679688 L 136.027344 16.679688 C 135.34375 16.679688 134.703125 16.949219 134.222656 17.433594 C 134.21875 17.433594 134.21875 17.433594 134.21875 17.433594 C 133.742188 17.910156 133.480469 18.546875 133.480469 19.222656 L 133.480469 31.289062 C 133.480469 31.964844 133.742188 32.601562 134.21875 33.078125 C 134.21875 33.078125 134.21875 33.082031 134.222656 33.082031 C 134.222656 33.082031 134.222656 33.082031 134.222656 33.085938 C 134.703125 33.566406 135.34375 33.832031 136.027344 33.832031 L 154.90625 33.832031 C 155.589844 33.832031 156.226562 33.566406 156.707031 33.085938 C 156.707031 33.082031 156.707031 33.082031 156.707031 33.082031 C 156.710938 33.082031 156.710938 33.082031 156.710938 33.082031 C 156.710938 33.082031 156.710938 33.082031 156.714844 33.078125 C 157.1875 32.601562 157.449219 31.964844 157.449219 31.289062 L 157.449219 19.222656 C 157.449219 18.546875 157.1875 17.910156 156.710938 17.433594 " fill-opacity="1" fill-rule="nonzero"/></g><g clip-path="url(#fd88270890)"><g clip-path="url(#a36aabd78f)"><g transform="matrix(1, 0, 0, 1, 181, 4)"><g clip-path="url(#fb4a3de46c)"><g clip-path="url(#dc70f1b616)"><g clip-path="url(#e61f4bed2b)"><path fill="#000000" d="M 0.648438 0.640625 L 41.902344 0.640625 L 41.902344 41.890625 L 0.648438 41.890625 Z M 0.648438 0.640625 " fill-opacity="1" fill-rule="nonzero"/></g></g></g></g></g></g><g clip-path="url(#4c6ed01a1e)"><path fill="#ffffff" d="M 209.5 18.457031 C 207.679688 16.640625 205.265625 15.640625 202.695312 15.640625 C 200.125 15.640625 197.707031 16.640625 195.890625 18.457031 C 194.070312 20.277344 193.070312 22.691406 193.070312 25.261719 C 193.070312 27.832031 194.070312 30.25 195.890625 32.066406 C 197.707031 33.886719 200.125 34.886719 202.695312 34.886719 C 205.265625 34.886719 207.679688 33.886719 209.5 32.066406 C 211.316406 30.25 212.316406 27.832031 212.316406 25.261719 C 212.316406 22.691406 211.316406 20.277344 209.5 18.457031 Z M 194.132812 25.261719 C 194.132812 24.191406 194.332031 23.164062 194.695312 22.21875 L 198.15625 22.21875 C 198 23.1875 197.921875 24.210938 197.921875 25.261719 C 197.921875 26.277344 197.996094 27.269531 198.140625 28.210938 L 194.65625 28.210938 C 194.320312 27.289062 194.132812 26.296875 194.132812 25.261719 Z M 198.984375 25.261719 C 198.984375 24.207031 199.070312 23.179688 199.234375 22.21875 L 202.160156 22.21875 L 202.160156 28.210938 L 199.21875 28.210938 C 199.0625 27.277344 198.984375 26.285156 198.984375 25.261719 Z M 205.210938 19.058594 C 205.503906 19.683594 205.746094 20.390625 205.933594 21.15625 L 203.226562 21.15625 L 203.226562 16.804688 C 203.949219 17.066406 204.648438 17.859375 205.210938 19.058594 Z M 202.160156 16.804688 L 202.160156 21.15625 L 199.453125 21.15625 C 199.644531 20.390625 199.886719 19.683594 200.175781 19.058594 C 200.738281 17.859375 201.441406 17.066406 202.160156 16.804688 Z M 202.160156 29.273438 L 202.160156 33.722656 C 201.441406 33.460938 200.738281 32.667969 200.175781 31.464844 C 199.871094 30.816406 199.621094 30.074219 199.429688 29.273438 Z M 203.226562 33.722656 L 203.226562 29.273438 L 205.957031 29.273438 C 205.765625 30.074219 205.515625 30.816406 205.210938 31.464844 C 204.648438 32.667969 203.949219 33.460938 203.226562 33.722656 Z M 203.226562 28.210938 L 203.226562 22.21875 L 206.152344 22.21875 C 206.316406 23.179688 206.402344 24.207031 206.402344 25.261719 C 206.402344 26.285156 206.324219 27.277344 206.167969 28.210938 Z M 207.230469 22.21875 L 210.691406 22.21875 C 211.054688 23.164062 211.253906 24.191406 211.253906 25.261719 C 211.253906 26.296875 211.066406 27.289062 210.730469 28.210938 L 207.246094 28.210938 C 207.390625 27.269531 207.46875 26.277344 207.46875 25.261719 C 207.46875 24.210938 207.386719 23.1875 207.230469 22.21875 Z M 210.199219 21.15625 L 207.023438 21.15625 C 206.8125 20.226562 206.527344 19.367188 206.175781 18.609375 C 205.902344 18.023438 205.597656 17.519531 205.265625 17.097656 C 207.382812 17.765625 209.148438 19.238281 210.199219 21.15625 Z M 200.121094 17.097656 C 199.792969 17.519531 199.484375 18.023438 199.210938 18.609375 C 198.859375 19.367188 198.574219 20.226562 198.363281 21.15625 L 195.1875 21.15625 C 196.238281 19.238281 198.003906 17.765625 200.121094 17.097656 Z M 195.136719 29.273438 L 198.339844 29.273438 C 198.554688 30.242188 198.847656 31.132812 199.210938 31.917969 C 199.484375 32.503906 199.792969 33.007812 200.121094 33.425781 C 197.96875 32.746094 196.179688 31.238281 195.136719 29.273438 Z M 205.265625 33.425781 C 205.597656 33.007812 205.902344 32.503906 206.175781 31.917969 C 206.539062 31.132812 206.832031 30.242188 207.046875 29.273438 L 210.253906 29.273438 C 209.207031 31.238281 207.417969 32.746094 205.265625 33.425781 Z M 205.265625 33.425781 " fill-opacity="1" fill-rule="nonzero"/></g></g></g></svg>
