<svg xmlns="http://www.w3.org/2000/svg" xmlns:xlink="http://www.w3.org/1999/xlink" width="390" zoomAndPan="magnify" viewBox="0 0 292.5 632.999981" height="844" preserveAspectRatio="xMidYMid meet" version="1.0"><defs><g/><clipPath id="3bbc8fb11e"><path d="M 0 0.539062 L 292 0.539062 L 292 632.457031 L 0 632.457031 Z M 0 0.539062 " clip-rule="nonzero"/></clipPath><clipPath id="7d557f4773"><path d="M 0 0.539062 L 292 0.539062 L 292 282.929688 L 0 282.929688 Z M 0 0.539062 " clip-rule="nonzero"/></clipPath><clipPath id="677075a671"><path d="M -78.851562 0.539062 L 328.738281 0.539062 C 336.183594 0.539062 342.214844 6.574219 342.214844 14.015625 L 342.214844 269.453125 C 342.214844 276.898438 336.183594 282.929688 328.738281 282.929688 L -78.851562 282.929688 C -86.296875 282.929688 -92.328125 276.898438 -92.328125 269.453125 L -92.328125 14.015625 C -92.328125 6.574219 -86.296875 0.539062 -78.851562 0.539062 Z M -78.851562 0.539062 " clip-rule="nonzero"/></clipPath><clipPath id="6317a95e97"><path d="M 0 0.539062 L 292 0.539062 L 292 282.929688 L 0 282.929688 Z M 0 0.539062 " clip-rule="nonzero"/></clipPath><clipPath id="3437266cf2"><path d="M -78.851562 0.539062 L 328.738281 0.539062 C 336.183594 0.539062 342.214844 6.574219 342.214844 14.015625 L 342.214844 269.453125 C 342.214844 276.898438 336.183594 282.929688 328.738281 282.929688 L -78.851562 282.929688 C -86.296875 282.929688 -92.328125 276.898438 -92.328125 269.453125 L -92.328125 14.015625 C -92.328125 6.574219 -86.296875 0.539062 -78.851562 0.539062 Z M -78.851562 0.539062 " clip-rule="nonzero"/></clipPath><clipPath id="0d6bc5c332"><rect x="0" width="292" y="0" height="283"/></clipPath><clipPath id="66be616d81"><path d="M 121.734375 568.183594 L 139.707031 568.183594 L 139.707031 583.160156 L 121.734375 583.160156 Z M 121.734375 568.183594 " clip-rule="nonzero"/></clipPath><clipPath id="27c9d77478"><path d="M 0.6875 0.453125 L 235 0.453125 L 235 50.648438 L 0.6875 50.648438 Z M 0.6875 0.453125 " clip-rule="nonzero"/></clipPath><clipPath id="197b269554"><path d="M 0.6875 0.453125 L 235 0.453125 L 235 50.648438 L 0.6875 50.648438 Z M 0.6875 0.453125 " clip-rule="nonzero"/></clipPath><clipPath id="0eadb92f70"><rect x="0" width="235" y="0" height="51"/></clipPath><clipPath id="80701cdded"><path d="M 124.410156 4.925781 L 165.660156 4.925781 L 165.660156 46.175781 L 124.410156 46.175781 Z M 124.410156 4.925781 " clip-rule="nonzero"/></clipPath><clipPath id="7ae088c7ab"><path d="M 145.035156 4.925781 C 133.644531 4.925781 124.410156 14.160156 124.410156 25.550781 C 124.410156 36.941406 133.644531 46.175781 145.035156 46.175781 C 156.425781 46.175781 165.660156 36.941406 165.660156 25.550781 C 165.660156 14.160156 156.425781 4.925781 145.035156 4.925781 Z M 145.035156 4.925781 " clip-rule="nonzero"/></clipPath><clipPath id="945929d9e2"><path d="M 0.410156 0.925781 L 41.660156 0.925781 L 41.660156 42.175781 L 0.410156 42.175781 Z M 0.410156 0.925781 " clip-rule="nonzero"/></clipPath><clipPath id="76bce337bc"><path d="M 21.035156 0.925781 C 9.644531 0.925781 0.410156 10.160156 0.410156 21.550781 C 0.410156 32.941406 9.644531 42.175781 21.035156 42.175781 C 32.425781 42.175781 41.660156 32.941406 41.660156 21.550781 C 41.660156 10.160156 32.425781 0.925781 21.035156 0.925781 Z M 21.035156 0.925781 " clip-rule="nonzero"/></clipPath><clipPath id="a2273d57f8"><rect x="0" width="42" y="0" height="43"/></clipPath><clipPath id="ad0d6b5b8d"><path d="M 67.507812 4.925781 L 108.761719 4.925781 L 108.761719 46.175781 L 67.507812 46.175781 Z M 67.507812 4.925781 " clip-rule="nonzero"/></clipPath><clipPath id="f66d295cf8"><path d="M 88.132812 4.925781 C 76.742188 4.925781 67.507812 14.160156 67.507812 25.550781 C 67.507812 36.941406 76.742188 46.175781 88.132812 46.175781 C 99.527344 46.175781 108.761719 36.941406 108.761719 25.550781 C 108.761719 14.160156 99.527344 4.925781 88.132812 4.925781 Z M 88.132812 4.925781 " clip-rule="nonzero"/></clipPath><clipPath id="f07d4eb3d4"><path d="M 0.507812 0.925781 L 41.761719 0.925781 L 41.761719 42.175781 L 0.507812 42.175781 Z M 0.507812 0.925781 " clip-rule="nonzero"/></clipPath><clipPath id="5726dbb26d"><path d="M 21.132812 0.925781 C 9.742188 0.925781 0.507812 10.160156 0.507812 21.550781 C 0.507812 32.941406 9.742188 42.175781 21.132812 42.175781 C 32.527344 42.175781 41.761719 32.941406 41.761719 21.550781 C 41.761719 10.160156 32.527344 0.925781 21.132812 0.925781 Z M 21.132812 0.925781 " clip-rule="nonzero"/></clipPath><clipPath id="1c83e3650a"><rect x="0" width="42" y="0" height="43"/></clipPath><clipPath id="1286c438f7"><path d="M 76.070312 14 L 99.804688 14 L 99.804688 37.796875 L 76.070312 37.796875 Z M 76.070312 14 " clip-rule="nonzero"/></clipPath><clipPath id="fa9e231cb0"><path d="M 133.046875 16.964844 L 156.78125 16.964844 L 156.78125 34.152344 L 133.046875 34.152344 Z M 133.046875 16.964844 " clip-rule="nonzero"/></clipPath><clipPath id="a83c80c35d"><path d="M 181.210938 4.925781 L 222.464844 4.925781 L 222.464844 46.175781 L 181.210938 46.175781 Z M 181.210938 4.925781 " clip-rule="nonzero"/></clipPath><clipPath id="ffa46764fb"><path d="M 201.839844 4.925781 C 190.449219 4.925781 181.210938 14.160156 181.210938 25.550781 C 181.210938 36.941406 190.449219 46.175781 201.839844 46.175781 C 213.230469 46.175781 222.464844 36.941406 222.464844 25.550781 C 222.464844 14.160156 213.230469 4.925781 201.839844 4.925781 Z M 201.839844 4.925781 " clip-rule="nonzero"/></clipPath><clipPath id="a1a1092356"><path d="M 0.210938 0.925781 L 41.464844 0.925781 L 41.464844 42.175781 L 0.210938 42.175781 Z M 0.210938 0.925781 " clip-rule="nonzero"/></clipPath><clipPath id="7f41879610"><path d="M 20.839844 0.925781 C 9.449219 0.925781 0.210938 10.160156 0.210938 21.550781 C 0.210938 32.941406 9.449219 42.175781 20.839844 42.175781 C 32.230469 42.175781 41.464844 32.941406 41.464844 21.550781 C 41.464844 10.160156 32.230469 0.925781 20.839844 0.925781 Z M 20.839844 0.925781 " clip-rule="nonzero"/></clipPath><clipPath id="3b8158f92e"><rect x="0" width="42" y="0" height="43"/></clipPath><clipPath id="c2b76e9855"><path d="M 192.632812 15.925781 L 212 15.925781 L 212 35.570312 L 192.632812 35.570312 Z M 192.632812 15.925781 " clip-rule="nonzero"/></clipPath><clipPath id="f93ca82321"><rect x="0" width="235" y="0" height="51"/></clipPath></defs><g clip-path="url(#3bbc8fb11e)"><path fill="#ffffff" d="M 0 0.539062 L 292 0.539062 L 292 632.460938 L 0 632.460938 Z M 0 0.539062 " fill-opacity="1" fill-rule="nonzero"/><path fill="#ffffff" d="M 0 0.539062 L 292 0.539062 L 292 632.460938 L 0 632.460938 Z M 0 0.539062 " fill-opacity="1" fill-rule="nonzero"/></g><g clip-path="url(#7d557f4773)"><g clip-path="url(#677075a671)"><g transform="matrix(1, 0, 0, 1, 0, -0.000000000000015987)"><g clip-path="url(#0d6bc5c332)"><g clip-path="url(#6317a95e97)"><g clip-path="url(#3437266cf2)"><path fill="#000000" d="M -92.328125 0.539062 L 342.289062 0.539062 L 342.289062 282.929688 L -92.328125 282.929688 Z M -92.328125 0.539062 " fill-opacity="1" fill-rule="nonzero"/></g></g></g></g></g></g><g clip-path="url(#66be616d81)"><path fill="#ffffff" d="M 139.355469 568.589844 C 139.355469 568.585938 139.355469 568.585938 139.355469 568.585938 C 139.359375 568.578125 139.363281 568.570312 139.367188 568.5625 C 139.367188 568.558594 139.371094 568.554688 139.371094 568.554688 C 139.375 568.542969 139.378906 568.535156 139.378906 568.527344 C 139.378906 568.523438 139.378906 568.523438 139.382812 568.523438 C 139.382812 568.511719 139.386719 568.503906 139.386719 568.492188 C 139.386719 568.488281 139.386719 568.488281 139.386719 568.484375 C 139.390625 568.476562 139.390625 568.46875 139.390625 568.460938 C 139.390625 568.457031 139.390625 568.453125 139.390625 568.453125 C 139.390625 568.429688 139.386719 568.410156 139.382812 568.386719 C 139.382812 568.386719 139.378906 568.382812 139.378906 568.378906 C 139.378906 568.371094 139.375 568.363281 139.371094 568.355469 C 139.371094 568.355469 139.371094 568.351562 139.367188 568.347656 C 139.363281 568.339844 139.359375 568.332031 139.355469 568.324219 C 139.355469 568.320312 139.355469 568.320312 139.355469 568.320312 C 139.355469 568.320312 139.355469 568.320312 139.355469 568.316406 C 139.347656 568.308594 139.34375 568.300781 139.335938 568.292969 C 139.335938 568.289062 139.332031 568.289062 139.332031 568.285156 C 139.324219 568.277344 139.320312 568.273438 139.3125 568.265625 C 139.3125 568.265625 139.308594 568.261719 139.308594 568.261719 C 139.300781 568.253906 139.292969 568.246094 139.285156 568.242188 C 139.285156 568.242188 139.285156 568.242188 139.285156 568.238281 C 139.277344 568.234375 139.265625 568.226562 139.257812 568.222656 C 139.253906 568.21875 139.253906 568.21875 139.25 568.21875 C 139.246094 568.214844 139.238281 568.210938 139.230469 568.207031 C 139.226562 568.207031 139.222656 568.203125 139.222656 568.203125 C 139.210938 568.199219 139.203125 568.199219 139.195312 568.195312 C 139.195312 568.195312 139.191406 568.195312 139.191406 568.195312 C 139.179688 568.191406 139.171875 568.1875 139.160156 568.1875 C 139.15625 568.1875 139.15625 568.1875 139.152344 568.1875 C 139.144531 568.1875 139.132812 568.183594 139.125 568.183594 C 139.125 568.183594 139.121094 568.183594 139.121094 568.183594 L 122.027344 568.183594 C 121.914062 568.183594 121.8125 568.257812 121.773438 568.363281 C 121.734375 568.472656 121.769531 568.589844 121.855469 568.664062 L 128.933594 574.386719 L 130.242188 583.269531 C 130.257812 583.382812 130.34375 583.472656 130.457031 583.492188 C 130.472656 583.496094 130.492188 583.5 130.507812 583.5 C 130.601562 583.5 130.691406 583.449219 130.738281 583.363281 L 139.351562 568.59375 Z M 138.125 568.722656 L 129.210938 573.917969 L 122.785156 568.722656 Z M 130.660156 582.429688 L 129.476562 574.382812 L 138.375 569.199219 Z M 130.660156 582.429688 " fill-opacity="1" fill-rule="nonzero"/></g><g fill="#ffffff" fill-opacity="1"><g transform="translate(144.367406, 579.714219)"><g><path d="M 3.796875 0.125 C 3.203125 0.125 2.671875 0.0507812 2.203125 -0.09375 C 1.742188 -0.238281 1.359375 -0.429688 1.046875 -0.671875 C 0.742188 -0.910156 0.507812 -1.171875 0.34375 -1.453125 L 1.28125 -2.59375 L 1.421875 -2.59375 C 1.679688 -2.207031 2.007812 -1.898438 2.40625 -1.671875 C 2.800781 -1.453125 3.265625 -1.34375 3.796875 -1.34375 C 4.242188 -1.34375 4.582031 -1.4375 4.8125 -1.625 C 5.039062 -1.8125 5.15625 -2.078125 5.15625 -2.421875 C 5.15625 -2.617188 5.117188 -2.785156 5.046875 -2.921875 C 4.972656 -3.054688 4.847656 -3.171875 4.671875 -3.265625 C 4.503906 -3.367188 4.273438 -3.457031 3.984375 -3.53125 L 2.890625 -3.78125 C 2.117188 -3.957031 1.546875 -4.25 1.171875 -4.65625 C 0.796875 -5.0625 0.609375 -5.59375 0.609375 -6.25 C 0.609375 -6.726562 0.726562 -7.148438 0.96875 -7.515625 C 1.207031 -7.878906 1.554688 -8.160156 2.015625 -8.359375 C 2.484375 -8.566406 3.039062 -8.671875 3.6875 -8.671875 C 4.34375 -8.671875 4.90625 -8.582031 5.375 -8.40625 C 5.84375 -8.238281 6.238281 -7.976562 6.5625 -7.625 L 5.734375 -6.46875 L 5.578125 -6.46875 C 5.335938 -6.726562 5.0625 -6.921875 4.75 -7.046875 C 4.4375 -7.171875 4.082031 -7.234375 3.6875 -7.234375 C 3.21875 -7.234375 2.863281 -7.148438 2.625 -6.984375 C 2.382812 -6.816406 2.265625 -6.59375 2.265625 -6.3125 C 2.265625 -6.039062 2.347656 -5.820312 2.515625 -5.65625 C 2.679688 -5.5 2.972656 -5.378906 3.390625 -5.296875 L 4.515625 -5.0625 C 5.347656 -4.882812 5.953125 -4.582031 6.328125 -4.15625 C 6.703125 -3.738281 6.890625 -3.191406 6.890625 -2.515625 C 6.890625 -1.984375 6.773438 -1.519531 6.546875 -1.125 C 6.316406 -0.726562 5.96875 -0.421875 5.5 -0.203125 C 5.03125 0.015625 4.460938 0.125 3.796875 0.125 Z M 3.796875 0.125 "/></g></g><g transform="translate(151.714222, 579.714219)"><g><path d="M 0.9375 0 L 0.9375 -9.046875 L 2.546875 -9.046875 L 2.546875 -5.609375 L 2.671875 -5.59375 C 2.890625 -5.90625 3.15625 -6.144531 3.46875 -6.3125 C 3.78125 -6.488281 4.15625 -6.578125 4.59375 -6.578125 C 6.019531 -6.578125 6.734375 -5.769531 6.734375 -4.15625 L 6.734375 0 L 5.109375 0 L 5.109375 -3.953125 C 5.109375 -4.390625 5.019531 -4.707031 4.84375 -4.90625 C 4.664062 -5.101562 4.394531 -5.203125 4.03125 -5.203125 C 3.570312 -5.203125 3.207031 -5.050781 2.9375 -4.75 C 2.675781 -4.445312 2.546875 -3.976562 2.546875 -3.34375 L 2.546875 0 Z M 0.9375 0 "/></g></g><g transform="translate(159.271615, 579.714219)"><g><path d="M 2.515625 0.125 C 2.097656 0.125 1.738281 0.0507812 1.4375 -0.09375 C 1.132812 -0.25 0.898438 -0.472656 0.734375 -0.765625 C 0.566406 -1.066406 0.484375 -1.425781 0.484375 -1.84375 C 0.484375 -2.21875 0.566406 -2.535156 0.734375 -2.796875 C 0.898438 -3.054688 1.15625 -3.269531 1.5 -3.4375 C 1.84375 -3.601562 2.289062 -3.734375 2.84375 -3.828125 C 3.226562 -3.890625 3.519531 -3.957031 3.71875 -4.03125 C 3.925781 -4.101562 4.0625 -4.1875 4.125 -4.28125 C 4.195312 -4.375 4.234375 -4.492188 4.234375 -4.640625 C 4.234375 -4.835938 4.160156 -4.988281 4.015625 -5.09375 C 3.867188 -5.207031 3.628906 -5.265625 3.296875 -5.265625 C 2.941406 -5.265625 2.601562 -5.1875 2.28125 -5.03125 C 1.957031 -4.875 1.675781 -4.664062 1.4375 -4.40625 L 1.3125 -4.40625 L 0.640625 -5.421875 C 0.960938 -5.785156 1.359375 -6.066406 1.828125 -6.265625 C 2.304688 -6.472656 2.820312 -6.578125 3.375 -6.578125 C 4.226562 -6.578125 4.847656 -6.394531 5.234375 -6.03125 C 5.617188 -5.664062 5.8125 -5.148438 5.8125 -4.484375 L 5.8125 -1.6875 C 5.8125 -1.394531 5.9375 -1.25 6.1875 -1.25 C 6.289062 -1.25 6.390625 -1.269531 6.484375 -1.3125 L 6.5625 -1.28125 L 6.671875 -0.15625 C 6.585938 -0.09375 6.460938 -0.0390625 6.296875 0 C 6.140625 0.03125 5.96875 0.046875 5.78125 0.046875 C 5.394531 0.046875 5.09375 -0.0234375 4.875 -0.171875 C 4.65625 -0.316406 4.5 -0.550781 4.40625 -0.875 L 4.28125 -0.890625 C 3.96875 -0.210938 3.378906 0.125 2.515625 0.125 Z M 3.03125 -1.09375 C 3.40625 -1.09375 3.703125 -1.21875 3.921875 -1.46875 C 4.148438 -1.71875 4.265625 -2.066406 4.265625 -2.515625 L 4.265625 -3.171875 L 4.15625 -3.1875 C 4.0625 -3.113281 3.929688 -3.050781 3.765625 -3 C 3.609375 -2.945312 3.382812 -2.894531 3.09375 -2.84375 C 2.738281 -2.78125 2.484375 -2.675781 2.328125 -2.53125 C 2.171875 -2.394531 2.09375 -2.195312 2.09375 -1.9375 C 2.09375 -1.65625 2.175781 -1.441406 2.34375 -1.296875 C 2.507812 -1.160156 2.738281 -1.09375 3.03125 -1.09375 Z M 3.03125 -1.09375 "/></g></g><g transform="translate(166.074439, 579.714219)"><g><path d="M 0.9375 0 L 0.9375 -6.453125 L 2.5 -6.453125 L 2.5 -5.5 L 2.625 -5.46875 C 2.78125 -5.832031 2.984375 -6.097656 3.234375 -6.265625 C 3.492188 -6.429688 3.804688 -6.515625 4.171875 -6.515625 C 4.535156 -6.515625 4.8125 -6.453125 5 -6.328125 L 4.734375 -4.921875 L 4.609375 -4.90625 C 4.503906 -4.945312 4.398438 -4.976562 4.296875 -5 C 4.203125 -5.019531 4.082031 -5.03125 3.9375 -5.03125 C 3.488281 -5.03125 3.144531 -4.867188 2.90625 -4.546875 C 2.664062 -4.234375 2.546875 -3.722656 2.546875 -3.015625 L 2.546875 0 Z M 0.9375 0 "/></g></g></g><g fill="#ffffff" fill-opacity="1"><g transform="translate(170.964518, 579.714219)"><g><path d="M 6.375 -2.859375 L 2.234375 -2.859375 C 2.273438 -2.296875 2.429688 -1.882812 2.703125 -1.625 C 2.984375 -1.375 3.359375 -1.25 3.828125 -1.25 C 4.203125 -1.25 4.503906 -1.316406 4.734375 -1.453125 C 4.960938 -1.597656 5.144531 -1.8125 5.28125 -2.09375 L 5.40625 -2.09375 L 6.484375 -1.40625 C 6.273438 -0.945312 5.957031 -0.578125 5.53125 -0.296875 C 5.101562 -0.015625 4.535156 0.125 3.828125 0.125 C 3.160156 0.125 2.582031 0 2.09375 -0.25 C 1.613281 -0.507812 1.238281 -0.890625 0.96875 -1.390625 C 0.707031 -1.890625 0.578125 -2.5 0.578125 -3.21875 C 0.578125 -3.957031 0.710938 -4.578125 0.984375 -5.078125 C 1.265625 -5.578125 1.640625 -5.953125 2.109375 -6.203125 C 2.585938 -6.453125 3.117188 -6.578125 3.703125 -6.578125 C 4.617188 -6.578125 5.316406 -6.332031 5.796875 -5.84375 C 6.285156 -5.363281 6.53125 -4.65625 6.53125 -3.71875 C 6.53125 -3.382812 6.519531 -3.125 6.5 -2.9375 Z M 4.984375 -3.90625 C 4.972656 -4.394531 4.859375 -4.75 4.640625 -4.96875 C 4.429688 -5.195312 4.117188 -5.3125 3.703125 -5.3125 C 2.890625 -5.3125 2.410156 -4.84375 2.265625 -3.90625 Z M 4.984375 -3.90625 "/></g></g></g><g transform="matrix(1, 0, 0, 1, 57, 262)"><g clip-path="url(#f93ca82321)"><g clip-path="url(#27c9d77478)"><g transform="matrix(1, 0, 0, 1, 0, -0.000000000000056843)"><g clip-path="url(#0eadb92f70)"><g clip-path="url(#197b269554)"><path fill="#1f8f3a" d="M 0.6875 0.453125 L 253.246094 0.453125 L 253.246094 50.648438 L 0.6875 50.648438 Z M 0.6875 0.453125 " fill-opacity="1" fill-rule="nonzero"/></g></g></g></g><g clip-path="url(#80701cdded)"><g clip-path="url(#7ae088c7ab)"><g transform="matrix(1, 0, 0, 1, 124, 4)"><g clip-path="url(#a2273d57f8)"><g clip-path="url(#945929d9e2)"><g clip-path="url(#76bce337bc)"><path fill="#000000" d="M 0.410156 0.925781 L 41.660156 0.925781 L 41.660156 42.175781 L 0.410156 42.175781 Z M 0.410156 0.925781 " fill-opacity="1" fill-rule="nonzero"/></g></g></g></g></g></g><g clip-path="url(#ad0d6b5b8d)"><g clip-path="url(#f66d295cf8)"><g transform="matrix(1, 0, 0, 1, 67, 4)"><g clip-path="url(#1c83e3650a)"><g clip-path="url(#f07d4eb3d4)"><g clip-path="url(#5726dbb26d)"><path fill="#000000" d="M 0.507812 0.925781 L 41.761719 0.925781 L 41.761719 42.175781 L 0.507812 42.175781 Z M 0.507812 0.925781 " fill-opacity="1" fill-rule="nonzero"/></g></g></g></g></g></g><g clip-path="url(#1286c438f7)"><path fill="#ffffff" d="M 98.234375 35.222656 L 98.238281 35.222656 Z M 80.207031 15.210938 C 79.976562 15.210938 79.761719 15.3125 79.527344 15.519531 C 79.5 15.542969 79.167969 15.863281 78.949219 16.070312 L 78.757812 16.25 C 77.644531 17.289062 77.140625 19.160156 77.472656 21.019531 C 77.582031 21.617188 77.753906 22.238281 77.984375 22.863281 C 79.160156 26.023438 81.390625 28.765625 83.058594 30.511719 C 84.714844 32.273438 87.335938 34.648438 90.425781 35.988281 C 91.039062 36.253906 91.648438 36.460938 92.242188 36.601562 C 94.078125 37.03125 95.976562 36.628906 97.074219 35.574219 L 97.253906 35.398438 C 97.46875 35.199219 97.800781 34.886719 97.847656 34.839844 C 98.53125 34.136719 98.1875 33.550781 96.820312 32.160156 L 96.476562 31.808594 C 95.609375 30.90625 94.152344 29.398438 92.921875 29.546875 C 92.585938 29.585938 92.238281 29.828125 91.867188 30.085938 C 91.5 30.34375 91.121094 30.609375 90.664062 30.75 C 89.445312 31.140625 88.203125 30.882812 87.175781 30.035156 C 86.558594 29.527344 85.933594 28.933594 85.363281 28.320312 C 84.789062 27.726562 84.230469 27.070312 83.757812 26.429688 C 82.964844 25.355469 82.777344 24.105469 83.230469 22.90625 C 83.398438 22.457031 83.683594 22.09375 83.957031 21.742188 C 84.234375 21.386719 84.496094 21.050781 84.554688 20.71875 C 84.765625 19.492188 83.339844 17.960938 82.484375 17.046875 L 82.152344 16.6875 C 81.25 15.695312 80.699219 15.210938 80.207031 15.210938 Z M 93.726562 37.859375 C 93.109375 37.859375 92.519531 37.785156 91.996094 37.660156 C 91.335938 37.507812 90.664062 37.28125 89.992188 36.988281 C 86.734375 35.574219 83.992188 33.09375 82.265625 31.261719 C 80.535156 29.445312 78.203125 26.574219 76.964844 23.246094 C 76.707031 22.558594 76.519531 21.875 76.402344 21.210938 C 76.085938 19.449219 76.34375 17.011719 78.015625 15.453125 L 78.199219 15.277344 C 78.429688 15.058594 78.792969 14.714844 78.804688 14.703125 C 80.476562 13.234375 81.96875 14.871094 82.957031 15.949219 L 83.285156 16.304688 C 84.273438 17.367188 85.933594 19.148438 85.628906 20.902344 C 85.523438 21.503906 85.148438 21.988281 84.816406 22.414062 C 84.582031 22.714844 84.359375 23 84.25 23.289062 C 83.925781 24.144531 84.058594 25.007812 84.632812 25.78125 C 85.078125 26.386719 85.605469 27.003906 86.15625 27.570312 C 86.699219 28.160156 87.289062 28.71875 87.867188 29.195312 C 88.613281 29.808594 89.464844 29.988281 90.335938 29.714844 C 90.632812 29.617188 90.929688 29.414062 91.242188 29.191406 C 91.6875 28.882812 92.1875 28.535156 92.792969 28.464844 C 94.570312 28.253906 96.253906 30.003906 97.261719 31.050781 L 97.597656 31.394531 C 98.621094 32.4375 100.175781 34.019531 98.621094 35.605469 C 98.597656 35.628906 98.234375 35.972656 98.003906 36.191406 L 97.828125 36.359375 C 96.679688 37.460938 95.140625 37.859375 93.726562 37.859375 " fill-opacity="1" fill-rule="nonzero"/></g><g clip-path="url(#fa9e231cb0)"><path fill="#ffffff" d="M 135.589844 33.351562 C 135.242188 33.351562 134.90625 33.25 134.621094 33.0625 L 141.453125 26.0625 L 143.65625 28.300781 C 144.019531 28.671875 144.503906 28.875 145.019531 28.875 C 145.535156 28.875 146.019531 28.671875 146.382812 28.304688 L 148.589844 26.0625 L 155.4375 33.0625 C 155.152344 33.25 154.820312 33.351562 154.46875 33.351562 Z M 134.082031 32.515625 C 133.910156 32.234375 133.816406 31.914062 133.816406 31.574219 L 133.816406 19.511719 C 133.816406 19.171875 133.910156 18.847656 134.085938 18.566406 L 140.914062 25.515625 Z M 135.589844 17.734375 L 154.46875 17.734375 C 154.816406 17.734375 155.148438 17.835938 155.433594 18.019531 L 148.316406 25.242188 L 145.835938 27.765625 C 145.617188 27.984375 145.328125 28.105469 145.019531 28.105469 C 144.710938 28.105469 144.421875 27.984375 144.203125 27.761719 L 141.726562 25.242188 L 134.625 18.019531 C 134.910156 17.835938 135.242188 17.734375 135.589844 17.734375 Z M 149.128906 25.515625 L 155.972656 18.566406 C 156.152344 18.84375 156.246094 19.171875 156.246094 19.511719 L 156.246094 31.574219 C 156.246094 31.914062 156.152344 32.234375 155.976562 32.515625 Z M 156.273438 17.71875 C 156.273438 17.71875 156.273438 17.71875 156.273438 17.714844 C 155.792969 17.234375 155.152344 16.964844 154.46875 16.964844 L 135.589844 16.964844 C 134.90625 16.964844 134.265625 17.234375 133.785156 17.71875 C 133.308594 18.195312 133.046875 18.832031 133.046875 19.511719 L 133.046875 31.574219 C 133.046875 32.25 133.308594 32.886719 133.78125 33.363281 C 133.785156 33.367188 133.785156 33.367188 133.785156 33.367188 C 133.785156 33.367188 133.785156 33.367188 133.785156 33.371094 C 133.785156 33.371094 133.789062 33.371094 133.789062 33.371094 C 134.269531 33.851562 134.910156 34.117188 135.589844 34.117188 L 154.46875 34.117188 C 155.152344 34.117188 155.792969 33.851562 156.273438 33.371094 C 156.273438 33.371094 156.273438 33.371094 156.273438 33.367188 C 156.273438 33.367188 156.277344 33.367188 156.277344 33.367188 C 156.753906 32.886719 157.015625 32.25 157.015625 31.574219 L 157.015625 19.511719 C 157.015625 18.832031 156.75 18.195312 156.273438 17.71875 " fill-opacity="1" fill-rule="nonzero"/></g><g clip-path="url(#a83c80c35d)"><g clip-path="url(#ffa46764fb)"><g transform="matrix(1, 0, 0, 1, 181, 4)"><g clip-path="url(#3b8158f92e)"><g clip-path="url(#a1a1092356)"><g clip-path="url(#7f41879610)"><path fill="#000000" d="M 0.210938 0.925781 L 41.464844 0.925781 L 41.464844 42.175781 L 0.210938 42.175781 Z M 0.210938 0.925781 " fill-opacity="1" fill-rule="nonzero"/></g></g></g></g></g></g><g clip-path="url(#c2b76e9855)"><path fill="#ffffff" d="M 209.0625 18.746094 C 207.246094 16.925781 204.828125 15.925781 202.257812 15.925781 C 199.6875 15.925781 197.269531 16.925781 195.453125 18.746094 C 193.636719 20.5625 192.632812 22.980469 192.632812 25.550781 C 192.632812 28.121094 193.636719 30.535156 195.453125 32.355469 C 197.269531 34.171875 199.6875 35.171875 202.257812 35.171875 C 204.828125 35.171875 207.246094 34.171875 209.0625 32.355469 C 210.878906 30.535156 211.882812 28.121094 211.882812 25.550781 C 211.882812 22.980469 210.878906 20.5625 209.0625 18.746094 Z M 193.699219 25.550781 C 193.699219 24.476562 193.898438 23.449219 194.257812 22.503906 L 197.71875 22.503906 C 197.566406 23.472656 197.484375 24.5 197.484375 25.550781 C 197.484375 26.5625 197.558594 27.554688 197.703125 28.496094 L 194.222656 28.496094 C 193.882812 27.578125 193.699219 26.585938 193.699219 25.550781 Z M 198.546875 25.550781 C 198.546875 24.492188 198.632812 23.464844 198.796875 22.503906 L 201.726562 22.503906 L 201.726562 28.496094 L 198.78125 28.496094 C 198.628906 27.5625 198.546875 26.570312 198.546875 25.550781 Z M 204.773438 19.34375 C 205.066406 19.972656 205.308594 20.675781 205.496094 21.441406 L 202.789062 21.441406 L 202.789062 17.089844 C 203.511719 17.351562 204.214844 18.144531 204.773438 19.34375 Z M 201.726562 17.089844 L 201.726562 21.441406 L 199.019531 21.441406 C 199.207031 20.675781 199.449219 19.972656 199.742188 19.34375 C 200.300781 18.144531 201.003906 17.351562 201.726562 17.089844 Z M 201.726562 29.558594 L 201.726562 34.007812 C 201.003906 33.746094 200.300781 32.953125 199.742188 31.753906 C 199.4375 31.101562 199.1875 30.359375 198.996094 29.558594 Z M 202.789062 34.007812 L 202.789062 29.558594 L 205.519531 29.558594 C 205.328125 30.359375 205.078125 31.101562 204.773438 31.753906 C 204.214844 32.953125 203.511719 33.746094 202.789062 34.007812 Z M 202.789062 28.496094 L 202.789062 22.503906 L 205.71875 22.503906 C 205.882812 23.464844 205.96875 24.492188 205.96875 25.550781 C 205.96875 26.570312 205.886719 27.5625 205.734375 28.496094 Z M 206.796875 22.503906 L 210.257812 22.503906 C 210.617188 23.449219 210.816406 24.476562 210.816406 25.550781 C 210.816406 26.585938 210.632812 27.578125 210.292969 28.496094 L 206.8125 28.496094 C 206.957031 27.554688 207.03125 26.5625 207.03125 25.550781 C 207.03125 24.5 206.949219 23.472656 206.796875 22.503906 Z M 209.765625 21.441406 L 206.589844 21.441406 C 206.378906 20.511719 206.09375 19.652344 205.738281 18.894531 C 205.464844 18.308594 205.160156 17.804688 204.828125 17.386719 C 206.945312 18.054688 208.710938 19.523438 209.765625 21.441406 Z M 199.6875 17.386719 C 199.355469 17.804688 199.050781 18.308594 198.777344 18.894531 C 198.421875 19.652344 198.136719 20.511719 197.925781 21.441406 L 194.75 21.441406 C 195.804688 19.523438 197.570312 18.054688 199.6875 17.386719 Z M 194.699219 29.558594 L 197.902344 29.558594 C 198.117188 30.527344 198.410156 31.421875 198.777344 32.203125 C 199.050781 32.789062 199.355469 33.292969 199.6875 33.714844 C 197.535156 33.035156 195.746094 31.523438 194.699219 29.558594 Z M 204.828125 33.714844 C 205.160156 33.292969 205.464844 32.789062 205.738281 32.203125 C 206.105469 31.421875 206.398438 30.527344 206.613281 29.558594 L 209.816406 29.558594 C 208.769531 31.523438 206.984375 33.035156 204.828125 33.714844 Z M 204.828125 33.714844 " fill-opacity="1" fill-rule="nonzero"/></g></g></g></svg>
