<svg xmlns="http://www.w3.org/2000/svg" xmlns:xlink="http://www.w3.org/1999/xlink" width="390" zoomAndPan="magnify" viewBox="0 0 292.5 632.999981" height="844" preserveAspectRatio="xMidYMid meet" version="1.0"><defs><g/><clipPath id="3833be6219"><path d="M 0 0.539062 L 292 0.539062 L 292 632.457031 L 0 632.457031 Z M 0 0.539062 " clip-rule="nonzero"/></clipPath><clipPath id="93246ae599"><path d="M 0 0.539062 L 292 0.539062 L 292 282.929688 L 0 282.929688 Z M 0 0.539062 " clip-rule="nonzero"/></clipPath><clipPath id="9ba8478876"><path d="M -78.851562 0.539062 L 328.738281 0.539062 C 336.183594 0.539062 342.214844 6.574219 342.214844 14.015625 L 342.214844 269.453125 C 342.214844 276.898438 336.183594 282.929688 328.738281 282.929688 L -78.851562 282.929688 C -86.296875 282.929688 -92.328125 276.898438 -92.328125 269.453125 L -92.328125 14.015625 C -92.328125 6.574219 -86.296875 0.539062 -78.851562 0.539062 Z M -78.851562 0.539062 " clip-rule="nonzero"/></clipPath><clipPath id="472fcafc94"><path d="M 0 0.539062 L 292 0.539062 L 292 282.929688 L 0 282.929688 Z M 0 0.539062 " clip-rule="nonzero"/></clipPath><clipPath id="abd9a6fcd1"><path d="M -78.851562 0.539062 L 328.738281 0.539062 C 336.183594 0.539062 342.214844 6.574219 342.214844 14.015625 L 342.214844 269.453125 C 342.214844 276.898438 336.183594 282.929688 328.738281 282.929688 L -78.851562 282.929688 C -86.296875 282.929688 -92.328125 276.898438 -92.328125 269.453125 L -92.328125 14.015625 C -92.328125 6.574219 -86.296875 0.539062 -78.851562 0.539062 Z M -78.851562 0.539062 " clip-rule="nonzero"/></clipPath><clipPath id="6b9cd17b43"><rect x="0" width="292" y="0" height="283"/></clipPath><clipPath id="375dde90c5"><path d="M 121.734375 568.183594 L 139.707031 568.183594 L 139.707031 583.160156 L 121.734375 583.160156 Z M 121.734375 568.183594 " clip-rule="nonzero"/></clipPath><clipPath id="b498ba287a"><path d="M 57.6875 270.101562 L 292 270.101562 L 292 320.300781 L 57.6875 320.300781 Z M 57.6875 270.101562 " clip-rule="nonzero"/></clipPath><clipPath id="834ac55af8"><path d="M 0.6875 0.101562 L 235 0.101562 L 235 50.300781 L 0.6875 50.300781 Z M 0.6875 0.101562 " clip-rule="nonzero"/></clipPath><linearGradient x1="654.117" gradientTransform="matrix(0.196085, 0, 0, 0.196085, 0.686563, 0.101412)" y1="0.000000000000227374" x2="654.117" gradientUnits="userSpaceOnUse" y2="255.999978" id="4ef90798bf"><stop stop-opacity="1" stop-color="rgb(4.309082%, 43.919373%, 3.529358%)" offset="0"/><stop stop-opacity="1" stop-color="rgb(4.66156%, 44.241333%, 3.767395%)" offset="0.00390625"/><stop stop-opacity="1" stop-color="rgb(5.014038%, 44.563293%, 4.006958%)" offset="0.0078125"/><stop stop-opacity="1" stop-color="rgb(5.366516%, 44.883728%, 4.244995%)" offset="0.0117188"/><stop stop-opacity="1" stop-color="rgb(5.718994%, 45.205688%, 4.484558%)" offset="0.015625"/><stop stop-opacity="1" stop-color="rgb(6.071472%, 45.527649%, 4.724121%)" offset="0.0195312"/><stop stop-opacity="1" stop-color="rgb(6.42395%, 45.849609%, 4.963684%)" offset="0.0234375"/><stop stop-opacity="1" stop-color="rgb(6.774902%, 46.17157%, 5.201721%)" offset="0.0273438"/><stop stop-opacity="1" stop-color="rgb(7.12738%, 46.49353%, 5.441284%)" offset="0.03125"/><stop stop-opacity="1" stop-color="rgb(7.479858%, 46.813965%, 5.679321%)" offset="0.0351562"/><stop stop-opacity="1" stop-color="rgb(7.832336%, 47.135925%, 5.918884%)" offset="0.0390625"/><stop stop-opacity="1" stop-color="rgb(8.184814%, 47.457886%, 6.156921%)" offset="0.0429688"/><stop stop-opacity="1" stop-color="rgb(8.537292%, 47.779846%, 6.396484%)" offset="0.046875"/><stop stop-opacity="1" stop-color="rgb(8.889771%, 48.101807%, 6.636047%)" offset="0.0507812"/><stop stop-opacity="1" stop-color="rgb(9.242249%, 48.423767%, 6.87561%)" offset="0.0546875"/><stop stop-opacity="1" stop-color="rgb(9.594727%, 48.744202%, 7.113647%)" offset="0.0585938"/><stop stop-opacity="1" stop-color="rgb(9.947205%, 49.066162%, 7.35321%)" offset="0.0625"/><stop stop-opacity="1" stop-color="rgb(10.299683%, 49.388123%, 7.591248%)" offset="0.0664062"/><stop stop-opacity="1" stop-color="rgb(10.652161%, 49.710083%, 7.830811%)" offset="0.0703125"/><stop stop-opacity="1" stop-color="rgb(11.003113%, 50.032043%, 8.068848%)" offset="0.0742188"/><stop stop-opacity="1" stop-color="rgb(11.355591%, 50.354004%, 8.308411%)" offset="0.078125"/><stop stop-opacity="1" stop-color="rgb(11.708069%, 50.674438%, 8.547974%)" offset="0.0820312"/><stop stop-opacity="1" stop-color="rgb(12.060547%, 50.996399%, 8.787537%)" offset="0.0859375"/><stop stop-opacity="1" stop-color="rgb(12.413025%, 51.318359%, 9.025574%)" offset="0.0898438"/><stop stop-opacity="1" stop-color="rgb(12.765503%, 51.64032%, 9.265137%)" offset="0.09375"/><stop stop-opacity="1" stop-color="rgb(13.117981%, 51.96228%, 9.503174%)" offset="0.0976562"/><stop stop-opacity="1" stop-color="rgb(13.470459%, 52.284241%, 9.742737%)" offset="0.101562"/><stop stop-opacity="1" stop-color="rgb(13.822937%, 52.604675%, 9.980774%)" offset="0.105469"/><stop stop-opacity="1" stop-color="rgb(14.175415%, 52.926636%, 10.220337%)" offset="0.109375"/><stop stop-opacity="1" stop-color="rgb(14.526367%, 53.248596%, 10.4599%)" offset="0.113281"/><stop stop-opacity="1" stop-color="rgb(14.878845%, 53.570557%, 10.699463%)" offset="0.117188"/><stop stop-opacity="1" stop-color="rgb(15.231323%, 53.892517%, 10.9375%)" offset="0.121094"/><stop stop-opacity="1" stop-color="rgb(15.583801%, 54.214478%, 11.177063%)" offset="0.125"/><stop stop-opacity="1" stop-color="rgb(15.936279%, 54.536438%, 11.4151%)" offset="0.128906"/><stop stop-opacity="1" stop-color="rgb(16.288757%, 54.858398%, 11.654663%)" offset="0.132812"/><stop stop-opacity="1" stop-color="rgb(16.641235%, 55.178833%, 11.8927%)" offset="0.136719"/><stop stop-opacity="1" stop-color="rgb(16.993713%, 55.500793%, 12.132263%)" offset="0.140625"/><stop stop-opacity="1" stop-color="rgb(17.346191%, 55.822754%, 12.371826%)" offset="0.144531"/><stop stop-opacity="1" stop-color="rgb(17.698669%, 56.144714%, 12.611389%)" offset="0.148438"/><stop stop-opacity="1" stop-color="rgb(18.051147%, 56.466675%, 12.849426%)" offset="0.152344"/><stop stop-opacity="1" stop-color="rgb(18.403625%, 56.788635%, 13.088989%)" offset="0.15625"/><stop stop-opacity="1" stop-color="rgb(18.754578%, 57.10907%, 13.327026%)" offset="0.160156"/><stop stop-opacity="1" stop-color="rgb(19.107056%, 57.43103%, 13.566589%)" offset="0.164062"/><stop stop-opacity="1" stop-color="rgb(19.459534%, 57.752991%, 13.804626%)" offset="0.167969"/><stop stop-opacity="1" stop-color="rgb(19.812012%, 58.074951%, 14.044189%)" offset="0.171875"/><stop stop-opacity="1" stop-color="rgb(20.16449%, 58.396912%, 14.282227%)" offset="0.175781"/><stop stop-opacity="1" stop-color="rgb(20.516968%, 58.718872%, 14.52179%)" offset="0.179688"/><stop stop-opacity="1" stop-color="rgb(20.869446%, 59.039307%, 14.761353%)" offset="0.183594"/><stop stop-opacity="1" stop-color="rgb(21.221924%, 59.361267%, 15.000916%)" offset="0.1875"/><stop stop-opacity="1" stop-color="rgb(21.574402%, 59.683228%, 15.238953%)" offset="0.191406"/><stop stop-opacity="1" stop-color="rgb(21.92688%, 60.005188%, 15.478516%)" offset="0.195312"/><stop stop-opacity="1" stop-color="rgb(22.279358%, 60.327148%, 15.716553%)" offset="0.199219"/><stop stop-opacity="1" stop-color="rgb(22.631836%, 60.649109%, 15.956116%)" offset="0.203125"/><stop stop-opacity="1" stop-color="rgb(22.982788%, 60.969543%, 16.194153%)" offset="0.207031"/><stop stop-opacity="1" stop-color="rgb(23.335266%, 61.291504%, 16.433716%)" offset="0.210938"/><stop stop-opacity="1" stop-color="rgb(23.687744%, 61.613464%, 16.673279%)" offset="0.214844"/><stop stop-opacity="1" stop-color="rgb(24.040222%, 61.935425%, 16.912842%)" offset="0.21875"/><stop stop-opacity="1" stop-color="rgb(24.3927%, 62.257385%, 17.150879%)" offset="0.222656"/><stop stop-opacity="1" stop-color="rgb(24.745178%, 62.579346%, 17.390442%)" offset="0.226562"/><stop stop-opacity="1" stop-color="rgb(25.097656%, 62.89978%, 17.628479%)" offset="0.230469"/><stop stop-opacity="1" stop-color="rgb(25.450134%, 63.221741%, 17.868042%)" offset="0.234375"/><stop stop-opacity="1" stop-color="rgb(25.802612%, 63.543701%, 18.106079%)" offset="0.238281"/><stop stop-opacity="1" stop-color="rgb(26.15509%, 63.865662%, 18.345642%)" offset="0.242188"/><stop stop-opacity="1" stop-color="rgb(26.506042%, 64.187622%, 18.585205%)" offset="0.246094"/><stop stop-opacity="1" stop-color="rgb(26.858521%, 64.509583%, 18.824768%)" offset="0.25"/><stop stop-opacity="1" stop-color="rgb(27.210999%, 64.830017%, 19.062805%)" offset="0.253906"/><stop stop-opacity="1" stop-color="rgb(27.563477%, 65.151978%, 19.302368%)" offset="0.257812"/><stop stop-opacity="1" stop-color="rgb(27.915955%, 65.473938%, 19.540405%)" offset="0.261719"/><stop stop-opacity="1" stop-color="rgb(28.268433%, 65.795898%, 19.779968%)" offset="0.265625"/><stop stop-opacity="1" stop-color="rgb(28.620911%, 66.117859%, 20.018005%)" offset="0.269531"/><stop stop-opacity="1" stop-color="rgb(28.973389%, 66.439819%, 20.257568%)" offset="0.273438"/><stop stop-opacity="1" stop-color="rgb(29.325867%, 66.76178%, 20.497131%)" offset="0.277344"/><stop stop-opacity="1" stop-color="rgb(29.678345%, 67.08374%, 20.736694%)" offset="0.28125"/><stop stop-opacity="1" stop-color="rgb(30.030823%, 67.404175%, 20.974731%)" offset="0.285156"/><stop stop-opacity="1" stop-color="rgb(30.383301%, 67.726135%, 21.214294%)" offset="0.289062"/><stop stop-opacity="1" stop-color="rgb(30.734253%, 68.048096%, 21.452332%)" offset="0.292969"/><stop stop-opacity="1" stop-color="rgb(31.086731%, 68.370056%, 21.691895%)" offset="0.296875"/><stop stop-opacity="1" stop-color="rgb(31.439209%, 68.692017%, 21.929932%)" offset="0.300781"/><stop stop-opacity="1" stop-color="rgb(31.791687%, 69.013977%, 22.169495%)" offset="0.304688"/><stop stop-opacity="1" stop-color="rgb(32.144165%, 69.334412%, 22.409058%)" offset="0.308594"/><stop stop-opacity="1" stop-color="rgb(32.496643%, 69.656372%, 22.648621%)" offset="0.3125"/><stop stop-opacity="1" stop-color="rgb(32.849121%, 69.978333%, 22.886658%)" offset="0.316406"/><stop stop-opacity="1" stop-color="rgb(33.201599%, 70.300293%, 23.126221%)" offset="0.320312"/><stop stop-opacity="1" stop-color="rgb(33.554077%, 70.622253%, 23.364258%)" offset="0.324219"/><stop stop-opacity="1" stop-color="rgb(33.906555%, 70.944214%, 23.603821%)" offset="0.328125"/><stop stop-opacity="1" stop-color="rgb(34.259033%, 71.264648%, 23.841858%)" offset="0.332031"/><stop stop-opacity="1" stop-color="rgb(34.611511%, 71.586609%, 24.081421%)" offset="0.335938"/><stop stop-opacity="1" stop-color="rgb(34.962463%, 71.908569%, 24.320984%)" offset="0.339844"/><stop stop-opacity="1" stop-color="rgb(35.314941%, 72.23053%, 24.560547%)" offset="0.34375"/><stop stop-opacity="1" stop-color="rgb(35.667419%, 72.55249%, 24.798584%)" offset="0.347656"/><stop stop-opacity="1" stop-color="rgb(36.019897%, 72.874451%, 25.038147%)" offset="0.351562"/><stop stop-opacity="1" stop-color="rgb(36.372375%, 73.194885%, 25.276184%)" offset="0.355469"/><stop stop-opacity="1" stop-color="rgb(36.724854%, 73.516846%, 25.515747%)" offset="0.359375"/><stop stop-opacity="1" stop-color="rgb(37.077332%, 73.838806%, 25.753784%)" offset="0.363281"/><stop stop-opacity="1" stop-color="rgb(37.42981%, 74.160767%, 25.993347%)" offset="0.367188"/><stop stop-opacity="1" stop-color="rgb(37.782288%, 74.482727%, 26.23291%)" offset="0.371094"/><stop stop-opacity="1" stop-color="rgb(38.134766%, 74.804688%, 26.472473%)" offset="0.375"/><stop stop-opacity="1" stop-color="rgb(38.485718%, 75.125122%, 26.71051%)" offset="0.378906"/><stop stop-opacity="1" stop-color="rgb(38.838196%, 75.447083%, 26.950073%)" offset="0.382812"/><stop stop-opacity="1" stop-color="rgb(39.190674%, 75.769043%, 27.18811%)" offset="0.386719"/><stop stop-opacity="1" stop-color="rgb(39.543152%, 76.091003%, 27.427673%)" offset="0.390625"/><stop stop-opacity="1" stop-color="rgb(39.89563%, 76.412964%, 27.66571%)" offset="0.394531"/><stop stop-opacity="1" stop-color="rgb(40.248108%, 76.734924%, 27.905273%)" offset="0.398438"/><stop stop-opacity="1" stop-color="rgb(40.600586%, 77.055359%, 28.143311%)" offset="0.402344"/><stop stop-opacity="1" stop-color="rgb(40.953064%, 77.377319%, 28.382874%)" offset="0.40625"/><stop stop-opacity="1" stop-color="rgb(41.305542%, 77.69928%, 28.622437%)" offset="0.410156"/><stop stop-opacity="1" stop-color="rgb(41.65802%, 78.02124%, 28.862%)" offset="0.414062"/><stop stop-opacity="1" stop-color="rgb(42.010498%, 78.343201%, 29.100037%)" offset="0.417969"/><stop stop-opacity="1" stop-color="rgb(42.362976%, 78.665161%, 29.3396%)" offset="0.421875"/><stop stop-opacity="1" stop-color="rgb(42.713928%, 78.985596%, 29.577637%)" offset="0.425781"/><stop stop-opacity="1" stop-color="rgb(43.066406%, 79.307556%, 29.8172%)" offset="0.429688"/><stop stop-opacity="1" stop-color="rgb(43.418884%, 79.629517%, 30.055237%)" offset="0.433594"/><stop stop-opacity="1" stop-color="rgb(43.771362%, 79.951477%, 30.2948%)" offset="0.4375"/><stop stop-opacity="1" stop-color="rgb(44.12384%, 80.273438%, 30.534363%)" offset="0.441406"/><stop stop-opacity="1" stop-color="rgb(44.476318%, 80.595398%, 30.773926%)" offset="0.445312"/><stop stop-opacity="1" stop-color="rgb(44.828796%, 80.917358%, 31.011963%)" offset="0.449219"/><stop stop-opacity="1" stop-color="rgb(45.181274%, 81.239319%, 31.251526%)" offset="0.453125"/><stop stop-opacity="1" stop-color="rgb(45.533752%, 81.559753%, 31.489563%)" offset="0.457031"/><stop stop-opacity="1" stop-color="rgb(45.88623%, 81.881714%, 31.729126%)" offset="0.460938"/><stop stop-opacity="1" stop-color="rgb(46.238708%, 82.203674%, 31.967163%)" offset="0.464844"/><stop stop-opacity="1" stop-color="rgb(46.591187%, 82.525635%, 32.206726%)" offset="0.46875"/><stop stop-opacity="1" stop-color="rgb(46.942139%, 82.847595%, 32.446289%)" offset="0.472656"/><stop stop-opacity="1" stop-color="rgb(47.294617%, 83.169556%, 32.685852%)" offset="0.476562"/><stop stop-opacity="1" stop-color="rgb(47.647095%, 83.48999%, 32.923889%)" offset="0.480469"/><stop stop-opacity="1" stop-color="rgb(47.999573%, 83.811951%, 33.163452%)" offset="0.484375"/><stop stop-opacity="1" stop-color="rgb(48.352051%, 84.133911%, 33.401489%)" offset="0.488281"/><stop stop-opacity="1" stop-color="rgb(48.704529%, 84.455872%, 33.641052%)" offset="0.492188"/><stop stop-opacity="1" stop-color="rgb(49.057007%, 84.777832%, 33.879089%)" offset="0.496094"/><stop stop-opacity="1" stop-color="rgb(49.409485%, 85.099792%, 34.118652%)" offset="0.5"/><stop stop-opacity="1" stop-color="rgb(49.234009%, 84.893799%, 33.955383%)" offset="0.503906"/><stop stop-opacity="1" stop-color="rgb(49.060059%, 84.689331%, 33.79364%)" offset="0.507812"/><stop stop-opacity="1" stop-color="rgb(48.884583%, 84.483337%, 33.631897%)" offset="0.511719"/><stop stop-opacity="1" stop-color="rgb(48.710632%, 84.277344%, 33.470154%)" offset="0.515625"/><stop stop-opacity="1" stop-color="rgb(48.535156%, 84.07135%, 33.306885%)" offset="0.519531"/><stop stop-opacity="1" stop-color="rgb(48.361206%, 83.866882%, 33.145142%)" offset="0.523438"/><stop stop-opacity="1" stop-color="rgb(48.18573%, 83.660889%, 32.981873%)" offset="0.527344"/><stop stop-opacity="1" stop-color="rgb(48.01178%, 83.456421%, 32.820129%)" offset="0.53125"/><stop stop-opacity="1" stop-color="rgb(47.83783%, 83.250427%, 32.65686%)" offset="0.535156"/><stop stop-opacity="1" stop-color="rgb(47.663879%, 83.045959%, 32.495117%)" offset="0.539062"/><stop stop-opacity="1" stop-color="rgb(47.488403%, 82.839966%, 32.331848%)" offset="0.542969"/><stop stop-opacity="1" stop-color="rgb(47.314453%, 82.635498%, 32.170105%)" offset="0.546875"/><stop stop-opacity="1" stop-color="rgb(47.138977%, 82.429504%, 32.006836%)" offset="0.550781"/><stop stop-opacity="1" stop-color="rgb(46.965027%, 82.225037%, 31.845093%)" offset="0.554688"/><stop stop-opacity="1" stop-color="rgb(46.789551%, 82.019043%, 31.681824%)" offset="0.558594"/><stop stop-opacity="1" stop-color="rgb(46.615601%, 81.814575%, 31.520081%)" offset="0.5625"/><stop stop-opacity="1" stop-color="rgb(46.440125%, 81.608582%, 31.356812%)" offset="0.566406"/><stop stop-opacity="1" stop-color="rgb(46.266174%, 81.404114%, 31.195068%)" offset="0.570312"/><stop stop-opacity="1" stop-color="rgb(46.090698%, 81.19812%, 31.031799%)" offset="0.574219"/><stop stop-opacity="1" stop-color="rgb(45.916748%, 80.993652%, 30.870056%)" offset="0.578125"/><stop stop-opacity="1" stop-color="rgb(45.741272%, 80.787659%, 30.708313%)" offset="0.582031"/><stop stop-opacity="1" stop-color="rgb(45.567322%, 80.581665%, 30.54657%)" offset="0.585938"/><stop stop-opacity="1" stop-color="rgb(45.391846%, 80.375671%, 30.383301%)" offset="0.589844"/><stop stop-opacity="1" stop-color="rgb(45.217896%, 80.171204%, 30.221558%)" offset="0.59375"/><stop stop-opacity="1" stop-color="rgb(45.043945%, 79.96521%, 30.058289%)" offset="0.597656"/><stop stop-opacity="1" stop-color="rgb(44.869995%, 79.760742%, 29.896545%)" offset="0.601562"/><stop stop-opacity="1" stop-color="rgb(44.694519%, 79.554749%, 29.733276%)" offset="0.605469"/><stop stop-opacity="1" stop-color="rgb(44.520569%, 79.350281%, 29.571533%)" offset="0.609375"/><stop stop-opacity="1" stop-color="rgb(44.345093%, 79.144287%, 29.408264%)" offset="0.613281"/><stop stop-opacity="1" stop-color="rgb(44.171143%, 78.939819%, 29.246521%)" offset="0.617188"/><stop stop-opacity="1" stop-color="rgb(43.995667%, 78.733826%, 29.083252%)" offset="0.621094"/><stop stop-opacity="1" stop-color="rgb(43.821716%, 78.529358%, 28.921509%)" offset="0.625"/><stop stop-opacity="1" stop-color="rgb(43.64624%, 78.323364%, 28.75824%)" offset="0.628906"/><stop stop-opacity="1" stop-color="rgb(43.47229%, 78.118896%, 28.596497%)" offset="0.632812"/><stop stop-opacity="1" stop-color="rgb(43.296814%, 77.912903%, 28.433228%)" offset="0.636719"/><stop stop-opacity="1" stop-color="rgb(43.122864%, 77.708435%, 28.271484%)" offset="0.640625"/><stop stop-opacity="1" stop-color="rgb(42.947388%, 77.502441%, 28.108215%)" offset="0.644531"/><stop stop-opacity="1" stop-color="rgb(42.773438%, 77.297974%, 27.946472%)" offset="0.648438"/><stop stop-opacity="1" stop-color="rgb(42.599487%, 77.09198%, 27.784729%)" offset="0.652344"/><stop stop-opacity="1" stop-color="rgb(42.425537%, 76.885986%, 27.622986%)" offset="0.65625"/><stop stop-opacity="1" stop-color="rgb(42.250061%, 76.679993%, 27.459717%)" offset="0.660156"/><stop stop-opacity="1" stop-color="rgb(42.076111%, 76.475525%, 27.297974%)" offset="0.664062"/><stop stop-opacity="1" stop-color="rgb(41.900635%, 76.269531%, 27.134705%)" offset="0.667969"/><stop stop-opacity="1" stop-color="rgb(41.726685%, 76.065063%, 26.972961%)" offset="0.671875"/><stop stop-opacity="1" stop-color="rgb(41.551208%, 75.85907%, 26.809692%)" offset="0.675781"/><stop stop-opacity="1" stop-color="rgb(41.377258%, 75.654602%, 26.647949%)" offset="0.679688"/><stop stop-opacity="1" stop-color="rgb(41.201782%, 75.448608%, 26.48468%)" offset="0.683594"/><stop stop-opacity="1" stop-color="rgb(41.027832%, 75.244141%, 26.322937%)" offset="0.6875"/><stop stop-opacity="1" stop-color="rgb(40.852356%, 75.038147%, 26.159668%)" offset="0.691406"/><stop stop-opacity="1" stop-color="rgb(40.678406%, 74.833679%, 25.997925%)" offset="0.695312"/><stop stop-opacity="1" stop-color="rgb(40.50293%, 74.627686%, 25.834656%)" offset="0.699219"/><stop stop-opacity="1" stop-color="rgb(40.328979%, 74.423218%, 25.672913%)" offset="0.703125"/><stop stop-opacity="1" stop-color="rgb(40.155029%, 74.217224%, 25.509644%)" offset="0.707031"/><stop stop-opacity="1" stop-color="rgb(39.981079%, 74.012756%, 25.3479%)" offset="0.710938"/><stop stop-opacity="1" stop-color="rgb(39.805603%, 73.806763%, 25.184631%)" offset="0.714844"/><stop stop-opacity="1" stop-color="rgb(39.631653%, 73.602295%, 25.022888%)" offset="0.71875"/><stop stop-opacity="1" stop-color="rgb(39.456177%, 73.396301%, 24.861145%)" offset="0.722656"/><stop stop-opacity="1" stop-color="rgb(39.282227%, 73.191833%, 24.699402%)" offset="0.726562"/><stop stop-opacity="1" stop-color="rgb(39.10675%, 72.98584%, 24.536133%)" offset="0.730469"/><stop stop-opacity="1" stop-color="rgb(38.9328%, 72.779846%, 24.37439%)" offset="0.734375"/><stop stop-opacity="1" stop-color="rgb(38.757324%, 72.573853%, 24.211121%)" offset="0.738281"/><stop stop-opacity="1" stop-color="rgb(38.583374%, 72.369385%, 24.049377%)" offset="0.742188"/><stop stop-opacity="1" stop-color="rgb(38.407898%, 72.163391%, 23.886108%)" offset="0.746094"/><stop stop-opacity="1" stop-color="rgb(38.233948%, 71.958923%, 23.724365%)" offset="0.75"/><stop stop-opacity="1" stop-color="rgb(38.058472%, 71.75293%, 23.561096%)" offset="0.753906"/><stop stop-opacity="1" stop-color="rgb(37.884521%, 71.548462%, 23.399353%)" offset="0.757812"/><stop stop-opacity="1" stop-color="rgb(37.709045%, 71.342468%, 23.236084%)" offset="0.761719"/><stop stop-opacity="1" stop-color="rgb(37.535095%, 71.138%, 23.074341%)" offset="0.765625"/><stop stop-opacity="1" stop-color="rgb(37.361145%, 70.932007%, 22.911072%)" offset="0.769531"/><stop stop-opacity="1" stop-color="rgb(37.187195%, 70.727539%, 22.749329%)" offset="0.773438"/><stop stop-opacity="1" stop-color="rgb(37.011719%, 70.521545%, 22.58606%)" offset="0.777344"/><stop stop-opacity="1" stop-color="rgb(36.837769%, 70.317078%, 22.424316%)" offset="0.78125"/><stop stop-opacity="1" stop-color="rgb(36.662292%, 70.111084%, 22.261047%)" offset="0.785156"/><stop stop-opacity="1" stop-color="rgb(36.488342%, 69.906616%, 22.099304%)" offset="0.789062"/><stop stop-opacity="1" stop-color="rgb(36.312866%, 69.700623%, 21.937561%)" offset="0.792969"/><stop stop-opacity="1" stop-color="rgb(36.138916%, 69.496155%, 21.775818%)" offset="0.796875"/><stop stop-opacity="1" stop-color="rgb(35.96344%, 69.290161%, 21.612549%)" offset="0.800781"/><stop stop-opacity="1" stop-color="rgb(35.78949%, 69.084167%, 21.450806%)" offset="0.804688"/><stop stop-opacity="1" stop-color="rgb(35.614014%, 68.878174%, 21.287537%)" offset="0.808594"/><stop stop-opacity="1" stop-color="rgb(35.440063%, 68.673706%, 21.125793%)" offset="0.8125"/><stop stop-opacity="1" stop-color="rgb(35.264587%, 68.467712%, 20.962524%)" offset="0.816406"/><stop stop-opacity="1" stop-color="rgb(35.090637%, 68.263245%, 20.800781%)" offset="0.820312"/><stop stop-opacity="1" stop-color="rgb(34.916687%, 68.057251%, 20.637512%)" offset="0.824219"/><stop stop-opacity="1" stop-color="rgb(34.742737%, 67.852783%, 20.475769%)" offset="0.828125"/><stop stop-opacity="1" stop-color="rgb(34.567261%, 67.64679%, 20.3125%)" offset="0.832031"/><stop stop-opacity="1" stop-color="rgb(34.393311%, 67.442322%, 20.150757%)" offset="0.835938"/><stop stop-opacity="1" stop-color="rgb(34.217834%, 67.236328%, 19.987488%)" offset="0.839844"/><stop stop-opacity="1" stop-color="rgb(34.043884%, 67.03186%, 19.825745%)" offset="0.84375"/><stop stop-opacity="1" stop-color="rgb(33.868408%, 66.825867%, 19.662476%)" offset="0.847656"/><stop stop-opacity="1" stop-color="rgb(33.694458%, 66.621399%, 19.500732%)" offset="0.851562"/><stop stop-opacity="1" stop-color="rgb(33.518982%, 66.415405%, 19.337463%)" offset="0.855469"/><stop stop-opacity="1" stop-color="rgb(33.345032%, 66.210938%, 19.17572%)" offset="0.859375"/><stop stop-opacity="1" stop-color="rgb(33.169556%, 66.004944%, 19.013977%)" offset="0.863281"/><stop stop-opacity="1" stop-color="rgb(32.995605%, 65.800476%, 18.852234%)" offset="0.867188"/><stop stop-opacity="1" stop-color="rgb(32.820129%, 65.594482%, 18.688965%)" offset="0.871094"/><stop stop-opacity="1" stop-color="rgb(32.646179%, 65.388489%, 18.527222%)" offset="0.875"/><stop stop-opacity="1" stop-color="rgb(32.472229%, 65.182495%, 18.363953%)" offset="0.878906"/><stop stop-opacity="1" stop-color="rgb(32.298279%, 64.978027%, 18.202209%)" offset="0.882812"/><stop stop-opacity="1" stop-color="rgb(32.122803%, 64.772034%, 18.03894%)" offset="0.886719"/><stop stop-opacity="1" stop-color="rgb(31.948853%, 64.567566%, 17.877197%)" offset="0.890625"/><stop stop-opacity="1" stop-color="rgb(31.773376%, 64.361572%, 17.713928%)" offset="0.894531"/><stop stop-opacity="1" stop-color="rgb(31.599426%, 64.157104%, 17.552185%)" offset="0.898438"/><stop stop-opacity="1" stop-color="rgb(31.42395%, 63.951111%, 17.388916%)" offset="0.902344"/><stop stop-opacity="1" stop-color="rgb(31.25%, 63.746643%, 17.227173%)" offset="0.90625"/><stop stop-opacity="1" stop-color="rgb(31.074524%, 63.540649%, 17.063904%)" offset="0.910156"/><stop stop-opacity="1" stop-color="rgb(30.900574%, 63.336182%, 16.902161%)" offset="0.914062"/><stop stop-opacity="1" stop-color="rgb(30.725098%, 63.130188%, 16.738892%)" offset="0.917969"/><stop stop-opacity="1" stop-color="rgb(30.551147%, 62.92572%, 16.577148%)" offset="0.921875"/><stop stop-opacity="1" stop-color="rgb(30.375671%, 62.719727%, 16.413879%)" offset="0.925781"/><stop stop-opacity="1" stop-color="rgb(30.201721%, 62.515259%, 16.252136%)" offset="0.929688"/><stop stop-opacity="1" stop-color="rgb(30.026245%, 62.309265%, 16.090393%)" offset="0.933594"/><stop stop-opacity="1" stop-color="rgb(29.852295%, 62.104797%, 15.92865%)" offset="0.9375"/><stop stop-opacity="1" stop-color="rgb(29.678345%, 61.898804%, 15.765381%)" offset="0.941406"/><stop stop-opacity="1" stop-color="rgb(29.504395%, 61.694336%, 15.603638%)" offset="0.945312"/><stop stop-opacity="1" stop-color="rgb(29.328918%, 61.488342%, 15.440369%)" offset="0.949219"/><stop stop-opacity="1" stop-color="rgb(29.154968%, 61.282349%, 15.278625%)" offset="0.953125"/><stop stop-opacity="1" stop-color="rgb(28.979492%, 61.076355%, 15.115356%)" offset="0.957031"/><stop stop-opacity="1" stop-color="rgb(28.805542%, 60.871887%, 14.953613%)" offset="0.960938"/><stop stop-opacity="1" stop-color="rgb(28.630066%, 60.665894%, 14.790344%)" offset="0.964844"/><stop stop-opacity="1" stop-color="rgb(28.456116%, 60.461426%, 14.628601%)" offset="0.96875"/><stop stop-opacity="1" stop-color="rgb(28.28064%, 60.255432%, 14.465332%)" offset="0.972656"/><stop stop-opacity="1" stop-color="rgb(28.106689%, 60.050964%, 14.303589%)" offset="0.976562"/><stop stop-opacity="1" stop-color="rgb(27.931213%, 59.844971%, 14.14032%)" offset="0.980469"/><stop stop-opacity="1" stop-color="rgb(27.757263%, 59.640503%, 13.978577%)" offset="0.984375"/><stop stop-opacity="1" stop-color="rgb(27.581787%, 59.434509%, 13.815308%)" offset="0.988281"/><stop stop-opacity="1" stop-color="rgb(27.407837%, 59.230042%, 13.653564%)" offset="0.992188"/><stop stop-opacity="1" stop-color="rgb(27.233887%, 59.024048%, 13.490295%)" offset="0.996094"/><stop stop-opacity="1" stop-color="rgb(27.059937%, 58.81958%, 13.328552%)" offset="1"/></linearGradient><clipPath id="22ef68fead"><rect x="0" width="235" y="0" height="51"/></clipPath></defs><g clip-path="url(#3833be6219)"><path fill="#ffffff" d="M 0 0.539062 L 292 0.539062 L 292 632.460938 L 0 632.460938 Z M 0 0.539062 " fill-opacity="1" fill-rule="nonzero"/><path fill="#ffffff" d="M 0 0.539062 L 292 0.539062 L 292 632.460938 L 0 632.460938 Z M 0 0.539062 " fill-opacity="1" fill-rule="nonzero"/></g><g clip-path="url(#93246ae599)"><g clip-path="url(#9ba8478876)"><g transform="matrix(1, 0, 0, 1, 0, -0.000000000000015987)"><g clip-path="url(#6b9cd17b43)"><g clip-path="url(#472fcafc94)"><g clip-path="url(#abd9a6fcd1)"><path fill="#000000" d="M -92.328125 0.539062 L 342.289062 0.539062 L 342.289062 282.929688 L -92.328125 282.929688 Z M -92.328125 0.539062 " fill-opacity="1" fill-rule="nonzero"/></g></g></g></g></g></g><g clip-path="url(#375dde90c5)"><path fill="#ffffff" d="M 139.355469 568.589844 C 139.355469 568.585938 139.355469 568.585938 139.355469 568.585938 C 139.359375 568.578125 139.363281 568.570312 139.367188 568.5625 C 139.367188 568.558594 139.371094 568.554688 139.371094 568.554688 C 139.375 568.542969 139.378906 568.535156 139.378906 568.527344 C 139.378906 568.523438 139.378906 568.523438 139.382812 568.523438 C 139.382812 568.511719 139.386719 568.503906 139.386719 568.492188 C 139.386719 568.488281 139.386719 568.488281 139.386719 568.484375 C 139.390625 568.476562 139.390625 568.46875 139.390625 568.460938 C 139.390625 568.457031 139.390625 568.453125 139.390625 568.453125 C 139.390625 568.429688 139.386719 568.410156 139.382812 568.386719 C 139.382812 568.386719 139.378906 568.382812 139.378906 568.378906 C 139.378906 568.371094 139.375 568.363281 139.371094 568.355469 C 139.371094 568.355469 139.371094 568.351562 139.367188 568.347656 C 139.363281 568.339844 139.359375 568.332031 139.355469 568.324219 C 139.355469 568.320312 139.355469 568.320312 139.355469 568.320312 C 139.355469 568.320312 139.355469 568.320312 139.355469 568.316406 C 139.347656 568.308594 139.34375 568.300781 139.335938 568.292969 C 139.335938 568.289062 139.332031 568.289062 139.332031 568.285156 C 139.324219 568.277344 139.320312 568.273438 139.3125 568.265625 C 139.3125 568.265625 139.308594 568.261719 139.308594 568.261719 C 139.300781 568.253906 139.292969 568.246094 139.285156 568.242188 C 139.285156 568.242188 139.285156 568.242188 139.285156 568.238281 C 139.277344 568.234375 139.265625 568.226562 139.257812 568.222656 C 139.253906 568.21875 139.253906 568.21875 139.25 568.21875 C 139.246094 568.214844 139.238281 568.210938 139.230469 568.207031 C 139.226562 568.207031 139.222656 568.203125 139.222656 568.203125 C 139.210938 568.199219 139.203125 568.199219 139.195312 568.195312 C 139.195312 568.195312 139.191406 568.195312 139.191406 568.195312 C 139.179688 568.191406 139.171875 568.1875 139.160156 568.1875 C 139.15625 568.1875 139.15625 568.1875 139.152344 568.1875 C 139.144531 568.1875 139.132812 568.183594 139.125 568.183594 C 139.125 568.183594 139.121094 568.183594 139.121094 568.183594 L 122.027344 568.183594 C 121.914062 568.183594 121.8125 568.257812 121.773438 568.363281 C 121.734375 568.472656 121.769531 568.589844 121.855469 568.664062 L 128.933594 574.386719 L 130.242188 583.269531 C 130.257812 583.382812 130.34375 583.472656 130.457031 583.492188 C 130.472656 583.496094 130.492188 583.5 130.507812 583.5 C 130.601562 583.5 130.691406 583.449219 130.738281 583.363281 L 139.351562 568.59375 Z M 138.125 568.722656 L 129.210938 573.917969 L 122.785156 568.722656 Z M 130.660156 582.429688 L 129.476562 574.382812 L 138.375 569.199219 Z M 130.660156 582.429688 " fill-opacity="1" fill-rule="nonzero"/></g><g fill="#ffffff" fill-opacity="1"><g transform="translate(144.367406, 579.714219)"><g><path d="M 3.796875 0.125 C 3.203125 0.125 2.671875 0.0507812 2.203125 -0.09375 C 1.742188 -0.238281 1.359375 -0.429688 1.046875 -0.671875 C 0.742188 -0.910156 0.507812 -1.171875 0.34375 -1.453125 L 1.28125 -2.59375 L 1.421875 -2.59375 C 1.679688 -2.207031 2.007812 -1.898438 2.40625 -1.671875 C 2.800781 -1.453125 3.265625 -1.34375 3.796875 -1.34375 C 4.242188 -1.34375 4.582031 -1.4375 4.8125 -1.625 C 5.039062 -1.8125 5.15625 -2.078125 5.15625 -2.421875 C 5.15625 -2.617188 5.117188 -2.785156 5.046875 -2.921875 C 4.972656 -3.054688 4.847656 -3.171875 4.671875 -3.265625 C 4.503906 -3.367188 4.273438 -3.457031 3.984375 -3.53125 L 2.890625 -3.78125 C 2.117188 -3.957031 1.546875 -4.25 1.171875 -4.65625 C 0.796875 -5.0625 0.609375 -5.59375 0.609375 -6.25 C 0.609375 -6.726562 0.726562 -7.148438 0.96875 -7.515625 C 1.207031 -7.878906 1.554688 -8.160156 2.015625 -8.359375 C 2.484375 -8.566406 3.039062 -8.671875 3.6875 -8.671875 C 4.34375 -8.671875 4.90625 -8.582031 5.375 -8.40625 C 5.84375 -8.238281 6.238281 -7.976562 6.5625 -7.625 L 5.734375 -6.46875 L 5.578125 -6.46875 C 5.335938 -6.726562 5.0625 -6.921875 4.75 -7.046875 C 4.4375 -7.171875 4.082031 -7.234375 3.6875 -7.234375 C 3.21875 -7.234375 2.863281 -7.148438 2.625 -6.984375 C 2.382812 -6.816406 2.265625 -6.59375 2.265625 -6.3125 C 2.265625 -6.039062 2.347656 -5.820312 2.515625 -5.65625 C 2.679688 -5.5 2.972656 -5.378906 3.390625 -5.296875 L 4.515625 -5.0625 C 5.347656 -4.882812 5.953125 -4.582031 6.328125 -4.15625 C 6.703125 -3.738281 6.890625 -3.191406 6.890625 -2.515625 C 6.890625 -1.984375 6.773438 -1.519531 6.546875 -1.125 C 6.316406 -0.726562 5.96875 -0.421875 5.5 -0.203125 C 5.03125 0.015625 4.460938 0.125 3.796875 0.125 Z M 3.796875 0.125 "/></g></g><g transform="translate(151.714222, 579.714219)"><g><path d="M 0.9375 0 L 0.9375 -9.046875 L 2.546875 -9.046875 L 2.546875 -5.609375 L 2.671875 -5.59375 C 2.890625 -5.90625 3.15625 -6.144531 3.46875 -6.3125 C 3.78125 -6.488281 4.15625 -6.578125 4.59375 -6.578125 C 6.019531 -6.578125 6.734375 -5.769531 6.734375 -4.15625 L 6.734375 0 L 5.109375 0 L 5.109375 -3.953125 C 5.109375 -4.390625 5.019531 -4.707031 4.84375 -4.90625 C 4.664062 -5.101562 4.394531 -5.203125 4.03125 -5.203125 C 3.570312 -5.203125 3.207031 -5.050781 2.9375 -4.75 C 2.675781 -4.445312 2.546875 -3.976562 2.546875 -3.34375 L 2.546875 0 Z M 0.9375 0 "/></g></g><g transform="translate(159.271615, 579.714219)"><g><path d="M 2.515625 0.125 C 2.097656 0.125 1.738281 0.0507812 1.4375 -0.09375 C 1.132812 -0.25 0.898438 -0.472656 0.734375 -0.765625 C 0.566406 -1.066406 0.484375 -1.425781 0.484375 -1.84375 C 0.484375 -2.21875 0.566406 -2.535156 0.734375 -2.796875 C 0.898438 -3.054688 1.15625 -3.269531 1.5 -3.4375 C 1.84375 -3.601562 2.289062 -3.734375 2.84375 -3.828125 C 3.226562 -3.890625 3.519531 -3.957031 3.71875 -4.03125 C 3.925781 -4.101562 4.0625 -4.1875 4.125 -4.28125 C 4.195312 -4.375 4.234375 -4.492188 4.234375 -4.640625 C 4.234375 -4.835938 4.160156 -4.988281 4.015625 -5.09375 C 3.867188 -5.207031 3.628906 -5.265625 3.296875 -5.265625 C 2.941406 -5.265625 2.601562 -5.1875 2.28125 -5.03125 C 1.957031 -4.875 1.675781 -4.664062 1.4375 -4.40625 L 1.3125 -4.40625 L 0.640625 -5.421875 C 0.960938 -5.785156 1.359375 -6.066406 1.828125 -6.265625 C 2.304688 -6.472656 2.820312 -6.578125 3.375 -6.578125 C 4.226562 -6.578125 4.847656 -6.394531 5.234375 -6.03125 C 5.617188 -5.664062 5.8125 -5.148438 5.8125 -4.484375 L 5.8125 -1.6875 C 5.8125 -1.394531 5.9375 -1.25 6.1875 -1.25 C 6.289062 -1.25 6.390625 -1.269531 6.484375 -1.3125 L 6.5625 -1.28125 L 6.671875 -0.15625 C 6.585938 -0.09375 6.460938 -0.0390625 6.296875 0 C 6.140625 0.03125 5.96875 0.046875 5.78125 0.046875 C 5.394531 0.046875 5.09375 -0.0234375 4.875 -0.171875 C 4.65625 -0.316406 4.5 -0.550781 4.40625 -0.875 L 4.28125 -0.890625 C 3.96875 -0.210938 3.378906 0.125 2.515625 0.125 Z M 3.03125 -1.09375 C 3.40625 -1.09375 3.703125 -1.21875 3.921875 -1.46875 C 4.148438 -1.71875 4.265625 -2.066406 4.265625 -2.515625 L 4.265625 -3.171875 L 4.15625 -3.1875 C 4.0625 -3.113281 3.929688 -3.050781 3.765625 -3 C 3.609375 -2.945312 3.382812 -2.894531 3.09375 -2.84375 C 2.738281 -2.78125 2.484375 -2.675781 2.328125 -2.53125 C 2.171875 -2.394531 2.09375 -2.195312 2.09375 -1.9375 C 2.09375 -1.65625 2.175781 -1.441406 2.34375 -1.296875 C 2.507812 -1.160156 2.738281 -1.09375 3.03125 -1.09375 Z M 3.03125 -1.09375 "/></g></g><g transform="translate(166.074439, 579.714219)"><g><path d="M 0.9375 0 L 0.9375 -6.453125 L 2.5 -6.453125 L 2.5 -5.5 L 2.625 -5.46875 C 2.78125 -5.832031 2.984375 -6.097656 3.234375 -6.265625 C 3.492188 -6.429688 3.804688 -6.515625 4.171875 -6.515625 C 4.535156 -6.515625 4.8125 -6.453125 5 -6.328125 L 4.734375 -4.921875 L 4.609375 -4.90625 C 4.503906 -4.945312 4.398438 -4.976562 4.296875 -5 C 4.203125 -5.019531 4.082031 -5.03125 3.9375 -5.03125 C 3.488281 -5.03125 3.144531 -4.867188 2.90625 -4.546875 C 2.664062 -4.234375 2.546875 -3.722656 2.546875 -3.015625 L 2.546875 0 Z M 0.9375 0 "/></g></g></g><g fill="#ffffff" fill-opacity="1"><g transform="translate(170.964518, 579.714219)"><g><path d="M 6.375 -2.859375 L 2.234375 -2.859375 C 2.273438 -2.296875 2.429688 -1.882812 2.703125 -1.625 C 2.984375 -1.375 3.359375 -1.25 3.828125 -1.25 C 4.203125 -1.25 4.503906 -1.316406 4.734375 -1.453125 C 4.960938 -1.597656 5.144531 -1.8125 5.28125 -2.09375 L 5.40625 -2.09375 L 6.484375 -1.40625 C 6.273438 -0.945312 5.957031 -0.578125 5.53125 -0.296875 C 5.101562 -0.015625 4.535156 0.125 3.828125 0.125 C 3.160156 0.125 2.582031 0 2.09375 -0.25 C 1.613281 -0.507812 1.238281 -0.890625 0.96875 -1.390625 C 0.707031 -1.890625 0.578125 -2.5 0.578125 -3.21875 C 0.578125 -3.957031 0.710938 -4.578125 0.984375 -5.078125 C 1.265625 -5.578125 1.640625 -5.953125 2.109375 -6.203125 C 2.585938 -6.453125 3.117188 -6.578125 3.703125 -6.578125 C 4.617188 -6.578125 5.316406 -6.332031 5.796875 -5.84375 C 6.285156 -5.363281 6.53125 -4.65625 6.53125 -3.71875 C 6.53125 -3.382812 6.519531 -3.125 6.5 -2.9375 Z M 4.984375 -3.90625 C 4.972656 -4.394531 4.859375 -4.75 4.640625 -4.96875 C 4.429688 -5.195312 4.117188 -5.3125 3.703125 -5.3125 C 2.890625 -5.3125 2.410156 -4.84375 2.265625 -3.90625 Z M 4.984375 -3.90625 "/></g></g></g><g clip-path="url(#b498ba287a)"><g transform="matrix(1, 0, 0, 1, 57, 270)"><g clip-path="url(#22ef68fead)"><g clip-path="url(#834ac55af8)"><path fill="url(#4ef90798bf)" d="M 0.6875 0.101562 L 0.6875 50.300781 L 235 50.300781 L 235 0.101562 Z M 0.6875 0.101562 " fill-rule="nonzero"/></g></g></g></g></svg>